<?xml version="1.0" encoding="UTF-8" standalone="no"?>
<!-- Generator: Adobe Illustrator 17.0.1, SVG Export Plug-In . SVG Version: 6.00 Build 0)  -->

<svg
   xmlns:serif="http://www.serif.com/"
   xmlns:dc="http://purl.org/dc/elements/1.1/"
   xmlns:cc="http://creativecommons.org/ns#"
   xmlns:rdf="http://www.w3.org/1999/02/22-rdf-syntax-ns#"
   xmlns:svg="http://www.w3.org/2000/svg"
   xmlns="http://www.w3.org/2000/svg"
   xmlns:xlink="http://www.w3.org/1999/xlink"
   xmlns:sodipodi="http://sodipodi.sourceforge.net/DTD/sodipodi-0.dtd"
   xmlns:inkscape="http://www.inkscape.org/namespaces/inkscape"
   version="1.1"
   x="0px"
   y="0px"
   width="86px"
   height="86px"
   viewBox="0 0 86 86"
   enable-background="new 0 0 86 86"
   xml:space="preserve"
   id="svg18"
   sodipodi:docname="icon-launcher-weather (copy).svg"
   inkscape:version="0.92.5 (2060ec1f9f, 2020-04-08)"
   inkscape:export-filename="/home/attah/repos/harbour-sweatherradar/icons/86x86/harbour-sweatherradar.png"
   inkscape:export-xdpi="142.88"
   inkscape:export-ydpi="142.88"><metadata
   id="metadata24"><rdf:RDF><cc:Work
       rdf:about=""><dc:format>image/svg+xml</dc:format><dc:type
         rdf:resource="http://purl.org/dc/dcmitype/StillImage" /></cc:Work></rdf:RDF></metadata><defs
   id="defs22"><radialGradient
     inkscape:collect="always"
     xlink:href="#SVGID_1_"
     id="radialGradient1030"
     cx="42.9105"
     cy="43.0005"
     fx="42.9105"
     fy="43.0005"
     r="42.6105"
     gradientTransform="matrix(1,0,0,1.0017132,0,-0.07366815)"
     gradientUnits="userSpaceOnUse" /></defs><sodipodi:namedview
   pagecolor="#ffffff"
   bordercolor="#666666"
   borderopacity="1"
   objecttolerance="10"
   gridtolerance="10"
   guidetolerance="10"
   inkscape:pageopacity="0"
   inkscape:pageshadow="2"
   inkscape:window-width="1730"
   inkscape:window-height="1234"
   id="namedview20"
   showgrid="false"
   inkscape:zoom="0.97021628"
   inkscape:cx="-340.43191"
   inkscape:cy="256.81595"
   inkscape:window-x="3128"
   inkscape:window-y="359"
   inkscape:window-maximized="0"
   inkscape:current-layer="Layer_1" />
<g
   id="Layer_2"
   display="none">
</g>
<g
   id="Layer_1">

		<radialGradient
   id="SVGID_1_"
   cx="481.8537"
   cy="348.97711"
   r="44.790298"
   gradientTransform="matrix(0,0.953,-0.9513,0,374.8925,-416.2066)"
   gradientUnits="userSpaceOnUse">
		<stop
   offset="0"
   style="stop-color:#6EFFF8"
   id="stop3" />
		<stop
   offset="1"
   style="stop-color:#009DFF"
   id="stop5" />
	</radialGradient>
	<path
   d="M 85.521,84.261 V 43 C 85.521,19.426 66.443,0.317 42.91,0.317 H 1.72 C 0.936,0.317 0.3,0.954 0.3,1.74 V 43 c 0,23.574 19.078,42.684 42.611,42.684 h 41.19 c 0.784,0 1.42,-0.638 1.42,-1.423 z"
   id="path8"
   inkscape:connector-curvature="0"
   style="fill:url(#radialGradient1030);fill-opacity:1" />
	<!-- <g opacity="0.6">
		<path fill="#F3F9E2" d="M43.793,13.043c-0.429-0.858-1.128-0.858-1.555,0l-4.74,9.506c-0.426,0.858,0.006,1.558,0.962,1.558h9.113
			c0.956,0,1.387-0.699,0.958-1.558L43.793,13.043z"/>
		<path fill="#F3F9E2" d="M47.572,61.397h-9.113c-0.956,0-1.388,0.701-0.962,1.558l4.74,9.507c0.428,0.856,1.127,0.856,1.555,0
			l4.738-9.507C48.959,62.098,48.528,61.397,47.572,61.397z"/>
		<path fill="#F3F9E2" d="M72.646,41.973l-9.481-4.751c-0.857-0.429-1.554,0.004-1.554,0.961v9.139c0,0.958,0.697,1.391,1.554,0.962
			l9.481-4.752C73.5,43.103,73.5,42.401,72.646,41.973z"/>
		<path fill="#F3F9E2" d="M24.42,47.322v-9.139c0-0.957-0.7-1.39-1.555-0.961l-9.481,4.751c-0.855,0.428-0.855,1.13,0,1.558
			l9.481,4.752C23.721,48.713,24.42,48.28,24.42,47.322z"/>
		<path fill="#F3F9E2" d="M59.387,32.8c0.674,0.676,1.475,0.488,1.778-0.421l3.352-10.083c0.302-0.909-0.191-1.404-1.098-1.1
			l-10.056,3.36c-0.908,0.302-1.094,1.105-0.42,1.783L59.387,32.8z"/>
		<path fill="#F3F9E2" d="M26.643,52.707c-0.676-0.677-1.475-0.489-1.778,0.421l-3.351,10.084c-0.303,0.907,0.191,1.404,1.098,1.1
			l10.057-3.363c0.907-0.301,1.094-1.104,0.419-1.782L26.643,52.707z"/>
		<path fill="#F3F9E2" d="M61.164,53.127c-0.302-0.91-1.103-1.098-1.778-0.421l-6.445,6.461c-0.674,0.678-0.488,1.481,0.42,1.782
			l10.056,3.363c0.907,0.302,1.399-0.193,1.098-1.101L61.164,53.127z"/>
		<path fill="#F3F9E2" d="M32.669,24.555l-10.057-3.363c-0.906-0.302-1.401,0.193-1.098,1.103l3.351,10.083
			c0.303,0.91,1.101,1.098,1.778,0.421l6.445-6.461C33.763,25.661,33.576,24.858,32.669,24.555z"/>
	</g> -->
	<!-- <g opacity="0.5">
		<path fill="#EEEFEC" d="M32.395,15.006c-0.723-0.628-1.369-0.36-1.438,0.596l-0.751,10.6c-0.066,0.957,0.601,1.438,1.483,1.072
			l8.421-3.497c0.882-0.366,1.014-1.178,0.293-1.808L32.395,15.006z"/>
		<path fill="#EEEFEC" d="M54.342,58.229l-8.419,3.498c-0.883,0.364-1.016,1.179-0.292,1.807l8.006,6.965
			c0.724,0.627,1.366,0.359,1.436-0.596L55.822,59.3C55.891,58.345,55.222,57.863,54.342,58.229z"/>
		<path fill="#EEEFEC" d="M70.092,30.664l-10.573-0.755c-0.954-0.067-1.433,0.602-1.068,1.485l3.49,8.445
			c0.364,0.886,1.175,1.017,1.802,0.293l6.947-8.029C71.315,31.378,71.046,30.73,70.092,30.664z"/>
		<path fill="#EEEFEC" d="M27.581,54.108l-3.492-8.442c-0.363-0.885-1.176-1.017-1.803-0.294l-6.946,8.028
			c-0.624,0.723-0.356,1.372,0.596,1.44l10.575,0.755C27.464,55.663,27.942,54.994,27.581,54.108z"/>
		<path fill="#EEEFEC" d="M54.342,27.275c0.882,0.365,1.55-0.116,1.48-1.071l-0.749-10.602c-0.07-0.955-0.713-1.224-1.436-0.596
			l-8.006,6.964c-0.724,0.629-0.591,1.442,0.292,1.808L54.342,27.275z"/>
		<path fill="#EEEFEC" d="M31.69,58.229c-0.883-0.366-1.551,0.115-1.483,1.071l0.753,10.602c0.066,0.955,0.712,1.224,1.433,0.596
			l8.009-6.963c0.721-0.628,0.589-1.442-0.293-1.808L31.69,58.229z"/>
		<path fill="#EEEFEC" d="M63.742,45.375c-0.627-0.725-1.438-0.593-1.802,0.292l-3.488,8.442c-0.367,0.884,0.112,1.555,1.068,1.485
			l10.574-0.753c0.952-0.068,1.22-0.714,0.595-1.438L63.742,45.375z"/>
		<path fill="#EEEFEC" d="M26.512,29.911l-10.575,0.752c-0.953,0.066-1.22,0.714-0.595,1.437l6.946,8.031
			c0.627,0.724,1.438,0.591,1.804-0.294l3.489-8.442C27.944,30.511,27.464,29.843,26.512,29.911z"/>
	</g> -->
	<linearGradient
   id="SVGID_2_"
   gradientUnits="userSpaceOnUse"
   x1="28.105801"
   y1="27.843"
   x2="57.9244"
   y2="57.661598">
		<stop
   offset="0"
   style="stop-color:#FFFFFF"
   id="stop10" />
		<stop
   offset="1"
   style="stop-color:#F3EDD1"
   id="stop12" />
	</linearGradient>
	<!-- <ellipse fill="url(#SVGID_2_)" cx="43.015" cy="42.752" rx="21.057" ry="21.112"/> -->
	
<g
   style="opacity:1;fill:#dedede;fill-opacity:0.92156863;stroke:#ffffff;stroke-width:2;stroke-linecap:round;stroke-linejoin:round"
   id="g907"
   transform="matrix(0.02934013,0,0,0.02934013,28.908679,9.6067457)"><path
     name=""
     id="SWE99"
     d="m 131.4,2189.5 -0.8,0.4 -2.4,-3.2 0.2,-0.9 1,-0.2 1.3,0.4 1.3,1.1 0.2,1.1 z"
     inkscape:connector-curvature="0"
     style="fill:#dedede;fill-opacity:0.92156863;stroke-width:0;stroke-miterlimit:4;stroke-dasharray:none" /><path
     name="Gävleborg"
     id="SWE178"
     d="m 481.6,1483.2 -1.2,0.6 h -0.6 l -0.5,-0.3 -1.2,0.5 -0.3,-1.6 0.1,-0.8 0.3,-0.6 0.5,-0.4 1.2,0.1 0.8,1.3 1.3,0.2 0.1,0.5 z m -7.6,-36.7 -0.8,0.3 -1.6,-0.4 -0.8,-0.7 0.1,-0.8 0.4,-1.1 0.7,-1.1 0.6,-0.4 0.5,0.1 0.9,0.7 0.4,0.6 -0.1,0.9 -0.5,0.6 -0.1,0.5 z m 5.4,-18.4 -0.4,0.1 -0.5,-0.8 -0.5,-1.5 0.2,-1 0.4,-0.9 0.9,-0.3 0.8,0.5 -0.3,0.7 -0.3,2.1 z m 8.9,-64.7 1.2,0.7 0.5,1.3 -0.9,0.8 -4.2,-0.4 -0.4,-0.9 -0.4,0.2 -0.4,1.2 h -0.5 l -0.4,-1 -0.3,-1.2 0.1,-1.2 1.1,-0.5 3.6,0.9 z m -11.7,0.4 h -0.9 l -0.6,-0.6 -0.2,-0.9 0.4,-1.1 0.1,-0.9 0.3,-0.4 1.8,0.5 0.3,0.6 v 0.8 l -0.3,0.5 0.3,0.7 z m 20.6,-27.4 -0.2,0.4 -0.7,0.1 -0.4,0.9 -0.5,0.3 -0.9,-0.8 0.3,-1.5 1.6,-0.4 z m -5.1,-35.5 -0.6,0.3 -0.4,-1.1 0.3,-1.3 0.6,0.2 0.3,0.5 z m 3,-0.5 -1,0.2 -0.7,-0.4 -0.7,-0.8 -0.3,-1 0.1,-0.3 1.1,0.7 1.7,0.2 0.3,0.5 z m -11.5,208.5 -4.6,21.2 -2.6,6.1 -1.3,1 -1.4,1.7 -1.6,3.7 -0.5,3 0.7,11.5 -5.1,1.8 -1.5,1.5 -1.4,0.5 -6.3,-0.8 -1.3,-0.7 -2.9,-0.4 -1.2,0.2 -1.1,0.4 -1.3,1.5 -0.4,0.8 -0.1,0.9 0.1,1.1 -0.1,1.4 -0.9,1.5 -8,5.3 -2.1,0.6 -1.8,0.1 -3.1,-1.5 -0.7,-1.7 -0.8,-1 -1.5,-1.5 -1.3,-1.6 -1.3,-2.5 -2,-4.8 -1.5,-2.7 -4,-5.8 -2.6,-2.5 -1.8,-1.3 -1.1,-0.6 -1.3,-0.3 -1.7,-1.7 -2.4,-2.9 -7.1,-12.8 -1,-1 -0.9,-0.4 -0.9,-0.8 -1.2,-1.8 -3.8,-8 -0.1,-2.1 0.3,-4.7 4.3,-3.7 6.1,-8.9 0.8,-2.7 1.3,-1.9 1.5,-1.5 0.4,-0.7 0.7,-2.7 0.2,-2 -0.2,-2.2 -1.4,-2.9 -2.1,-3 -4.1,-4.5 -3.2,-4.3 -1,-3.4 -2.9,-6.7 -1.9,-3.7 -2.2,-3.3 -2.7,-1.2 -15.2,-3.6 -8.9,-5.2 -2.6,-2.8 -4.8,-7.2 -0.1,-0.6 0.1,-1.2 -0.1,-2.2 -0.4,-4.7 -1.5,-5.3 -3,-4.6 -14,-15.7 -15.7,-23.6 -0.8,-2.1 -1,-1.2 -2.6,-4.4 -3,4.4 -1.2,1.3 -1,1.7 -1.1,0.8 h -29.4 l -0.7,-0.8 -0.3,-1.5 -1.5,-2.6 -1,-6.3 -13.9,-4.5 3,-6.4 1.8,-14.5 1.8,-8.3 2.4,-5.9 6.3,-9.1 2.3,-1.7 1.4,-0.2 0.5,1.5 5.4,10.2 0.9,1 1.1,0.8 0.5,-0.7 0.4,-2.1 -1,-4.2 2,-1 2.9,2.5 2.7,-0.4 1.7,-3.3 3.5,-0.6 3.9,0.7 2.1,2.3 2,0.1 1,-2.1 -0.1,-3.1 -0.3,-2.3 -0.1,-1.4 0.4,-1.2 1.1,-1.2 0.4,-2.7 0.1,-2.8 -0.3,-2.8 -1.2,-6.4 0.6,-0.8 21.4,-18 2.2,-3.8 0.7,-3.2 -0.8,-3.7 -1.1,-2.9 -1.7,-2.5 -2.1,-3.9 -1.6,-6.8 13,-10.9 3.8,-1.5 3.5,0.5 44,15.4 21,1.6 39.5,11.4 15,0.4 3.4,1.3 18.4,3.6 -1.3,2.8 -0.5,2.2 -0.1,3.2 v 2 l -0.4,1.3 -1.5,1.3 1.6,1 -0.7,2.2 -2.5,3.5 0.8,0.8 1.2,1.5 0.5,1.5 -0.7,0.6 -3.6,0.6 -0.8,0.5 -0.4,1.7 0.1,1.8 -0.2,1.4 -1.6,0.6 -0.7,0.5 -0.5,1.2 -0.3,1.8 v 2 l 0.3,2 1,2.8 0.2,1.3 -0.2,1 -1.1,0.9 -0.4,1.7 v 1.3 l 0.7,0.5 0.2,0.8 -0.5,1.4 -0.7,1.5 v 0.9 l 0.2,0.9 1,0.6 3.9,-1.1 -0.4,1.5 -0.6,1 -0.7,0.6 -0.9,0.2 v 1.2 l 1.3,0.7 0.2,1.8 -0.3,2.4 -0.1,2.6 0.4,2.9 0.6,0.9 3.7,-1 1.3,-0.8 1.4,-0.2 1.4,1.5 0.9,1.8 0.5,1.9 -0.1,1.7 -0.6,1.8 -0.4,2.1 -0.3,2.7 -0.4,2.4 -1.2,1 -1.5,-0.2 -1.1,-0.5 -1,-1 -1,-1.7 -2.8,-6.8 -1.6,-2.6 -2.4,-1.4 0.2,2 0.4,1.6 1,2.9 -2.9,-0.8 -1,-1.3 0.3,-2.4 -2.8,-2.6 -3.2,-0.9 -6.5,0.3 0.9,1.8 1.2,0.6 2.6,-0.2 5.2,3.3 -0.7,2.7 -2.4,1.7 -2.7,0.9 -2,0.1 v 1.1 l 0.6,0.2 1.5,1 -2.2,1 -3.4,-1.5 -1.7,1.5 9.7,2.2 1.7,2.1 -1.7,1 -1.3,-0.3 -2.7,-1.7 -1.6,-0.4 -5.1,0.4 v 1 l 2.7,-0.1 1.2,0.6 0.8,1.7 -3.3,1.6 -3.5,0.5 2,1.7 7.9,1.6 v 1.1 l -7.3,-0.3 -0.8,0.9 0.7,0.8 1.7,0.6 1.4,1.4 1.9,0.5 0.8,0.4 v 1.2 h -3.1 v 1 l 2.9,1.5 0.7,0.8 0.3,1.9 -0.4,1 -0.7,0.9 -0.8,1.6 0.5,1.3 0.3,1.3 0.6,1.1 0.7,0.7 h 1 l 0.9,-1.8 0.7,-0.5 0.5,0.5 0.1,1.1 -0.3,1.2 -0.8,0.5 -0.9,0.1 -0.8,0.4 -0.7,0.7 -0.7,1 -0.5,-1.2 -0.9,-1.5 -0.8,-0.5 -0.7,2.9 -1.4,1.4 -0.4,1.6 0.4,0.9 2.2,3.9 2.2,2.1 2.5,1.2 0.1,1.7 5.6,3.7 -2.2,0.5 -2.5,-0.4 -4.7,-2.4 1.1,3.1 2.1,1.5 2.2,0.7 1.9,1.2 -3.2,-0.2 -1.4,-0.5 -3.9,-3.9 -1.3,-0.5 -1.6,-0.2 v 1.1 l 1.8,0.9 2.3,2.2 2.2,2.8 1.5,2.6 0.9,3.8 -1.1,1.4 -2,1 -1.5,2.5 2.7,2.1 -0.4,3.9 -0.6,1.3 -1.1,1.3 1.5,2.1 0.3,2 -0.9,1.3 h -1.9 l 0.8,0.5 h 2.1 l 0.7,0.5 0.3,0.9 0.2,1.1 -0.2,0.8 -0.6,0.4 -0.6,0.7 -0.6,1.7 -0.4,2.1 -0.2,2 0.3,0.6 0.6,0.8 0.7,0.7 -1.6,1.7 -0.5,0.3 3.9,-0.6 1.9,0.3 0.9,1.5 -4.5,1.2 -1.6,1.9 -0.6,4.3 -0.1,1.9 v 0.7 l 1.6,1.7 1.4,0.2 0.6,0.3 -0.2,1.9 0.2,1.1 0.8,2.4 1.3,-0.8 0.6,0.3 0.4,0.7 2.7,8.8 -1.3,0.7 -0.5,0.6 -0.2,0.9 0.3,1.8 h 0.5 l 0.6,-0.3 0.6,0.7 0.2,2 -0.2,1.6 v 1.3 l 1.1,1.3 1.4,0.5 1.2,-0.1 0.3,0.5 -0.9,2.3 -0.9,1.1 -2.4,1.4 -2.1,2.5 -2.8,2.1 -1.8,0.7 -0.4,0.7 0.1,0.7 0.5,0.4 0.9,-0.2 1.7,-0.8 0.7,-0.2 1.6,0.5 1.5,2.3 2.4,1 4.1,3.7 -3.1,2.1 v 1 l 1.2,0.9 1.6,0.3 z"
     inkscape:connector-curvature="0"
     style="fill:#dedede;fill-opacity:0.92156863;stroke-width:0;stroke-miterlimit:4;stroke-dasharray:none" /><path
     name="Jönköping"
     id="SWE179"
     d="m 337.6,1938.4 1.5,2.3 0.9,0.8 2.5,1.9 2.4,2.3 0.9,0.6 1.4,0.1 1,0.6 1.5,0.8 0.8,0.6 0.6,0.7 0.5,1.4 1,1.3 1.7,0.6 0.2,0.5 -0.3,0.9 -3.5,5.2 -0.3,1.1 0.4,1.1 0.7,0.7 1.8,0.7 0.6,0.6 0.3,0.9 0.1,1.4 -0.2,1.4 -0.6,1.2 -0.4,0.5 -0.6,1.1 -0.4,1.6 -0.4,2.4 -0.7,1.4 -0.6,0.6 h -0.7 l -0.5,-0.5 -1,-1.6 -0.5,-0.6 -0.6,-0.4 -0.6,-0.1 -0.7,0.2 -0.8,0.7 -0.7,1.4 -0.3,1.9 0.4,3.8 v 1.2 l -0.8,2.8 -0.1,1.4 0.5,4.1 -0.4,2.1 -0.6,0.9 -1,1.1 -0.3,0.7 -0.2,1.3 0.2,1.7 0.5,1.8 3.1,4.9 0.4,4.2 -10.2,-3.4 -3.4,-0.4 -10.4,0.6 -0.9,-0.4 -4.3,-0.7 -0.4,0.4 1,3.4 0.3,1.4 -0.1,1.1 -0.5,0.2 -3,-0.8 -1.8,0.5 -2.2,1.4 -4,4 -1.6,1 -1.3,0.2 -2.5,-0.3 -1.6,-1 -1.2,-1.5 -0.4,-1.5 -0.4,-1.6 -0.8,-1.2 -6.3,-3.7 h -3 l -3.9,1.1 -12.9,6 -8.7,1.9 -2.1,1 -1.7,1.9 -0.6,2.6 -0.5,7.4 -0.8,3.8 -0.2,1.5 0.2,1.4 0.6,1.2 0.7,0.8 1.2,1 0.1,1.5 0.4,2.2 v 1.1 l -0.2,1.5 -1.7,3.9 -2.7,4.7 -1.1,0.6 -2.3,-0.3 -2.3,-1.3 -1.2,-1.1 -0.8,-1.3 -3,-9 -1.3,-2.7 -1.3,-1.7 -1.3,-1.1 -2.1,-1.2 -2,-1.7 -1.7,-1 -1,-0.1 -1.3,0.1 -1.8,0.9 h -2 l -2.5,0.7 -6,4.8 -0.7,0.3 -0.9,-0.3 -3.1,-2.9 -2.2,-1.5 -1.4,0.4 -0.9,0.4 -4.3,6.5 -4,-2.5 -2.5,-2.8 -0.4,-1.2 -0.1,-1.4 0.1,-1.7 -0.7,-2.1 -1.3,-1.3 -1.5,-1.2 -2.9,-1.2 -0.9,-1.1 -1.3,-0.8 -2.5,-0.5 -2.1,-0.9 -1.1,-0.3 -1.3,-0.1 -9.4,2.5 h -1.4 l -0.6,0.3 -0.4,0.4 -0.4,1.5 -0.7,1.1 -1.5,1 -0.7,0.7 -1.2,2.2 -0.5,0.7 -0.7,0.7 -0.9,0.4 -1,-0.4 -1.3,-3.1 -1.5,-2.9 -0.6,-1.7 -0.3,-1.9 0.1,-2 0.4,-2 0.3,-1 1.3,-1.5 1.4,-1.6 1.3,-1.8 4.1,-8.1 1.9,-2.6 1.5,-1.3 1.1,-0.2 0.6,-0.3 0.5,-0.8 1.3,-3.9 1.3,-1.8 1.4,-1 2.9,-1.5 3.1,-2.8 4.6,-5.9 3.2,-2.7 0.9,-1 1,-1.7 4.1,-8.6 3.1,-5.4 2.5,-2.8 0.9,-1.4 0.6,-2 0.1,-5.3 0.2,-2 0.9,-2.2 1.5,-2.7 0.3,-1.6 -0.2,-2.8 -0.2,-1.7 v -1.6 l 0.7,-3.4 0.6,-1.5 0.6,-1.2 0.8,-1.2 0.5,-1.3 0.1,-1.7 -0.1,-2.2 -1.3,-6.3 4.1,0.1 1.8,0.5 7.8,-1 1.7,0.7 1.9,1.7 1.8,1.2 1.2,0.2 0.7,-0.3 0.4,-0.8 0.6,-3.2 0.3,-0.7 0.9,-0.9 3.7,-1.7 0.8,-0.9 4.9,-2.3 2.3,-1.6 1.6,-1.7 1,-1.8 0.3,-1.7 -0.1,-1.7 -0.8,-3.7 -0.1,-1.5 14.5,-31.9 4.3,10.1 2.2,2.8 6.2,3.2 17.9,2.4 3.1,-0.3 1.6,-0.7 1.2,-1.3 0.4,-1.4 0.4,-2.5 0.5,-0.7 0.7,-0.4 4.1,-1.3 0.5,0.2 0.6,0.7 0.2,0.9 1.5,3 0.6,1.9 0.8,3.4 0.6,3.3 0.2,0.8 0.6,1.1 2,2.8 0.5,1 0.1,1 -0.2,0.7 -0.9,0.9 -0.8,0.4 -1.7,0.5 -0.7,0.6 -0.4,1 -0.1,1.6 -0.3,1.1 -0.7,1.6 v 0.8 l 0.5,1.3 0.1,0.8 -0.2,0.8 -0.4,0.9 v 1.3 l 0.5,1.7 2.8,4.5 0.9,2 0.4,1.7 0.2,1.8 0.4,1.9 0.9,2.9 2,5 1.6,3.2 1.6,1.8 1.7,0.6 z"
     inkscape:connector-curvature="0"
     style="fill:#dedede;fill-opacity:0.92156863;stroke-width:0;stroke-miterlimit:4;stroke-dasharray:none" /><path
     name="Kalmar"
     id="SWE180"
     d="m 425.8,2022.7 0.8,1 1.2,0.2 0.7,0.5 -0.7,0.6 -1.7,-0.7 -0.7,-0.8 -1.4,0.3 -0.5,-0.4 0.2,-0.8 -0.2,-1.1 0.7,0.1 z m -3.7,-9.2 0.4,0.7 0.2,1 -0.2,0.7 -2.3,1.5 -0.6,-0.6 -0.3,-1.4 0.8,-1.7 0.5,-0.1 0.8,0.2 z m 17.9,-9.9 -0.2,0.2 -0.9,-0.7 0.5,-0.8 0.6,0.7 z m 20.7,-13.3 0.7,0.2 0.6,-0.4 0.5,-1.2 h 0.5 v 0.6 l 0.5,1.2 0.7,1.3 0.4,1.6 -2.1,0.3 -1.6,1.7 -2.6,4.8 1.7,4 0.2,2.1 -1.2,3.6 -0.1,1.8 -1.6,0.9 -0.4,1.3 -0.3,2.1 -0.3,1.3 -3.1,6.1 -0.5,2 -0.5,3.7 -1.3,1.6 -1.7,0.7 -1.7,1.2 0.5,1.2 0.6,0.8 0.7,0.5 0.9,0.3 -1.5,1.5 -1.1,1.5 -2.2,3.8 0.6,1.7 0.4,2.9 -0.1,2.7 -1.1,1.2 -0.7,1.5 -1.3,7.3 -0.8,2.5 h -0.2 l -3.5,2.1 -0.5,0.7 -0.5,1.2 -0.3,1.3 -0.2,1.3 -0.1,1.4 -0.3,2.8 -4.4,14.1 -0.7,2.7 -0.2,3.1 -0.3,1.3 -0.6,1.3 -0.8,1.1 -1.6,1 -0.4,1.2 -0.4,3 -0.1,0.8 0.5,0.4 0.1,0.7 -0.2,0.6 -0.7,1.5 -0.2,0.7 -0.1,2.3 -0.3,1.5 -0.4,1.3 -1.1,2.6 -1,2.8 -0.8,2.8 -0.4,2.6 -0.1,1.1 0.1,3.1 -0.3,1.4 -1,1.9 -0.3,1.3 -0.6,2.2 -3.8,9.1 -1.4,1.7 -1.7,1.1 -1.6,0.1 -1.2,-1.5 -0.2,-1.2 0.2,-3.2 v -1.3 l -1,-3.7 0.6,-3 0.1,-3.3 -0.2,-5.8 0.6,-2.1 -0.4,-2.5 -0.9,-2.6 -0.4,-2.6 0.6,-11.8 0.2,-1.3 1.3,-4.3 1.8,-3.1 0.2,-1.1 0.5,-2.9 12.7,-32.3 1.3,-1.4 1.6,-0.6 2.3,-0.1 2.1,-0.6 1.1,-1.7 1.3,-5.3 3.4,-8.6 3.9,-7.6 3.2,-8.2 1.4,-10.3 0.3,-1.4 0.7,-0.7 1.6,-0.8 1,-1.3 0.4,-1.2 0.2,-7.9 0.3,-2.4 1.7,-1.9 2.3,-3.7 1.3,-1.2 1.4,-0.7 h 0.8 z M 434,1968.1 h -0.3 l -1.9,-1.2 -0.7,-2 1.4,0.9 0.9,1 z m 0.6,-14.3 -1.9,3.6 -0.7,0.3 -0.8,-0.6 -0.4,-0.7 -0.4,-0.2 -0.4,0.6 -0.5,-0.1 -0.6,0.3 0.1,-1.1 0.5,-1.4 0.7,-0.2 0.3,-0.6 1.7,0.3 0.3,-2.9 0.2,-0.2 1.8,0.6 0.3,1 z m -1.4,-25.1 -0.3,0.1 -1.3,-1.1 -0.3,-0.5 -1.7,-1.3 -0.4,-0.7 0.4,-0.6 0.7,-0.4 2.8,0.4 0.8,0.7 0.3,0.9 -0.3,0.8 -0.5,0.5 z m 1.5,-10.4 1.4,2.2 1.2,0.2 -0.1,1 0.2,0.3 0.1,1 0.6,0.8 0.8,0.6 0.1,0.7 -0.6,0.2 -0.8,-1.2 -0.4,-0.3 -1.2,0.8 -0.7,-0.5 0.1,-0.9 -0.8,-1.5 -0.4,-0.7 -1.1,-0.9 -0.6,0.3 0.1,-0.8 0.7,-0.8 0.1,-0.4 z m -3.2,-19.3 0.8,2.7 0.7,1.2 0.8,-0.7 0.8,-1 0.6,0.3 0.3,1.4 0.1,2.2 0.5,0.9 2,2.4 0.6,1.2 -1.3,-0.1 -2.8,-1.9 0.6,2.2 2.2,2.1 0.3,1.5 -0.8,1.6 h -1.3 l -1.3,-0.9 -1,-1.1 -1.5,-3.6 -0.6,-0.4 -0.2,2.9 -0.7,1 -1.5,0.1 -3,-0.5 0.2,-1.3 v -1.2 l -0.3,-1.2 -0.5,-1.2 0.9,-0.1 0.8,0.2 0.7,0.4 0.7,0.6 -9.7,-11.1 -0.8,0.1 -0.5,0.8 -0.3,1.3 0.2,0.9 0.5,1 2.1,2.9 4.4,2 -0.4,0.5 -1.1,1.6 0.4,1.4 0.1,1.3 -0.3,1.2 -0.8,0.8 -1.4,-1.5 -1.4,-1.1 -3.3,-1.2 1,1.8 -0.6,1.1 -0.5,-0.5 -1.5,-0.6 v 1.1 l 16.3,18.4 2.3,2 -0.5,1 -1.3,-0.5 -3.6,-2.6 -1,-1.2 -6,-9.2 -9.3,-7.9 0.6,2.5 0.9,1.6 2.6,2.7 4.3,3 3.2,4.3 1.1,2.3 0.5,0.8 1,0.4 0.8,0.5 2.6,2.9 1,1.3 -1,1.1 h 1.6 l 1.3,0.5 1.1,1.3 0.7,2 H 432 v 0.9 h 1 v 1.1 l -5.1,-0.6 -2.3,-0.9 -2.4,-1.5 0.5,1.3 1.5,1.6 0.6,1 0.7,2.2 -0.2,1.2 -1,0.2 -1.6,-0.8 0.6,1.5 0.9,0.4 0.9,0.1 0.7,0.9 0.5,1.8 -0.4,0.6 -0.7,0.3 -0.7,0.8 -0.7,0.9 -2.1,2.1 -0.6,0.4 -0.4,-0.6 -0.1,-1.3 v -2.9 l -0.6,0.6 -0.7,0.3 -0.6,-0.3 v 1 l 0.9,1.1 -1.1,1.7 -0.5,0.4 v 0.9 l 1.6,1 v 1 h -2.1 v 0.8 l 5.9,0.2 2.8,1.2 2.1,5.8 1.7,3.6 0.7,2.5 -2.2,-0.6 0.9,2.3 -0.4,0.6 -1.1,0.1 -1,0.8 -0.4,1.7 0.4,1.5 1.1,1 1.4,0.5 -1.2,0.9 -1.4,0.4 -0.9,1 0.5,2.6 -4.5,-0.9 -1.9,0.6 -1,3.2 2.7,1.9 -0.7,1.3 -0.9,0.6 -0.1,0.6 1.1,1.3 -5.8,3.5 -1.2,2.6 1.9,4.6 -2.2,2.1 -0.6,3.3 0.6,3.7 1.2,3.2 2.1,3.8 0.9,1 0.7,0.4 1,-0.1 0.7,1.1 1.3,3.3 -1.2,0.8 0.5,1.6 1,1.8 0.7,1.5 -1,0.1 -2.7,-1 -0.1,-0.4 0.1,-1.2 -0.5,-0.3 -0.5,0.1 -0.8,1.2 -0.5,2 -0.3,0.3 -0.5,-0.6 -1.3,-0.3 -1.8,-0.8 h -0.9 l 1.1,1.8 0.7,0.7 0.7,0.3 v 1.1 h -1.5 l -1,1.3 -0.4,2.3 0.4,2.9 0.7,1.7 0.9,1.1 0.5,1 -0.4,1.5 -2,3.8 v 0.9 l 0.3,3.7 v 1.5 l -0.3,1.4 -2.1,6.7 v 1.3 l 0.6,1.5 0.9,0.7 0.9,-0.6 0.9,-0.9 0.8,-0.6 0.7,0.5 0.2,1.1 -0.2,1.3 -0.4,0.8 -0.9,0.4 -2.1,-1 -1.1,-0.2 -1.2,0.3 -1.5,1.3 -1.2,0.2 -0.3,0.8 0.5,1.6 1.1,2.9 0.2,4.4 -0.1,2.5 -0.6,1.9 -1,1 -1.3,0.4 -1.2,-0.1 -1.8,-1.5 -1,0.2 -0.9,0.7 -1.6,0.8 -0.7,1.1 -1.7,3.9 -0.2,0.8 v 2.1 l -0.4,2.9 -0.2,3.2 -0.4,1.4 -2.2,0.2 -0.4,1.3 -0.5,2.7 -3.7,7.2 -1.7,4.9 -2.2,11.4 h -0.4 l -1.4,0.5 -0.8,0.8 -1.5,0.2 -2.4,-0.2 -9.1,-3.3 -4.5,-3.3 -5.7,-7.3 -4.2,-4 -5.4,-6.1 -1.4,-1 -1.3,-0.1 -0.9,0.1 -1,1.2 -0.5,1.4 -0.7,0.3 -0.6,0.1 -4,-1 -1.6,-0.9 -1.4,-0.2 -1.7,0.3 -0.5,0.3 -2.1,2.2 -0.6,-1.4 v -1.1 l 1.1,-4.3 0.5,-1.3 0.7,-0.9 0.9,-0.5 0.6,-1 0.3,-1.5 v -2.4 l 0.8,-12.4 -0.2,-2.8 -0.3,-1.8 -0.9,-3.4 -0.7,-2.9 0.2,-1.5 0.5,-0.9 1.9,-1 0.7,-0.5 1,-1.1 0.8,-0.5 1.1,-0.2 3.6,-0.1 1,-0.4 1,-0.8 0.6,-1 0.3,-1.3 -0.1,-1.8 -0.4,-2 -0.6,-2.1 -1.2,-3.5 -0.1,-1.5 0.5,-1.1 0.9,-1 1,-0.5 1.1,-0.3 1.4,0.2 4.7,2.8 0.7,0.1 0.7,-0.1 1.3,-0.7 6.9,-0.1 2.2,-0.6 1.8,-2 0.8,-2.2 v -2.1 l -0.5,-1.9 -1.3,-3.1 -0.7,-2.4 -0.5,-1.3 -4.2,-6.1 -0.8,-1.4 -0.7,-1 -3.2,-3.5 -0.6,-0.9 -0.6,-2.3 -0.8,-0.7 -4.2,-1.9 -1.1,-1.1 -0.5,-1.8 0.1,-2 -0.2,-1.2 -0.6,-0.9 -1.9,-1.7 -0.4,-4.2 -3.1,-4.9 -0.5,-1.8 -0.2,-1.7 0.2,-1.3 0.3,-0.7 1,-1.1 0.6,-0.9 0.4,-2.1 -0.5,-4.1 0.1,-1.4 0.8,-2.8 v -1.2 l -0.4,-3.8 0.3,-1.9 0.7,-1.4 0.8,-0.7 0.7,-0.2 0.6,0.1 0.6,0.4 0.5,0.6 1,1.6 0.5,0.5 h 0.7 l 0.6,-0.6 0.7,-1.4 0.4,-2.4 0.4,-1.6 0.6,-1.1 0.4,-0.5 0.6,-1.2 0.2,-1.4 -0.1,-1.4 -0.3,-0.9 -0.6,-0.6 -1.8,-0.7 -0.7,-0.7 -0.4,-1.1 0.3,-1.1 3.5,-5.2 0.3,-0.9 -0.2,-0.5 -1.7,-0.6 -1,-1.3 -0.5,-1.4 -0.6,-0.7 -0.8,-0.6 -1.5,-0.8 -1,-0.6 -1.4,-0.1 -0.9,-0.6 -2.4,-2.3 -2.5,-1.9 -0.9,-0.8 -1.5,-2.3 0.9,-3.2 0.1,-0.9 0.3,-1.4 0.6,-0.8 1.6,-1 3.3,-1.2 1.4,-0.8 0.9,-1.2 0.6,-1.9 0.9,-1.4 1.5,-1.7 2.3,-3.5 1.4,-1 1.3,-0.6 2.7,-0.6 1.7,-0.1 2.9,0.5 1.4,0.7 3.4,2.3 5.4,1.3 2.2,1.3 1.9,0.1 1.5,-0.6 2,-1.6 3,-4.1 0.9,-1.9 0.2,-1.9 -0.2,-2.2 -0.6,-2.5 -0.2,-1.6 0.2,-1.2 0.4,-0.9 1.1,-1.6 0.5,-1.1 0.3,-1.2 -0.4,-1.8 -2.8,-4.2 -0.6,-1.2 -0.1,-1.3 0.2,-1.1 0.4,-1.1 0.1,-0.9 -0.3,-0.7 -0.5,-0.6 -0.3,-0.8 0.3,-0.9 1.2,-0.2 4.4,1 2.5,-0.2 2.3,0.5 0.9,-0.3 0.4,-1.1 0.4,-1.3 1,-1.8 1.5,-1 4.6,-1.8 1.8,-0.4 4.9,0.6 2.6,-0.8 1.5,-0.1 1.5,0.2 1.7,1 1.1,1 0.9,1.1 0.9,0.7 0.9,0.2 2.8,-0.5 1.2,0.1 1,0.7 0.8,1.1 0.5,1.3 1.1,6.6 0.5,2 1.1,2.3 0.6,1 0.4,0.3 1.2,0.5 z"
     inkscape:connector-curvature="0"
     style="fill:#dedede;fill-opacity:0.92156863;stroke-width:0;stroke-miterlimit:4;stroke-dasharray:none" /><path
     name="Dalarna"
     id="SWE181"
     d="m 265,1357.6 13.9,4.5 1,6.3 1.5,2.6 0.3,1.5 0.7,0.8 h 29.4 l 1.1,-0.8 1,-1.7 1.2,-1.3 3,-4.4 2.6,4.4 1,1.2 0.8,2.1 15.7,23.6 14,15.7 3,4.6 1.5,5.3 0.4,4.7 0.1,2.2 -0.1,1.2 0.1,0.6 4.8,7.2 2.6,2.8 8.9,5.2 15.2,3.6 2.7,1.2 2.2,3.3 1.9,3.7 2.9,6.7 1,3.4 3.2,4.3 4.1,4.5 2.1,3 1.4,2.9 0.2,2.2 -0.2,2 -0.7,2.7 -0.4,0.7 -1.5,1.5 -1.3,1.9 -0.8,2.7 -6.1,8.9 -4.3,3.7 -0.3,4.7 0.1,2.1 3.8,8 1.2,1.8 0.9,0.8 0.9,0.4 1,1 7.1,12.8 2.4,2.9 1.7,1.7 1.3,0.3 1.1,0.6 1.8,1.3 2.6,2.5 4,5.8 1.5,2.7 2,4.8 1.3,2.5 1.3,1.6 1.5,1.5 0.8,1 0.7,1.7 0.2,2.2 -1.6,0.9 -10.9,3 -2.7,3.2 -3.4,6.7 -1.8,1.7 -2,1.3 -4.5,1.6 -3.3,0.4 -7.2,-0.8 -1.5,-0.6 -2.1,-1.5 -0.7,-1.2 -0.3,-1.1 v -1.2 l -0.3,-1.1 -0.5,-3.3 -1.6,-2.1 -1.2,-0.6 -2.7,-0.8 -1.3,-0.7 -0.7,-0.8 -1.6,0.6 -1.5,-1 -2.9,-0.7 h -1.9 l -1.8,0.4 -4.3,1.8 H 369 l -1.9,-0.6 -1.4,0.1 -1.5,1.1 -3.5,3.6 -0.1,1.2 0.3,0.8 0.2,0.9 -1.2,3.7 -0.9,2 -1.4,1.9 -0.3,1.2 0.3,1.1 0.9,1.1 0.2,1.1 -0.1,1.4 0.2,5.8 -1.2,2.5 -1.9,2.2 -1.5,0.7 -1.4,-0.2 -1.8,-1.2 -2.1,-1 h -2.7 l -1.7,1.2 -0.9,1.9 -0.4,2.6 -0.6,1.7 -1.9,2.1 -0.8,1.3 -0.7,1.6 -0.7,2.3 -14.1,-18.1 -0.8,-0.8 -1.5,-1.1 -16.6,-7.4 -6.9,-1.7 -3.4,-2 -1.5,-1.4 -0.4,-0.7 -0.2,-0.8 -0.1,-1.3 -0.3,-0.5 -1.1,-0.1 -1.6,0.7 -3.3,2.6 -1,3 -0.3,2.9 1.5,5.6 -2.2,0.6 -1.9,0.1 -20.1,-2.8 -14.7,-10.7 -1.5,-4.6 -2,-3.2 -0.4,-1.7 -2.1,-5.5 -1.5,-3.4 -1.1,-1.5 -1.2,-0.7 -6.4,-0.6 -3.9,-1.8 h -0.8 l -0.6,0.2 -0.1,0.8 0.4,1.3 0.8,1.4 2.3,2.7 v 0.6 l -0.4,0.7 -1.3,0.8 -1.5,0.8 -1.7,-0.9 -8.1,-8.8 -13.4,-22.2 -2.1,-1.9 -8.5,-4.2 -1.7,-1.5 -1,-1.3 -3.1,-5 -0.1,-0.3 -1.2,-3.7 -2.6,-5.8 -10.4,-18.7 -1.2,-1.2 -1.1,-0.7 -1.2,-0.6 -0.8,-1 -0.7,-1.3 -2.2,-7.5 -1.9,-3.7 -3.2,-4.7 -25.9,-28.6 -0.9,-2.1 -2.2,-6.2 -0.3,-0.5 0.2,-0.6 1.5,-10.6 0.5,-2.1 0.5,-1.4 5.5,-8.4 1.6,-3.5 1.1,-4.4 2.5,-14.8 -0.1,-1.9 -0.7,-1.5 -19.9,-27.9 -2.3,-2.2 -2.5,-0.9 -5.1,-0.4 -2.9,-0.6 -2.1,-1.4 -6,-8.1 -3.5,-2.9 -8.7,-9.6 -1.1,-2.1 5.9,-40.8 5.9,-41.1 -0.2,-6.1 2,-0.4 34.4,10.9 13.5,12.3 5.5,8 10.5,6.1 7.4,-0.6 7.3,6.9 -1.7,3.9 -2.4,11.9 6.2,11.2 2.8,6.8 3.6,6.5 2.1,4.9 1.8,5.8 4.6,4.4 52.1,9.3 6.5,2.8 z"
     inkscape:connector-curvature="0"
     style="fill:#dedede;fill-opacity:0.92156863;stroke-width:0;stroke-miterlimit:4;stroke-dasharray:none" /><path
     name="Kronoberg"
     id="SWE182"
     d="m 345.7,2008.7 1.9,1.7 0.6,0.9 0.2,1.2 -0.1,2 0.5,1.8 1.1,1.1 4.2,1.9 0.8,0.7 0.6,2.3 0.6,0.9 3.2,3.5 0.7,1 0.8,1.4 4.2,6.1 0.5,1.3 0.7,2.4 1.3,3.1 0.5,1.9 v 2.1 l -0.8,2.2 -1.8,2 -2.2,0.6 -6.9,0.1 -1.3,0.7 -0.7,0.1 -0.7,-0.1 -4.7,-2.8 -1.4,-0.2 -1.1,0.3 -1,0.5 -0.9,1 -0.5,1.1 0.1,1.5 1.2,3.5 0.6,2.1 0.4,2 0.1,1.8 -0.3,1.3 -0.6,1 -1,0.8 -1,0.4 -3.6,0.1 -1.1,0.2 -0.8,0.5 -1,1.1 -0.7,0.5 -1.9,1 -0.5,0.9 -0.2,1.5 0.7,2.9 0.9,3.4 0.3,1.8 0.2,2.8 -0.8,12.4 v 2.4 l -0.3,1.5 -0.6,1 -0.9,0.5 -0.7,0.9 -0.5,1.3 -1.1,4.3 v 1.1 l 0.6,1.4 -1.5,1.8 -0.9,0.3 h -1 l -2.2,-0.6 h -1.6 l -1.5,0.5 -0.8,0.8 -0.7,1.7 -0.9,0.9 h -0.8 l -1.3,-0.2 -1.7,-0.7 -2.3,-1.4 -1,-0.4 H 312 l -3.6,1.1 -3.3,0.2 -0.8,0.2 -0.5,0.6 -0.5,1.8 -0.5,1.1 -2.6,3.7 -2.5,2.3 -1.6,0.5 -1.8,-0.1 -10.9,-3.1 -2,-1.1 -2.6,-2.4 -2.9,-3.1 -2.3,-2 -4.2,-1.8 -13.7,-4 -3.9,-1.8 -2.2,-0.5 -8.8,0.1 -1.2,-0.4 -1.7,-1.7 -1.1,-0.5 -1.1,0.1 -1.3,1 -1,1.2 -0.6,1 -0.3,0.8 -0.4,1.7 -0.4,1 -1.3,0.8 -2.3,1 -31.5,7.6 h -5.7 l -2.2,-3.3 -1.2,-3.6 -0.3,-2.4 v -1.1 l 0.2,-0.7 0.1,-1.3 v -1.9 l -0.5,-4.2 -0.8,-2.7 -1.5,-3.3 -5,-9.3 -1.4,-2 -1.8,-1.8 -0.2,-0.5 0.5,-1.2 0.1,-0.8 v -1.2 l -0.1,-2.1 0.4,-6.8 -0.1,-3.9 0.2,-2 0.5,-1.7 1,-2.1 0.4,-0.7 0.4,-0.4 1.3,-0.2 2.6,-1.2 1.2,-0.2 h 5 l 1.1,-0.3 2.9,-1.7 6.3,-1.8 1.5,-0.8 1.2,-1.1 1.5,-1.9 1.2,-2.6 0.4,-1.6 -0.4,-2.6 4.3,-6.5 0.9,-0.4 1.4,-0.4 2.2,1.5 3.1,2.9 0.9,0.3 0.7,-0.3 6,-4.8 2.5,-0.7 h 2 l 1.8,-0.9 1.3,-0.1 1,0.1 1.7,1 2,1.7 2.1,1.2 1.3,1.1 1.3,1.7 1.3,2.7 3,9 0.8,1.3 1.2,1.1 2.3,1.3 2.3,0.3 1.1,-0.6 2.7,-4.7 1.7,-3.9 0.2,-1.5 v -1.1 l -0.4,-2.2 -0.1,-1.5 -1.2,-1 -0.7,-0.8 -0.6,-1.2 -0.2,-1.4 0.2,-1.5 0.8,-3.8 0.5,-7.4 0.6,-2.6 1.7,-1.9 2.1,-1 8.7,-1.9 12.9,-6 3.9,-1.1 h 3 l 6.3,3.7 0.8,1.2 0.4,1.6 0.4,1.5 1.2,1.5 1.6,1 2.5,0.3 1.3,-0.2 1.6,-1 4,-4 2.2,-1.4 1.8,-0.5 3,0.8 0.5,-0.2 0.1,-1.1 -0.3,-1.4 -1,-3.4 0.4,-0.4 4.3,0.7 0.9,0.4 10.4,-0.6 3.4,0.4 z"
     inkscape:connector-curvature="0"
     style="fill:#dedede;fill-opacity:0.92156863;stroke-width:0;stroke-miterlimit:4;stroke-dasharray:none" /><path
     name="Orebro"
     id="SWE183"
     d="m 338.5,1621.7 0.6,1.8 1.4,2.2 0.1,1.4 -0.2,1.3 -0.7,1.3 0.3,0.8 1,0.5 1.5,0.5 2.4,1.7 1.2,2.4 1.4,4.5 0.3,2.9 -0.4,3.1 -1.4,6.7 -0.1,3.7 0.4,2 0.6,0.9 1,0.3 3.1,-0.1 1.5,0.4 1.2,1.9 0.5,2.6 0.2,4.2 0.3,2 0.7,1.2 1,0.3 1.9,-0.3 0.8,0.2 0.9,1 0.1,1.4 -0.3,1.3 -1.5,3 v 1.5 l 0.4,0.7 1.7,2.5 0.4,2.1 0.1,2.3 -0.8,1.6 -1.5,1.1 -5.8,1.9 -0.5,0.9 -0.5,1.7 -0.1,1.8 0.2,1.4 0.6,1.1 0.8,1.2 0.4,1.2 -2,5.8 -0.2,1.5 0.4,0.6 3.1,1.6 1.9,1.8 1.7,3.1 1,1.4 1.1,0.6 3.1,-0.3 1,0.2 0.1,0.8 -0.3,0.7 -1.7,3 -0.5,1.4 0.2,1.2 0.6,2.3 1.8,5.1 0.2,1.3 -0.3,1 -1.2,1.1 -1.5,0.8 -2.1,0.7 -1.3,0.6 -0.9,0.9 -0.9,1.7 -2.5,2.7 -1,1.4 -0.7,1.3 -0.4,1.4 0.7,1.7 0.9,1.5 4.8,4.5 -3.4,1.3 -2,0.4 -2.1,0.9 -1.6,1.4 -0.7,1.2 -0.1,1.2 0.2,1 0.2,1.7 -0.4,2.2 -2,3.2 -2,1.6 -8.4,4.2 -2.1,0.6 h -2.1 l -2.7,-1.1 -2,-0.1 -2.4,0.6 -8.2,5.5 -2.2,2.5 -5.9,8.9 -2.6,3.2 -1.3,1.2 -8.9,2.6 -2.5,1.7 -3.7,3.5 -4.9,-3.8 -1.6,-2.3 -1,-3.7 -1.3,-3.1 -1.5,-1.1 -1.5,-0.4 -0.8,0.5 -0.5,0.6 -0.4,1.5 -0.6,0.7 -1.2,1 -1.5,0.9 h -0.6 l -0.4,-0.6 -0.4,-1.3 -0.8,-0.4 -3,-0.5 -1.8,-0.9 -0.7,-1.5 -0.1,-2.9 -0.4,-2.2 -1.1,-2.5 -4.2,-7 -0.8,-2.2 -0.1,-1.7 0.1,-1.9 -0.1,-1.4 -0.5,-1.6 -1.6,-3.3 -1.4,-3.7 -1.2,-3.9 -0.6,-1.5 -1.2,-3.9 1.1,-5.9 0.4,-5.9 -0.4,-3.1 -1,-4.5 -0.2,-2 -0.1,-6.7 0.3,-4.9 1.2,-8.9 1.5,-6 1.7,-5.4 2.7,-6.2 0.7,-2.5 0.5,-1 2.5,-2.9 0.8,-1.4 0.4,-1.6 -0.3,-2.3 -0.2,-0.4 -1.4,-1.4 -0.9,-1.2 -0.5,-1.5 v -1.9 l 0.5,-2.4 0.7,-1.2 0.8,-0.4 0.6,0.2 0.9,0.6 0.4,-0.9 0.1,-2.2 -0.6,-6.4 -0.6,-3 -1,-3.4 -0.6,-2.7 -0.7,-5.9 -0.2,-3.8 0.3,-9.9 -0.7,-13.4 -0.7,-2.8 -1.3,-1.6 -2.4,-1.7 -0.9,-0.9 -0.4,-0.9 0.2,-1.1 1.2,-1.2 6.4,-4.1 -0.3,-5.3 20.1,2.8 1.9,-0.1 2.2,-0.6 -1.5,-5.6 0.3,-2.9 1,-3 3.3,-2.6 1.6,-0.7 1.1,0.1 0.3,0.5 0.1,1.3 0.2,0.8 0.4,0.7 1.5,1.4 3.4,2 6.9,1.7 16.6,7.4 1.5,1.1 0.8,0.8 z"
     inkscape:connector-curvature="0"
     style="fill:#dedede;fill-opacity:0.92156863;stroke-width:0;stroke-miterlimit:4;stroke-dasharray:none" /><path
     name="Östergötland"
     id="SWE184"
     d="m 441.4,1883.3 0.1,0.3 1,-0.6 0.5,0.4 -0.4,0.8 -1.2,0.3 -1.6,-0.7 -1.1,-1.4 0.5,-1.2 1,-0.6 0.8,-0.2 0.3,0.1 0.4,1.1 -0.1,0.7 -0.7,0.5 z m 8.1,-14.7 0.6,-0.3 0.4,0.4 0.4,0.8 0.3,1.4 -0.9,1 -1.5,-0.9 -0.4,0.1 -0.2,-0.9 0.1,-1.1 0.7,-0.8 z m 6.1,-6.9 h -0.5 l 0.5,-1.4 0.4,-0.1 0.5,-0.7 1.3,-0.4 0.4,0.5 -0.3,0.6 -1.6,0.8 z m -7.1,0 -0.4,-0.6 1.1,-2.1 0.7,0.5 v 1.2 l -0.8,0.8 z m -3.3,-3.2 -0.9,0.1 -0.7,-0.5 -0.8,-2.2 -0.3,-2 1,-0.9 1.6,0.9 0.8,0.7 0.3,0.9 -0.2,1.8 z m -0.6,-18.4 0.3,0.4 -0.2,0.8 -0.8,1.2 -0.8,0.5 -0.9,-0.2 1.4,1.4 -0.1,0.4 h -0.9 l -0.5,0.8 0.3,1.1 1.1,1.5 1.9,1.8 1.6,-0.1 1.4,-0.7 0.2,0.5 -0.6,1.2 -0.8,0.9 -1,0.5 H 445 l -1.5,-0.4 -1.4,-1.1 -0.9,-1.7 -0.4,-1.3 -0.7,-1.5 0.1,-0.9 -0.4,-0.9 -0.9,-1.3 0.4,-1.3 1.4,-0.7 0.6,-0.2 1,-0.6 0.8,0.1 1,-0.5 z m 7.8,-2.8 -0.1,1 -0.4,-0.1 -0.5,-2 1.2,-0.9 0.5,-0.1 0.5,0.6 -0.7,1.1 z m 1.4,-9.3 -0.7,0.3 -0.9,-0.5 -0.6,-0.7 0.1,-1.2 0.8,-0.6 1.3,0.7 0.8,0.3 0.3,0.7 -0.4,0.5 z m -2.5,-3.3 -0.2,0.7 -0.6,-0.1 -0.3,-0.6 -0.6,-0.1 -1.4,-0.6 -1.1,-1.3 -0.1,-0.9 0.6,-0.3 h 0.7 l 1.1,0.9 0.7,1 0.6,0.4 z m -12.6,-18.5 -41.4,-5 v 1.1 l 1,0.4 0.8,1 0.3,1.3 -0.5,1.2 -1.1,0.3 -3.2,-0.7 -1.4,0.4 v 0.9 l 0.9,-0.5 0.9,-0.3 0.8,0.4 0.5,1.5 1.5,-1.1 3.4,1.8 1.6,-1.2 1.1,-1.7 1,-0.5 0.9,0.5 1.6,2.1 0.3,0.1 v 2.5 l 0.4,1.2 0.8,0.5 1,-0.1 0.6,-0.6 0.6,-1.8 0.4,-2.3 0.5,-2.1 0.9,-1.3 1,0.4 3.8,2.1 1.1,1 8.9,-0.4 1.6,0.7 1.4,1.7 1,0.7 3.1,0.5 1.4,1.3 -0.6,-3 2.7,0.9 1,0.1 -0.8,2.7 0.5,2.3 1.4,1.5 2,0.4 -1.1,1.1 v 0.8 h 2.1 v 1.1 l -0.8,1.3 1,0.8 2.9,0.8 4.2,4 -1.9,1.1 H 445 l -1.6,0.9 0.7,2 -1.7,1.6 -2.6,1 -1.9,0.4 -0.4,0.3 -0.9,1.3 -0.4,0.4 -0.6,-0.1 -1,-0.8 -0.5,-0.2 -9.3,-1.8 -4.4,-2.8 -7.4,-2.6 -2.2,1.3 2.7,0.3 16,8.7 2.4,0.3 1,0.7 0.7,1.9 v 1.3 l -0.2,1.2 -0.2,1.2 0.4,1.3 0.7,-0.1 1.2,-0.6 1,-0.7 0.1,-0.6 0.9,0.8 0.4,0.8 0.3,3.3 -10.8,-2 1.2,1.5 2.8,2.2 1.1,1.3 -0.3,1.5 0.2,1 0.9,0.4 0.9,-0.1 0.4,-0.6 -0.1,-0.9 -0.4,-1.3 4.4,-0.9 1.5,0.2 -0.7,2.6 -0.4,0.2 -1.3,-0.2 h -0.5 l -0.2,2.3 -0.3,0.7 -0.8,0.5 -2.8,0.5 v 0.9 l 1.7,0.5 5.6,3.4 -1,1 1,0.9 0.8,1.6 0.6,1.9 0.2,2 -0.2,1.9 -0.3,0.4 -0.7,-0.4 -0.9,-0.3 -0.6,0.4 0.2,0.9 0.7,0.9 0.7,0.6 -2.5,4.5 -4.2,-2.7 -4.5,-5.1 -3.3,-2.6 1.1,2.5 3,3 1.1,2.5 h -2 l 1.6,2.8 2.6,3.4 1.5,2.8 -1.6,0.7 0.2,1.8 -0.4,1.1 -0.8,0.4 -1.1,-0.3 1.6,1.3 1.3,0.5 1.2,0.9 1,2.1 -0.6,1.2 -0.6,0.3 -0.7,-0.4 -0.6,-1.1 -2.2,1.5 -0.4,0.8 1,1.6 -1.6,-1.1 -1.6,-4.3 -1,-0.4 -1,1.5 0.5,1.9 1.7,3.5 0.9,-0.2 1.1,0.3 h -1.9 l -1.2,-0.5 -0.4,-0.3 -0.6,-1 -1.1,-2.3 -0.5,-2 -1.1,-6.6 -0.5,-1.3 -0.8,-1.1 -1,-0.7 -1.2,-0.1 -2.8,0.5 -0.9,-0.2 -0.9,-0.7 -0.9,-1.1 -1.1,-1 -1.7,-1 -1.5,-0.2 -1.5,0.1 -2.6,0.8 -4.9,-0.6 -1.8,0.4 -4.6,1.8 -1.5,1 -1,1.8 -0.4,1.3 -0.4,1.1 -0.9,0.3 -2.3,-0.5 -2.5,0.2 -4.4,-1 -1.2,0.2 -0.3,0.9 0.3,0.8 0.5,0.6 0.3,0.7 -0.1,0.9 -0.4,1.1 -0.2,1.1 0.1,1.3 0.6,1.2 2.8,4.2 0.4,1.8 -0.3,1.2 -0.5,1.1 -1.1,1.6 -0.4,0.9 -0.2,1.2 0.2,1.6 0.6,2.5 0.2,2.2 -0.2,1.9 -0.9,1.9 -3,4.1 -2,1.6 -1.5,0.6 -1.9,-0.1 -2.2,-1.3 -5.4,-1.3 -3.4,-2.3 -1.4,-0.7 -2.9,-0.5 -1.7,0.1 -2.7,0.6 -1.3,0.6 -1.4,1 -2.3,3.5 -1.5,1.7 -0.9,1.4 -0.6,1.9 -0.9,1.2 -1.4,0.8 -3.3,1.2 -1.6,1 -0.6,0.8 -0.3,1.4 -0.1,0.9 -0.9,3.2 -18.6,-1.6 -1.7,-0.6 -1.6,-1.8 -1.6,-3.2 -2,-5 -0.9,-2.9 -0.4,-1.9 -0.2,-1.8 -0.4,-1.7 -0.9,-2 -2.8,-4.5 -0.5,-1.7 v -1.3 l 0.4,-0.9 0.2,-0.8 -0.1,-0.8 -0.5,-1.3 v -0.8 l 0.7,-1.6 0.3,-1.1 0.1,-1.6 0.4,-1 0.7,-0.6 1.7,-0.5 0.8,-0.4 0.9,-0.9 0.2,-0.7 -0.1,-1 -0.5,-1 -2,-2.8 -0.6,-1.1 -0.2,-0.8 -0.6,-3.3 -0.8,-3.4 -0.6,-1.9 -1.5,-3 -0.2,-0.9 -0.6,-0.7 -0.5,-0.2 -4.1,1.3 -0.7,0.4 -0.5,0.7 -0.4,2.5 -0.4,1.4 -1.2,1.3 -1.6,0.7 -3.1,0.3 -17.9,-2.4 -6.2,-3.2 -2.2,-2.8 -4.3,-10.1 28.9,-60.8 3.7,-3.5 2.5,-1.7 8.9,-2.6 1.3,-1.2 2.6,-3.2 5.9,-8.9 2.2,-2.5 8.2,-5.5 2.4,-0.6 2,0.1 2.7,1.1 h 2.1 l 2.1,-0.6 8.4,-4.2 2,-1.6 2,-3.2 0.4,-2.2 -0.2,-1.7 -0.2,-1 0.1,-1.2 0.7,-1.2 1.6,-1.4 2.1,-0.9 2,-0.4 3.4,-1.3 4,2.2 0.9,-0.2 0.9,-0.7 1,-2.8 0.4,-0.8 0.7,-0.6 1.5,-0.9 h 1.4 l 1,0.4 2.7,2.7 12.2,9.4 4.5,5.1 12.2,9.7 1.1,1.6 0.8,2.2 1.1,1.9 3.8,4.8 0.4,1 0.4,2.6 0.6,1.6 1.3,1.9 1.2,1.1 1,0.4 13.3,0.5 4.4,1.3 3.6,2.2 2.2,2.5 z"
     inkscape:connector-curvature="0"
     style="fill:#dedede;fill-opacity:0.92156863;stroke-width:0;stroke-miterlimit:4;stroke-dasharray:none" /><path
     name="Södermanland"
     id="SWE185"
     d="m 491.8,1795.4 -1.7,1.1 -0.2,-0.8 0.1,-1.2 0.2,-1.2 0.5,-0.3 0.9,1 z m 0.8,-6.7 0.1,1.7 -1.3,0.5 -0.7,-0.1 -0.9,2.9 -0.6,0.6 -0.6,-0.5 -0.5,-0.8 -0.3,-1.1 0.3,-0.1 0.8,0.3 0.1,-0.7 -0.1,-0.7 -0.4,-0.5 -1,-0.1 -0.1,-0.9 0.4,-0.8 0.8,-0.4 0.9,0.2 0.6,0.6 0.3,-0.9 0.9,-0.2 z m 15.4,-6.2 -0.8,0.3 -2.6,-1.6 -1,-1.5 -2.8,-2.4 -0.2,-1.1 4.9,3.4 2.3,2 z m -55.4,-108.3 7.9,1.6 5.9,-0.8 1.6,0.3 2.3,1.1 3,2.2 0.4,0.4 0.3,1.5 1.4,2.4 2.3,2.3 4.7,2.5 2.6,2.1 1.7,1.8 2,4.5 0.9,1.3 v 1.2 l -0.5,1.7 -1.3,0.8 -2.8,0.3 -1.3,0.2 -1,0.5 -0.8,1.1 -0.9,1.8 -0.4,3.4 0.2,4 -0.5,3.1 -3,3.1 -0.6,0.9 -0.2,1 v 1.4 l 0.4,2 0.1,1.6 0.5,2.1 0.8,2.4 2.2,5.1 1.3,11.6 0.5,1.9 0.4,1.3 1.6,3.2 0.8,0.5 1.3,0.3 5,-0.1 3.4,0.5 2.5,1.4 2.1,2.3 -0.7,1.2 0.6,0.9 0.7,0.6 0.6,0.4 0.7,0.1 v 1 l -0.7,1.3 0.9,0.5 1,0.9 -0.7,2.3 -1.4,1.2 -1.6,-0.2 -1.6,-0.7 -1.5,-0.3 0.7,1.9 1,1.3 2.4,1.9 v 0.9 h -1.6 l 1.1,1.1 -2.2,-0.1 -5.7,-4.6 -2.4,-1.4 v 1 l 1.3,1 0.3,1.7 -0.7,4.4 -0.6,2.4 -0.1,1.1 1,0.7 1.8,1.7 -2.1,1.2 -9.2,-2.2 2.5,4 0.4,2.1 -1.4,2 -4,-0.2 -2.2,0.5 v 2.6 l -8.6,-0.2 -2.3,-0.8 -0.8,-0.9 -1.5,-2.5 -1.1,-0.5 -0.8,0.3 -2.2,1.3 -1.4,0.4 1,0.6 2.4,0.3 0.8,1 v 1.3 l -0.5,1.2 -0.6,1 -0.5,0.5 1.5,1.1 3.2,-0.4 1.6,0.4 v 0.9 l -1.8,1.9 -1.1,2 -1.1,1.3 -1.8,-0.1 -4.4,-3 -2.7,-0.5 -1.6,2.4 3.6,0.2 1.3,1.1 1.3,2.7 h -1.8 l -6.7,2.3 -10.7,-1.3 -1.3,-1.9 -2.2,-2.5 -3.6,-2.2 -4.4,-1.3 -13.3,-0.5 -1,-0.4 -1.2,-1.1 -1.3,-1.9 -0.6,-1.6 -0.4,-2.6 -0.4,-1 -3.8,-4.8 -1.1,-1.9 -0.8,-2.2 -1.1,-1.6 -12.2,-9.7 -4.5,-5.1 -12.2,-9.4 -2.7,-2.7 -1,-0.4 h -1.4 l -1.5,0.9 -0.7,0.6 -0.4,0.8 -1,2.8 -0.9,0.7 -0.9,0.2 -4,-2.2 -4.8,-4.5 -0.9,-1.5 -0.7,-1.7 0.4,-1.4 0.7,-1.3 1,-1.4 2.5,-2.7 0.9,-1.7 0.9,-0.9 1.3,-0.6 2.1,-0.7 1.5,-0.8 1.2,-1.1 0.3,-1 -0.2,-1.3 -1.8,-5.1 -0.6,-2.3 -0.2,-1.2 0.5,-1.4 6,-2.4 1.8,-1.4 1.4,-1.6 0.4,-1.4 v -1.4 -1.3 l 0.1,-1.2 0.6,-1.4 4.5,-8.2 0.7,-1 1.6,-1.3 3.1,-1.3 1.8,-0.2 1.5,0.1 4.8,1.4 1.7,0.1 2.3,-0.4 5.4,-2.1 1.6,-1.2 0.9,-0.9 0.4,-0.7 0.1,-0.7 -0.3,-0.9 -1.7,-1.1 -0.6,-0.7 -0.6,-1.2 -0.3,-1.2 -0.1,-1.4 0.5,-1.1 0.8,-0.6 42.5,-8.3 1.2,0.2 2.1,-0.1 1.1,-0.4 z"
     inkscape:connector-curvature="0"
     style="fill:#dedede;fill-opacity:0.92156863;stroke-width:0;stroke-miterlimit:4;stroke-dasharray:none" /><path
     name="Västmanland"
     id="SWE186"
     d="m 452.6,1674.2 -4.4,3.1 -1.1,0.4 -2.1,0.1 -1.2,-0.2 -42.5,8.3 -0.8,0.6 -0.5,1.1 0.1,1.4 0.3,1.2 0.6,1.2 0.6,0.7 1.7,1.1 0.3,0.9 -0.1,0.7 -0.4,0.7 -0.9,0.9 -1.6,1.2 -5.4,2.1 -2.3,0.4 -1.7,-0.1 -4.8,-1.4 -1.5,-0.1 -1.8,0.2 -3.1,1.3 -1.6,1.3 -0.7,1 -4.5,8.2 -0.6,1.4 -0.1,1.2 v 1.3 1.4 l -0.4,1.4 -1.4,1.6 -1.8,1.4 -6,2.4 1.7,-3 0.3,-0.7 -0.1,-0.8 -1,-0.2 -3.1,0.3 -1.1,-0.6 -1,-1.4 -1.7,-3.1 -1.9,-1.8 -3.1,-1.6 -0.4,-0.6 0.2,-1.5 2,-5.8 -0.4,-1.2 -0.8,-1.2 -0.6,-1.1 -0.2,-1.4 0.1,-1.8 0.5,-1.7 0.5,-0.9 5.8,-1.9 1.5,-1.1 0.8,-1.6 -0.1,-2.3 -0.4,-2.1 -1.7,-2.5 -0.4,-0.7 v -1.5 l 1.5,-3 0.3,-1.3 -0.1,-1.4 -0.9,-1 -0.8,-0.2 -1.9,0.3 -1,-0.3 -0.7,-1.2 -0.3,-2 -0.2,-4.2 -0.5,-2.6 -1.2,-1.9 -1.5,-0.4 -3.1,0.1 -1,-0.3 -0.6,-0.9 -0.4,-2 0.1,-3.7 1.4,-6.7 0.4,-3.1 -0.3,-2.9 -1.4,-4.5 -1.2,-2.4 -2.4,-1.7 -1.5,-0.5 -1,-0.5 -0.3,-0.8 0.7,-1.3 0.2,-1.3 -0.1,-1.4 -1.4,-2.2 -0.6,-1.8 0.7,-2.3 0.7,-1.6 0.8,-1.3 1.9,-2.1 0.6,-1.7 0.4,-2.6 0.9,-1.9 1.7,-1.2 h 2.7 l 2.1,1 1.8,1.2 1.4,0.2 1.5,-0.7 1.9,-2.2 1.2,-2.5 -0.2,-5.8 0.1,-1.4 -0.2,-1.1 -0.9,-1.1 -0.3,-1.1 0.3,-1.2 1.4,-1.9 0.9,-2 1.2,-3.7 -0.2,-0.9 -0.3,-0.8 0.1,-1.2 3.5,-3.6 1.5,-1.1 1.4,-0.1 1.9,0.6 h 0.7 l 4.3,-1.8 1.8,-0.4 h 1.9 l 2.9,0.7 1.5,1 1.6,-0.6 0.7,0.8 1.3,0.7 2.7,0.8 1.2,0.6 1.6,2.1 0.5,3.3 0.3,1.1 v 1.2 l 0.3,1.1 0.7,1.2 2.1,1.5 1.5,0.6 7.2,0.8 3.3,-0.4 4.5,-1.6 2,-1.3 1.8,-1.7 3.4,-6.7 2.7,-3.2 10.9,-3 1.6,-0.9 -0.2,-2.2 3.1,1.5 1.8,-0.1 2.1,-0.6 8,-5.3 0.9,-1.5 0.1,-1.4 -0.1,-1.1 0.1,-0.9 0.4,-0.8 1.3,-1.5 1.1,-0.4 1.2,-0.2 2.9,0.4 1.3,0.7 6.3,0.8 1.4,-0.5 1.5,-1.5 5.1,-1.8 10.8,8.9 1.4,1.6 0.4,2.4 -0.6,3.5 -5.9,18.8 -1.4,2.8 -1.3,1.3 -1.1,0.3 -1.9,-0.3 -0.9,0.3 -0.7,1 -2.4,4.8 -0.8,1.4 -0.3,1.5 0.5,1.3 0.9,0.8 1.2,0.6 0.7,0.9 0.2,1.6 -0.1,2.7 -0.4,3.6 -0.7,2.6 -1.1,1.9 -3.9,2.7 -3.1,2.9 -1.4,1 -1.4,0.3 -1,-0.4 -0.8,-0.9 -1,-2.1 -0.5,-0.5 -4.2,-0.8 -5.2,-2 -1.2,-0.2 -0.6,0.1 -0.2,0.8 v 1.4 l 0.2,3.5 -0.5,1.9 -1,1.6 -3.6,2.4 -0.3,1.3 0.7,2 7.8,17.4 1.3,4.2 2.3,11.6 z"
     inkscape:connector-curvature="0"
     style="fill:#dedede;fill-opacity:0.92156863;stroke-width:0;stroke-miterlimit:4;stroke-dasharray:none" /><path
     name="Halland"
     id="SWE187"
     d="m 161.9,2016.3 -1.3,1.5 -0.3,1 -0.4,2 -0.1,2 0.3,1.9 0.6,1.7 1.5,2.9 1.3,3.1 1,0.4 0.9,-0.4 0.7,-0.7 0.5,-0.7 1.2,-2.2 0.7,-0.7 1.5,-1 0.7,-1.1 0.4,-1.5 0.4,-0.4 0.6,-0.3 h 1.4 l 9.4,-2.5 1.3,0.1 1.1,0.3 2.1,0.9 2.5,0.5 1.3,0.8 0.9,1.1 2.9,1.2 1.5,1.2 1.3,1.3 0.7,2.1 -0.1,1.7 0.1,1.4 0.4,1.2 2.5,2.8 4,2.5 0.4,2.6 -0.4,1.6 -1.2,2.6 -1.5,1.9 -1.2,1.1 -1.5,0.8 -6.3,1.8 -2.9,1.7 -1.1,0.3 h -5 l -1.2,0.2 -2.6,1.2 -1.3,0.2 -0.4,0.4 -0.4,0.7 -1,2.1 -0.5,1.7 -0.2,2 0.1,3.9 -0.4,6.8 0.1,2.1 v 1.2 l -0.1,0.8 -0.5,1.2 0.2,0.5 1.8,1.8 1.4,2 5,9.3 1.5,3.3 0.8,2.7 0.5,4.2 v 1.9 l -0.1,1.3 -0.2,0.7 v 1.1 l 0.3,2.4 1.2,3.6 2.2,3.3 -3.7,-0.6 -2.4,0.4 -2.2,0.8 -5.4,3.4 -1.8,1.5 -1.6,1.7 -1.4,1.9 -1.9,1.9 -1.7,0.7 -1.2,-0.1 -0.9,-0.7 -0.9,-1 -1,-0.8 -10.5,-1.9 -2.4,-0.9 -0.4,-0.5 -0.3,-0.8 v -1.2 l 1,-3.4 v -0.9 l -0.3,-1 -0.7,-1.2 -3.4,-2.4 -1.5,-1.8 0.7,-1.5 1,-2.9 0.4,-2.9 -0.3,-2.7 -2.3,-6.3 -1.4,-6 -1,-1.7 -2.3,-0.6 -1.8,0.1 -3,1.2 -1.2,0.1 -1.2,-0.1 -1.1,-0.4 -3.9,-4.5 -0.7,-1.7 -0.5,-3 -1.1,-1.5 -1.4,-1.3 -1.2,-2.2 -1.6,-5.2 0.5,-3 -0.2,-1.6 -4.9,-3.5 -0.3,-0.4 -0.2,-1.4 -0.5,-0.3 -1.2,-0.4 -0.4,-0.3 -1.4,-2.7 -0.8,-0.8 -2.4,-0.5 -2,-1.3 -2.8,-0.9 -1.4,-1.7 -0.8,-2.4 -0.2,-3 0.1,-0.7 0.8,-1.6 v -0.8 l -0.4,-1.4 -0.2,-1.5 -0.4,-1.1 -0.6,-0.9 -2.4,-1.2 -2.3,-1.9 -1.8,-2.5 -0.1,-2.5 -0.6,-0.3 -1.5,-1.6 1.5,-2.1 -0.3,-1.9 -2.2,-3.7 -0.3,-1.1 -0.2,-2.8 -0.1,-1.2 -0.4,-0.1 -2.3,0.2 -0.9,-0.6 2.4,-2.2 0.8,-1.2 -0.8,-0.5 -1.8,-0.1 -1.4,-0.4 -1.4,-0.8 -1.4,-1.6 h 2.1 l 1,-0.2 1,-0.6 -1,-0.7 -1.2,-0.3 -2.4,-0.1 v -0.9 l 0.8,-0.8 1.1,-1.8 1.7,-0.6 0.3,-0.8 v -0.9 l -0.3,-0.8 0.1,-1.7 -0.5,-1.3 -0.9,-1 -0.8,-0.8 -0.7,-1.7 -0.6,-0.3 -0.6,0.2 -1.2,0.7 h -0.5 l -1.3,-1.6 1,-1.7 2,-2 1.4,-2.3 h -3.6 l 1.7,-1.1 0.7,-1.3 -0.2,-1.6 -2.3,-5.1 -0.4,-0.5 -0.8,0.1 -1,1.5 -0.6,0.3 -1.2,2.1 -1,9.6 -1.1,2.7 -0.5,-2.5 -1.7,0.5 h -1.2 l 0.9,-3.8 -1.7,0.1 -0.8,-0.4 -0.7,-0.6 0.9,-1.3 -0.1,-1.8 -0.5,-2.3 -0.3,-2.3 0.3,-2.3 0.7,-1.5 1,-1.1 1.2,-0.8 -1.3,-1.2 -1.4,-0.7 0.5,-0.2 1.1,-0.9 -1.6,-1.5 -0.5,-0.3 1.1,-2.2 -0.4,-6.1 3.3,-0.5 8.6,1.9 5.7,-1.1 11.8,-5 2.3,4.6 0.2,1.8 v 2.6 l -0.2,2.3 -0.1,4.1 0.1,1.1 0.4,1.1 1.7,2.5 2.4,2.5 1.1,1.5 0.7,1.3 0.1,1 -0.1,1.3 -0.3,1.4 -1.1,2.6 -0.3,1 0.1,1.9 0.6,2.3 2.4,6.7 1,1.5 0.8,0.5 2,0.1 1.1,-0.3 1.2,-0.7 0.9,-1.1 0.7,-1.2 0.5,-1.2 0.6,-0.8 3.3,-3.1 0.9,-0.1 2.8,0.6 2.3,0.1 1.1,0.4 1.1,1.1 3.4,4.6 1.7,0.9 h 1.1 l 2,-0.8 h 0.7 l 0.5,0.4 0.6,0.9 0.8,0.7 1.4,0.5 6.1,0.9 0.7,0.6 v 0.8 l -0.4,1.8 -1.4,3.1 -0.1,1.4 0.6,2 1.2,1.2 2.1,0.7 2.9,0.2 0.6,0.5 0.7,1.2 0.8,1.1 0.7,0.7 z"
     inkscape:connector-curvature="0"
     style="fill:#dedede;fill-opacity:0.92156863;stroke-width:0;stroke-miterlimit:4;stroke-dasharray:none" /><path
     name="Värmland"
     id="SWE188"
     d="m 262.7,1598.5 0.3,5.3 -6.4,4.1 -1.2,1.2 -0.2,1.1 0.4,0.9 0.9,0.9 2.4,1.7 1.3,1.6 0.7,2.8 0.7,13.4 -0.3,9.9 0.2,3.8 0.7,5.9 0.6,2.7 1,3.4 0.6,3 0.6,6.4 -0.1,2.2 -0.4,0.9 -0.9,-0.6 -0.6,-0.2 -0.8,0.4 -0.7,1.2 -0.5,2.4 v 1.9 l 0.5,1.5 0.9,1.2 1.4,1.4 0.2,0.4 0.3,2.3 -0.4,1.6 -0.8,1.4 -2.5,2.9 -0.5,1 -0.7,2.5 -2.7,6.2 -1.7,5.4 -1.5,6 -1.2,8.9 -0.3,4.9 0.1,6.7 0.2,2 1,4.5 0.4,3.1 -0.4,5.9 -1.1,5.9 -4.6,-3.3 -1,-0.6 -0.9,-0.2 -46.2,-1.5 -2,0.5 -2.5,1.7 -3,3.2 -1.8,2.6 -2.6,4.7 -1.6,3.6 -1.1,3.2 -1,3.9 -1.7,5.6 -0.5,2 0.4,2.3 1,2.4 3.5,6 0.1,1.4 -0.8,0.8 -2.3,1.1 -2.2,0.7 h -6.6 l -27.2,-10.7 -5.2,-25.3 -5.5,-9.3 -0.7,-1.4 -0.3,-2.1 -0.7,-6.8 -0.6,-2.2 -0.9,-1.5 -1.5,-1.2 -0.9,-1 -0.8,-1.2 -1.1,-0.8 -1.6,0.1 -2.6,2.5 -1.5,3.3 -1.2,1.5 -0.8,0.3 -1,-1 -1.1,-2.2 -0.6,-0.6 -0.7,-0.1 -1.1,0.3 -1.7,1 H 115 l -0.8,-0.2 -0.8,-0.9 -0.7,-0.7 -3.2,-1.9 -0.5,-0.8 -0.2,-0.9 0.4,-0.7 0.9,-0.5 2.7,-0.3 0.7,-0.5 0.1,-0.7 -0.7,-0.6 -1.3,-0.2 -6.5,2 -0.9,-0.1 -2.4,-1.5 -3.8,-1.5 -1.1,-0.9 -0.6,-1.2 -1.1,-3.2 -1.5,-1.1 -2.1,-0.4 -4.4,0.9 -1.5,1.2 -0.3,2.3 0.3,1.4 -0.1,0.8 -0.3,0.5 -0.9,0.8 -0.7,0.2 -0.9,-0.2 -6.6,-5.7 -1.4,-0.8 -1.1,-0.2 -1.1,0.8 -0.7,0.8 -1.2,0.3 h -0.9 l -5.4,-2 -1.1,-0.2 v -3.3 l -0.4,-3.4 -1.7,-9.9 -8,-29.5 -0.5,-3.2 0.3,-3.9 1.4,-2.3 10.2,-5.6 1.8,-2 2.9,-4.9 0.5,-1.2 v -2.7 l 0.4,-5.7 -0.1,-2.3 -0.9,-2.4 -2.6,-3.5 -0.9,-2.1 0.5,-5.1 3,-3.1 4,-1.4 12.1,1.2 3.1,-0.6 11.1,-9.1 11.8,-14 2.7,-4.5 2.1,-5.6 1.1,-6.6 -0.3,-5.5 -1.9,-9.8 -0.7,-5.2 0.4,-2.5 0.9,-2 4.1,-5.2 1.5,-2.5 1.2,-2.9 0.8,-3.7 0.6,-5.5 -0.3,-4.8 -1.1,-4.4 -8.4,-21.9 -8,-14.9 -2,-6.1 -1.2,-5.5 -1.6,-11.3 -1.4,-5.2 -2.9,-7.2 -0.2,-3.1 2,-2.1 17.5,-5.3 4.3,-0.3 8.6,1.6 1.6,-0.9 0.5,-1.7 0.3,0.5 2.2,6.2 0.9,2.1 25.9,28.6 3.2,4.7 1.9,3.7 2.2,7.5 0.7,1.3 0.8,1 1.2,0.6 1.1,0.7 1.2,1.2 10.4,18.7 2.6,5.8 1.2,3.7 0.1,0.3 3.1,5 1,1.3 1.7,1.5 8.5,4.2 2.1,1.9 13.4,22.2 8.1,8.8 1.7,0.9 1.5,-0.8 1.3,-0.8 0.4,-0.7 v -0.6 l -2.3,-2.7 -0.8,-1.4 -0.4,-1.3 0.1,-0.8 0.6,-0.2 h 0.8 l 3.9,1.8 6.4,0.6 1.2,0.7 1.1,1.5 1.5,3.4 2.1,5.5 0.4,1.7 2,3.2 1.5,4.6 z"
     inkscape:connector-curvature="0"
     style="fill:#dedede;fill-opacity:0.92156863;stroke-width:0;stroke-miterlimit:4;stroke-dasharray:none" /><path
     name="Jämtland"
     id="SWE189"
     d="m 435.9,956.4 -8.7,28.4 -0.8,10 -2,9.7 -4.9,3.7 -3,1.4 -17.1,2.5 -7.5,-1.7 -4.4,1.1 -7,3.7 -5.6,1.8 -1.9,4.1 4.2,8.2 1.7,5.1 1.3,7.9 0.2,3.8 0.8,5.1 2.2,2.2 2.9,1.2 3.7,3.7 3.3,7.1 59.5,64.4 -0.3,2.3 -18.3,6.2 -4.8,3.3 -16.4,22.5 -3.7,6.8 -2.9,2.3 -3,1.1 -32.4,2.3 -20.9,9.4 -33,8.3 -13.4,-1.3 -10,1.5 -2.1,1.4 -0.7,1.4 0.6,2 v 1.1 l -0.1,1.9 0.1,1.5 0.8,1.8 0.5,1.1 0.7,4.6 0.9,2.8 v 1.1 l -0.4,1 -1.4,1.1 -0.7,1.3 1,4.8 3.4,3.7 4.5,8.1 3.4,4.1 4.9,4.9 4.6,2.3 5,1.5 5.8,-2.2 6.7,0.9 1.6,6.8 2.1,3.9 1.7,2.5 1.1,2.9 0.8,3.7 -0.7,3.2 -2.2,3.8 -21.4,18 -0.6,0.8 1.2,6.4 0.3,2.8 -0.1,2.8 -0.4,2.7 -1.1,1.2 -0.4,1.2 0.1,1.4 0.3,2.3 0.1,3.1 -1,2.1 -2,-0.1 -2.1,-2.3 -3.9,-0.7 -3.5,0.6 -1.7,3.3 -2.7,0.4 -2.9,-2.5 -2,1 1,4.2 -0.4,2.1 -0.5,0.7 -1.1,-0.8 -0.9,-1 -5.4,-10.2 -0.5,-1.5 -1.4,0.2 -2.3,1.7 -6.3,9.1 -2.4,5.9 -1.8,8.3 -1.8,14.5 -3,6.4 -7.5,1.5 -6.5,-2.8 -52.1,-9.3 -4.6,-4.4 -1.8,-5.8 -2.1,-4.9 -3.6,-6.5 -2.8,-6.8 -6.2,-11.2 2.4,-11.9 1.7,-3.9 -7.3,-6.9 -7.4,0.6 -10.5,-6.1 -5.5,-8 -13.5,-12.3 -34.4,-10.9 -2,0.4 v -2.4 l -2.1,-8 -14.8,-41 -0.1,-3.2 1,-4.6 2.7,-8 1.2,-4.6 0.1,-3.8 -4.4,-25.3 -0.3,-3.4 0.8,-2.7 8.9,-13 -12.3,-33.9 -5,-14.1 16,-28 1.1,-3.3 v -3.7 l -3.7,-17.3 9.3,-10 14.3,-26 15,-25.2 5.6,-6 17.1,-11.7 19,-5.5 26.7,7 26.6,7 h 1.9 l 1.3,-1.7 12.5,-25.8 1,-3.2 0.1,-3.2 -3.5,-41.1 -1.4,-4.2 -2.7,-2 -6,-1.3 -3.1,-1.2 -22.5,-16.3 20,-36 20,-36.3 10.4,-16.6 1.7,-5.5 0.6,0.5 27.8,20 4.1,4.9 1.4,2.1 1.2,2.3 0.9,2 5.8,10.3 0.9,0.9 1.3,0.9 3.9,1.5 2.8,1.8 1.4,1.1 1.6,2.3 1,2.7 1.5,6.6 1.1,2.6 0.7,1 0.8,0.4 4.5,0.3 2.9,1.7 3.2,2.6 1.3,1.4 1,1.6 0.7,1.4 2.4,3.1 1.8,1.2 1.5,1.5 0.2,0.5 -0.6,0.7 -4.6,2.5 -0.7,1.3 1.1,1.4 1.7,1.6 1.3,1.5 1.4,2.3 12.6,11.5 2.1,2.4 1,1.7 0.7,1.8 0.5,3 0.8,3.2 0.5,0.7 0.7,0.1 1.9,-1 1,-4.8 0.5,-1.9 1,-2.8 3.1,-0.6 1.5,2.1 0.9,2 0.6,6.9 0.9,3.9 1.7,3.3 14.9,12.8 2.9,4.1 1.9,6.7 1.6,3.7 1.1,1.2 5.4,-1.9 h 2.9 l 2.2,1.1 3,2.1 z"
     inkscape:connector-curvature="0"
     style="fill:#dedede;fill-opacity:0.92156863;stroke-width:0;stroke-miterlimit:4;stroke-dasharray:none" /><path
     name="Norrbotten"
     id="SWE190"
     d="m 803.2,766.4 -0.1,2 -1.8,-0.4 -0.2,0.5 -0.8,0.4 -0.2,-0.2 0.3,-1.1 -0.2,-1.2 1.5,-1.3 z m 9.1,-5.1 -1,0.2 -0.3,-0.1 0.5,-0.9 0.1,-0.9 -0.8,-1.6 1.1,1.1 0.7,0.8 0.3,0.1 z m -2.7,-0.7 -0.3,0.3 -1.1,-0.3 -1.6,-1.9 0.3,-0.8 -0.1,-0.5 0.9,-0.7 1.4,1.9 0.6,1.2 z m 19.5,-10.1 v 1.1 l -1.6,-0.6 -0.8,-0.5 0.3,-0.6 h 1.2 z m -4.3,-1.3 0.6,1.7 -1.1,-1 -1.1,-1 0.2,-1.3 z m -3.3,0 -0.5,0.2 -1.2,-1.1 -0.6,-1 -1.9,-1.8 -2,-1.8 -0.3,-1.5 0.6,-0.9 0.8,-0.1 0.6,0.7 1.5,0.1 0.7,1.1 0.5,0.2 1.3,1.8 0.3,0.9 -0.1,0.7 0.3,1.1 z m 7.3,-14.3 -0.6,-0.3 -0.4,-0.7 0.6,-0.1 z m -6.5,2.8 0.2,1.5 -0.2,1.2 h -0.5 l -1.2,-2.2 -1.1,0.5 -0.8,0.2 -0.3,-0.5 h -0.8 l -1.6,-0.6 -1.3,-2.7 -0.7,-2.4 0.6,-0.4 1.5,0.2 1.1,0.5 0.6,0.9 1.3,1.5 2,1.2 0.6,0.4 z m 38.7,-9.8 -0.2,0.2 -1.3,-1.4 0.4,-0.5 1.2,0.4 0.1,0.8 z m -42.5,-1.6 0.4,1.1 -1.6,-0.2 -2.2,-0.9 -1,-1 v -1 l 0.7,-0.6 1.2,0.4 1.4,0.7 z m 6.4,-5.9 1.2,1.7 -0.8,0.7 -0.4,-0.5 -1.2,-0.3 0.2,-0.8 z m 43.3,-0.3 -1.3,0.6 -0.6,-0.2 0.6,-1.1 0.5,-0.7 h 0.7 l 0.8,0.5 0.1,0.5 z m 0.8,-4.3 -0.7,0.5 -1.1,-0.9 -0.3,-0.8 0.2,-0.8 0.7,-0.2 0.7,0.8 z m -54.9,-2 1.7,1 1.2,1.5 1.3,1.9 0.9,1.8 0.4,1.2 -1.1,0.4 -1.6,-0.7 -0.9,-0.6 -1.3,-1.1 -0.5,-0.5 -1.3,-1.8 -1.1,-2 h -0.3 l -0.2,1.3 -0.5,0.6 -1.6,-0.6 -1.7,-1.2 -0.4,-0.7 0.2,-0.8 0.8,0.1 1.7,1.2 0.2,-0.1 0.3,-1.4 0.9,-0.4 1.4,0.2 z m 6.5,2.1 -2.5,-0.7 -1,-1.7 0.3,-0.6 0.8,0.7 1.3,1.1 z m 44.9,3.2 -0.7,0.2 -1.3,-2 -1.3,-1.5 -1.2,-2 0.2,-1.1 0.5,0.4 0.5,1.1 0.6,1 1.6,1.1 0.8,0.3 0.6,0.9 z m -30.8,-2.2 -0.5,0.5 -1.7,-0.7 -1.5,-1.4 -0.3,-1.2 0.5,-1.3 1.1,-0.3 1,0.7 0.8,0.8 0.5,1.3 z m 37.6,-4.5 -0.7,0.2 -0.5,-0.2 -0.4,-0.5 -0.8,-1.5 v -0.8 l 1.2,0.1 1.1,0.4 0.6,1 -0.1,1 z m -35.1,-0.2 -0.5,0.3 -0.7,-0.6 -0.5,-1 0.2,-1.2 1,-0.2 1.3,1 v 0.7 z m 5.5,-5.7 -0.4,0.3 -0.5,-0.1 0.3,1.9 -0.7,-0.3 -0.7,-1 0.5,-2.1 0.3,-0.4 0.7,0.6 z m 21.7,-3.7 -0.6,1.6 -1.7,1.3 -0.9,0.6 -6.1,0.4 -0.7,-0.6 v -2 l 0.7,-1.9 0.9,-0.4 0.7,0.6 0.4,0.9 0.8,0.7 1.5,-1.1 1.4,-1.8 1.5,-0.1 1.3,0.8 z m 15.7,-0.2 -0.5,0.3 -1.7,-0.3 0.3,-0.9 1.2,-1.3 1,1.7 z m 0.8,-4.2 0.6,0.3 0.6,-0.2 v 1.8 l -0.9,-0.7 z m -30.5,9.1 -0.1,1.1 -0.9,-0.4 -1.4,-1 -3.6,-0.9 -0.4,-0.7 -0.4,-2.1 0.1,-1.6 0.2,-0.7 v -1.8 l 0.7,-1.1 h 1.4 l 2.7,1.6 0.4,1 -0.6,0.8 -0.1,1 0.8,1.5 0.8,1 0.3,0.9 z m 38.2,-9.8 v 1.1 l -0.5,0.5 -0.6,-0.3 h -0.8 l -0.4,-0.5 0.4,-0.6 0.2,-1.1 0.5,-0.7 0.6,-0.2 0.7,-1 0.2,0.7 z m -50.3,-3 0.9,2.2 -1.4,-0.8 -0.5,-0.6 -0.1,-0.4 z m -3.3,-2 0.1,0.6 -0.2,1 -1.2,-0.7 -0.1,1.3 -1.1,-1 -0.5,-0.4 -0.1,-0.9 0.9,0.1 1.5,-0.3 z m 40.7,5.6 -1.8,0.1 -1.8,-0.4 -0.7,-0.6 -0.4,-0.9 -0.3,-1.1 0.4,-1.8 0.9,-1.3 1.7,-0.4 1.2,1.6 0.6,1.3 0.7,1.5 0.2,1.3 z m 11,-3.6 -0.8,0.3 -1.8,-1.1 -0.8,-1.7 0.8,-0.5 1,0.5 1,1 0.6,0.9 z m -47.1,1 -0.5,-0.6 -0.1,-1.7 -0.2,-0.9 v -1.3 l 0.4,-0.3 1.1,0.4 1.3,0.9 0.2,1 -0.7,0.6 -0.2,0.7 -1,0.6 z m 47.9,-5.3 -1.6,0.1 -0.3,-1.7 1.3,-0.7 0.7,0.9 z m 62.7,-2.4 -0.4,0.7 -0.5,0.4 -0.5,-0.1 0.3,-0.6 z m -71,3.5 -0.7,0.3 -1.2,-0.3 -1.6,-0.9 -1.1,-2.4 0.4,-1.5 1.4,0.9 0.7,0.8 0.6,0.1 1.2,0.8 0.5,1.2 z m -17.7,-1.2 -0.3,1.6 -0.9,-0.4 -0.1,-1.5 -0.6,-1.2 -2,-2.3 0.5,-0.1 1.2,0.9 1.2,1.4 z m 3.4,-2.9 h -0.4 l -0.6,-0.5 0.3,-1.2 0.8,1 z m -9.2,2.1 1.2,-0.2 0.6,0.6 0.7,1.4 1.7,1.6 v 1.7 l -1.1,0.8 -0.9,-0.2 -0.8,-1.6 -1,-1.2 -1.1,-0.8 -1.1,-0.3 -0.7,0.6 0.3,1.5 -0.2,0.2 0.1,1.7 0.8,1.4 0.2,0.8 -0.4,0.1 -1.1,-0.6 -3.6,-4.6 -1.9,-3.4 -0.5,-2.2 0.9,-0.8 1,-0.6 1.1,0.3 z m 37.8,-3.8 0.7,0.8 -0.2,1 -0.7,0.5 0.4,1.6 -0.3,0.4 -0.6,-0.6 -0.4,-0.7 -0.4,-2.1 -0.4,-0.8 -1,0.1 -1,-0.4 -0.5,-1.2 0.5,-0.8 1.3,0.7 1.5,1 z m -8.7,-1 -0.8,0.9 -0.7,-0.1 -0.7,0.8 -0.9,0.4 -0.5,-0.7 0.4,-2 0.9,-1 1.7,0.1 z m 9,-0.3 -0.7,0.5 -1.1,-0.5 -1,-0.9 -0.1,-1.2 0.8,-0.9 0.9,-0.1 0.6,0.4 0.9,1.9 z m -12.5,-7 -0.3,1.7 -1.2,0.7 -0.6,0.8 -0.2,1.4 -0.4,1.2 -0.7,0.6 -0.8,-0.2 -0.8,-0.5 -0.5,0.5 -2.3,-1.5 -0.4,-0.8 -0.3,-1.5 0.5,-1 h 0.8 l 1.1,0.1 1.3,-0.3 3.6,-2 z m 84.5,2.3 0.8,1.6 v 1.2 l -0.4,0.4 -0.5,-0.1 -2.1,-1.9 h -0.5 l -0.3,-0.3 -0.1,-0.9 0.2,-0.6 0.6,-0.3 0.4,-0.5 0.4,-1.8 0.3,-0.8 0.6,-1.1 h 0.3 l -0.3,3 z m -104,-5.6 -0.1,2.3 -1.1,-1 0.1,-1.3 -0.2,-0.7 0.6,-0.1 z m 16.7,1.3 -1.2,1.2 -1.4,-0.2 -0.9,-1.2 -0.3,-0.8 1,-1.3 2.1,-0.1 z m 120.4,-1.1 -0.5,-0.1 0.1,-1.1 0.5,-0.2 z m -12.5,0.3 -0.2,0.6 -0.7,-0.4 0.4,-0.8 0.3,-1.3 0.5,-0.4 v 1.1 z m -119,0.3 h -0.3 l -1.4,-1.8 -0.9,-0.6 -0.7,-0.7 0.4,-0.7 0.7,0.2 0.8,1.1 0.9,1 0.6,0.9 z m 14.4,-6 -1,0.6 -1.2,-0.5 -0.4,-0.6 v -1 l 0.3,-0.4 1,-0.2 1.1,0.5 z m 25.8,-0.7 -0.3,0.8 -1.3,-1.2 -0.5,-1 -0.1,-0.8 0.2,-0.6 h 0.4 l 0.4,0.9 0.6,0.7 z m 61.6,0.1 0.3,0.2 v 0.7 l -1.8,-0.5 -1.7,-1.2 1.4,-2.2 1.3,2 z m -104.7,-3.2 -0.9,0.2 -0.7,-0.4 0.1,-1.1 0.8,0.2 z m 106.9,0.9 -0.1,0.3 -0.8,-1 -0.2,-2.4 h 0.6 l 0.3,1.4 z m -79.1,-3.2 0.8,2.8 -0.8,0.4 -1.2,-0.5 -0.5,-1.9 0.4,-0.7 0.4,0.2 z m 101.6,0.4 -0.4,0.6 -0.7,-0.7 -0.1,-0.8 -0.5,-0.9 0.9,0.4 z m -84.3,-1.8 0.5,2.2 -1.3,-0.1 -0.6,-0.7 -0.5,-1 0.2,-0.3 z m -42.2,-0.3 1,0.1 0.1,1.9 -1.1,-0.7 -0.4,-0.7 z m 47.6,1 0.3,0.8 -0.1,0.8 -0.8,0.5 -1.1,-0.5 -1.4,-1.3 -0.2,-0.8 1.2,0.6 0.3,-1.2 h 0.3 z m -27.6,0.1 -0.4,0.9 -1.1,-0.5 -1,-0.8 0.2,-0.8 0.6,-0.6 1.1,0.3 z m 12.1,-1.9 0.8,0.7 0.3,-0.1 0.2,0.6 0.1,0.9 -1.1,-0.3 -0.9,-1.2 z m -18.7,4.5 -1.4,0.4 -1.1,-0.2 -0.3,-0.3 0.3,-0.8 0.8,-0.9 0.2,-0.9 -0.2,-0.9 0.5,-0.5 v -0.9 l 0.2,-0.5 0.7,0.6 0.7,1.3 0.1,1.4 -0.1,1.4 z m 100.3,-7.2 1,0.4 1.2,-0.1 0.6,0.2 0.1,0.7 -0.2,1 -0.7,0.5 -1,-0.1 -0.8,-0.4 -0.4,-0.6 -0.2,-0.6 -0.4,-0.8 0.3,-0.5 z m 11.1,-1.5 -0.2,1 0.6,-0.2 0.1,0.5 -0.4,0.2 -1.1,-1.4 -0.7,-0.2 0.8,-1 z m 3.6,-1.8 0.6,1.5 0.9,1.8 h -0.7 v -0.8 l -0.6,-0.4 -0.2,-0.9 -2,0.1 -0.4,-0.4 1.2,-0.8 z m -130.7,2.7 -0.8,0.1 -1.4,-0.8 -0.3,-0.6 0.3,-1.1 0.8,-0.7 0.9,-0.1 0.6,0.1 -0.3,1.7 z m 9.6,-3.5 0.2,0.7 -0.7,-0.2 -0.6,-1.6 0.5,-0.1 z m 48.1,-0.6 -0.2,0.6 -0.6,-0.3 0.2,-0.7 0.4,-0.6 z m -0.9,-0.8 -0.4,0.6 -0.7,-1.8 0.8,-0.1 z m 28.8,0.5 0.5,1.6 -0.9,-0.5 -0.8,-1.4 -0.2,-0.5 -0.7,-0.8 0.4,-1.5 1,2 z m -43.5,4.5 -0.2,1.2 -0.8,-0.4 h -0.6 l -0.2,1 0.1,1.5 0.7,2.7 -1.1,-0.7 -2.3,-2.5 -2.1,-3.1 -1.3,-3.5 0.4,-3.1 1.3,-1 2,0.2 1.9,1.6 0.3,1.4 -1.1,0.2 0.1,0.5 1.2,1 1.1,1.2 z m 40.1,-2.6 -0.2,0.8 -0.4,-0.3 -0.7,-1.2 -0.8,-0.4 -0.1,-0.7 0.1,-3 0.4,-0.8 0.4,0.3 0.4,1.5 0.5,0.8 0.5,1.6 z m -18.5,-5.6 1.2,3.1 0.8,0.8 0.6,0.8 -0.4,0.6 -0.7,-0.2 -0.6,-0.7 -0.7,-1.6 -0.4,-1.2 -0.8,-0.4 -0.5,0.8 0.2,1 0.7,2.1 -0.1,1.2 -0.2,0.4 -0.6,-0.2 -0.8,-1.3 -0.3,-0.7 -1.8,-2.4 -0.1,-0.9 0.5,-0.2 0.7,0.8 h 0.7 l -0.5,-0.6 0.2,-1.1 1.1,-0.8 1,0.2 z m 60.1,0.7 -0.9,0.5 -0.3,-1.1 1.1,-1.4 0.3,1.4 z m -19.9,-0.5 -0.3,1.6 -0.5,1.2 -0.5,0.7 -0.2,0.6 0.1,0.6 -0.8,1.2 -2.7,2.7 -2.9,-2 -1.4,-2.6 v -3.9 l 0.6,-1 0.6,1.6 0.6,0.7 0.4,-0.8 0.2,-2.1 0.5,0.2 0.8,1 0.9,0.5 0.9,0.2 0.8,-0.5 0.8,-1 1.1,0.4 0.2,-1.2 h 0.4 l 0.2,0.7 z m -28.3,0 -1.5,-1 0.3,-0.5 0.3,-1.2 0.4,-0.4 0.6,1.5 z m -14.2,-2.2 0.1,0.8 -0.5,0.1 -0.5,0.6 -0.8,0.1 -0.5,0.7 -1.1,-0.1 -0.4,-0.4 -0.4,-1.1 0.1,-0.3 0.7,-0.5 0.4,0.2 0.6,-0.6 1.1,-0.5 0.6,0.8 z m 49.4,0.4 -0.7,-0.6 0.3,-1.2 0.5,1 z m -46.9,0.5 -0.1,0.3 -0.9,-0.4 -1.2,-0.9 -0.3,-0.7 0.8,-0.4 1.3,-0.3 0.4,0.2 z m -34.9,6.7 -0.5,1.6 -3.3,-0.6 -1.5,-0.9 -0.7,-0.9 -0.5,-1 0.1,-1.1 0.3,-1.6 0.1,-2.4 0.3,-2.7 0.8,-0.7 3.3,3.7 0.9,2.8 z m -13.4,-13.1 0.3,0.9 0.1,0.8 -0.6,0.5 -1.4,0.4 -0.6,-0.2 v -0.7 l 0.4,-1.3 0.4,-0.3 0.6,0.3 z m 100.9,0.6 -0.1,0.7 -1.2,-0.6 0.6,-1.2 0.9,0.4 z m -36.9,-0.9 -0.5,0.5 -0.2,-0.7 -0.5,-1.6 h 0.6 l 0.7,0.6 z m -18.1,-0.1 -0.7,0.6 -0.9,-0.4 -0.5,-1 -0.1,-0.9 0.8,-0.2 1,0.6 z m 69.4,0.1 -0.3,0.1 -0.7,-2.5 0.9,0.1 0.2,0.9 z m -131.8,-0.8 0.7,0.9 -1.1,-0.3 -0.7,0.6 -0.6,-0.4 -0.3,-0.5 -0.1,-1 0.5,-0.9 z m 128.6,0.3 -0.5,0.7 -0.9,-0.6 0.5,-1 0.4,-0.6 0.5,-0.1 0.5,-0.7 0.5,0.1 -0.2,1.5 z m -102.5,-0.6 -0.1,0.2 -1.4,-1 -1.4,-2.3 1.6,0.4 z m -20.8,-0.7 -0.1,0.6 -0.5,-0.3 -0.9,-0.9 -0.3,-1 0.1,-1.4 0.5,-0.3 0.5,2.4 0.7,0.4 z m 21.8,-1.8 0.3,2 -0.7,-0.7 -0.9,-2.9 z m -90.1,134.3 -2.5,-1.6 -21.3,-15.8 -87,-26.5 -31,11.1 -5.7,7.5 -9.3,6.4 -4.3,1.9 -1.9,0.5 -1.5,-0.5 -1.2,-1.1 -0.2,-0.5 -0.1,-1.7 -1.3,-1.3 -2.3,-1.6 -0.3,-0.6 -2.4,-1.1 h -2.2 l -1.5,-1.4 -0.6,-5.5 -0.9,-3.2 -2.1,-2.7 -4.3,-3.4 -8,-2.3 -4.1,-6 -12.5,-6 -4.2,-4.9 -0.5,-0.7 -2.1,-4.6 -0.8,-1.2 -1.4,-0.7 -10.6,-0.4 -2.6,-1.5 -4.7,-5.5 -8,-2.3 -4.2,-2.6 -4,-4.1 -3.5,-5.4 -1.6,-3.6 -1.4,-0.4 -29,-13.5 -23.3,-18.1 -44.6,-46.3 -29,-13 -47.9,-37.5 -27.4,-13.8 -1.8,-1 -3.5,-20.5 -0.3,-5.2 18.4,-20.5 27.9,-55.2 6.5,-9 14,-14.6 4.5,-2.8 2.2,-2.2 1.2,-3.3 2.2,-25.2 -0.5,-3.4 -23.5,-43.6 4.1,-14.5 1.4,-2.4 12.7,-2.6 4.6,-2.5 4.1,-4.7 7.9,-13.5 1.6,-4.2 11.6,-45.9 1.6,-4 1.9,-2.7 31.1,-26.1 6,-11.7 1.6,-1.5 21.7,13.8 21.7,13.6 1.9,-0.6 2.3,-3.7 2.3,-5 14,-28.9 1.6,-8.1 -4,-40.3 0.1,-6.3 1.5,-19 0.4,-2.3 0.8,-1.2 19.9,-7.9 3.5,2.5 12.3,12.5 4.2,1.2 25.5,-2.1 33.5,16.8 33.9,15.2 3.1,-0.3 2.9,-2.5 17.8,-23.4 -21.4,-13.1 14.3,-13.6 6.4,-10.8 7.7,-22.2 1.1,-4.2 0.3,-3.9 -0.6,-18.6 -0.6,-3.5 -18,-23.6 39.3,-3 4,3.8 9,1.5 5.2,5.3 3.6,1.1 1.7,2.9 v 3.8 l -1.2,3.4 -2.3,1.2 -0.2,4.3 1.6,2.5 12.5,5.3 6.1,5.8 4.8,5.1 4.5,8.6 1,1.3 0.4,0.4 0.5,1.8 0.4,0.8 0.7,0.3 5.3,0.1 1.6,1 0.6,2.1 0.5,2.4 2.3,6.4 0.9,2 2.4,2.4 5.8,1.7 6.8,7 4.1,2.9 1.6,6.5 13.7,4.1 3.4,4.4 0.4,1.3 2.2,3.1 1,1.9 0.9,1.2 0.9,0.8 0.1,1.4 v 1.4 l 0.1,1 2.6,2.3 17.4,0.2 5.1,1.6 0.3,0.5 v 2 l 0.3,0.4 5.9,0.5 4.9,2.8 3.3,0.4 3.2,2.3 h 1.4 l 1.3,-0.5 h 1.4 l 2.1,2.2 2.2,3.7 2.3,2.7 4.5,-1.9 1.9,2.1 3.1,6.9 2.2,2.9 11.2,7.9 1.1,1.6 0.5,1.7 0.2,1.7 0.4,1.7 1,2 3.4,4.4 1.2,3.4 -0.5,4.7 0.7,1.5 0.1,1.6 -0.4,5.1 -0.3,1.8 -0.1,1.1 0.2,1.9 0.5,0.5 0.6,1.1 h 1.6 l 6.4,-4.6 2.6,-0.1 1,1.4 0.8,2.2 3.1,12 0.3,1.7 0.6,1.8 5.6,5.4 2.1,1.7 6.7,8.6 5.2,2 1.5,2.6 -0.1,3.5 -1.9,3.9 -2.5,2.1 -5.3,2 -2.6,2.2 -1.3,3.5 -0.3,4.7 0.2,4.9 0.4,4.1 -0.1,11.8 0.3,2.5 0.9,3.1 0.8,7.9 0.6,3.3 1.8,5.2 0.6,3.1 0.3,4.8 -1.4,1.9 -2.7,2.2 -2,2.2 0.9,2.4 -1.5,4 -1.7,3.5 -0.9,3.8 1,4.9 2.5,3.3 2.8,-0.2 3,-1.4 3,-0.3 5.2,3.4 5.1,1 1.7,0.8 0.9,1.4 -0.1,4.4 -0.9,5.6 v 4.5 l 2.6,1.7 -1.7,6.1 -2.1,3.3 -8.6,4 -1.4,1.8 -0.7,3 -0.2,3.8 0.4,1.4 1.4,0.8 -0.6,2.5 -0.7,2.1 -0.9,1.8 -0.9,1.6 0.6,3.8 1.3,2.5 1.6,2.2 2.1,4 0.7,0.9 0.7,1.2 0.3,2.1 v 2.5 l 0.1,1.6 0.4,1.4 0.5,1.8 2.8,6.3 1.7,3 1.4,1.3 2.3,1.1 1.8,2.6 4.3,9.8 3,4.1 1.5,2.8 2.1,5.2 3.1,9.5 0.2,1.4 -0.4,1.7 -1.1,0.6 -1.8,-0.1 -1.6,0.5 -1.1,3.4 -2.5,4.3 v 1.4 l 0.8,7 0.1,3.9 -0.4,3.8 -0.5,3.5 -0.7,3.1 0.5,3.4 0.3,3.4 -0.1,3.3 -0.7,2.9 -1.6,1.7 -4.1,2.9 -0.1,2.1 -1.5,1.8 -2.3,1.3 -1.8,1.6 v 3.1 l -1.9,0.7 -2.2,1.7 -1.9,2.9 -0.7,4.3 0.3,2.3 1.4,3.5 0.4,1.9 0.1,2.6 0.4,3.4 -0.1,2.6 -0.2,1.9 -0.7,2.5 -0.1,1.9 0.2,2 1.2,4.3 0.6,4.8 2.6,9.5 2,3.2 2.7,2.4 7.8,2.9 1.7,2.3 4.1,12.5 0.7,1.7 0.7,1.2 1.9,2 0.8,1.2 0.7,2.6 1.9,9.3 0.2,2.8 -0.2,4.1 1.6,3.7 2,3.6 1.7,7.3 2.9,5.2 v 3.3 l -1.7,3.4 -2.7,0.5 -5.5,-1.5 0.9,2.1 0.7,0.4 -1.9,1.1 -3.6,-0.8 -1.8,1 -0.4,1.1 -0.6,3.1 -0.5,0.9 -0.8,0.2 -1.2,-1.2 -1.2,-0.6 -0.7,-0.6 -0.6,-1 -0.2,-1.3 -0.2,-1.6 h -0.5 l -0.8,1 h -3.7 l -1.8,-0.7 -0.8,-2.4 -0.7,-3 -1.7,-1.3 -3.7,-0.2 -1.2,0.9 -1.9,4.1 -1.1,1.3 h -0.9 l -0.5,-0.9 -0.7,-1.6 h -6 l -3.3,-1.1 0.5,-2.6 -0.5,-0.8 -1.1,0.2 -0.9,0.5 v 0.4 l -0.6,2.3 -0.5,0.6 -1.1,0.7 -0.5,1.2 0.9,0.8 0.3,1 v 1.4 l -0.1,1.8 -0.2,1.5 -0.4,0.3 -0.7,-0.4 -1.3,-0.2 -1.3,-1.2 -0.8,-2.8 -0.3,-3.3 0.3,-2.7 -1.6,0.3 -1.1,1.5 -0.9,1.9 -1.1,1.2 -1.7,0.1 -1.6,-1.4 -2.9,-3.6 -1.2,-0.8 h -1.4 l -0.9,1.4 -0.1,3.2 0.7,2.3 1.1,1.5 2.4,2.4 -1.2,0.9 -4.8,2.5 -0.8,0.8 -1.5,2.2 0.1,3.4 -2,1.9 -1.8,-0.4 0.6,-3.8 -2.2,-5 -0.9,-1.2 -4.2,-0.5 -3.5,-2 -0.6,-0.7 -1.6,-3.2 -1,-0.4 -1.8,0.7 -1.3,-0.3 -1.8,-2.1 -2.3,-7.6 -1.6,-2.9 -8.5,-7.6 -1.5,-0.5 -1.4,0.6 1,1.9 1.9,2.4 0.7,2 0.3,1.6 0.3,4.7 0.3,2.4 0.3,1.8 0.2,1.9 -0.3,2.7 -0.6,2.5 -0.8,2 -1.1,1.3 -1.1,0.5 0.3,-4.3 -1.9,-2.2 -4.3,-1.1 -1.1,0.8 -2.5,2.8 -0.9,0.3 -0.4,-1.6 0.5,-2 0.8,-1.8 0.7,-1 -1,-2.4 -1.1,-1.5 -2.6,-2.3 0.6,-2.5 -5.5,-1.3 -2.6,0.4 -0.2,3.4 -3.2,1.2 3.2,5 -0.3,2.2 -1,0.2 -2.4,-1 0.9,1.7 1.1,4 1.2,1.8 -2.7,4.8 -3,-1.5 -3.1,-3.1 -2.7,-0.2 1.6,3 1.5,1.7 1.8,1 5,1.2 1.6,1.4 1.2,3 0.8,5 -0.9,-0.1 -1,0.1 -0.9,0.5 -0.8,0.9 -0.8,-4.4 -1.6,-2.2 -2,-0.1 -1.8,1.6 0.6,0.9 0.2,1.2 -0.2,1.5 -0.6,1.5 0.6,1 0.5,1.6 0.9,3.6 -1.7,1 -5.5,0.3 5.6,2.3 h 2.8 l 1.4,-3.6 -0.4,-1.9 -1.8,-2.6 -0.4,-1.7 0.7,-1.6 1.1,0.8 1.2,1.8 0.7,1.5 -0.6,1.1 4.1,2.1 0.4,1.1 -3.4,2.8 -0.5,1.6 0.8,1.5 1.7,1.2 2.9,1.1 0.5,0.8 0.5,1.8 0.8,3.6 -1.8,1.3 -1.4,-1.5 -1.2,-2.3 -1.5,-1.2 -2.3,-0.5 -1.6,-0.9 -1.8,-2 -0.9,-0.3 -0.9,1.2 0.4,2.6 -2.1,-0.6 -7.7,-5.8 -5.7,-2.5 -2.3,-3.2 -1.1,-1.2 -3.2,-0.9 -2.6,-3.1 -4.7,-1.7 -1.1,-1 -0.7,-1 -1.6,-3.5 -1,-1.4 -2.3,-1.7 -1.1,-1.5 1.8,7.5 4.5,4.8 9.3,5.4 6.2,6.2 5,2.5 1,1 1.2,1.6 1.7,3 1,0.8 1.4,-0.1 -1.9,1.7 -4.3,0.1 -2.1,0.7 -0.6,0.7 -0.3,1.2 -0.4,1.3 -0.7,0.7 -0.7,-0.9 -0.7,-1.1 h -0.7 l -2,1.4 -10.4,-3.5 -1.5,0.2 3.5,6.2 2.1,2.2 1.7,-1 -1.6,-2 -0.6,-0.4 1.9,-0.2 4.4,5.9 2,1.8 -0.6,2.5 -0.4,2.2 -0.5,1.6 -1.1,1.1 -1.2,-0.1 -1.1,-1.3 -1.8,-3.5 -0.8,2.1 0.3,1.9 0.5,1.7 v 1.8 l -1.1,1.4 -1.6,0.2 -1.4,-0.8 -0.6,-2 -2.2,2 -2.3,1.2 -2.3,0.1 -6.4,-2.6 -1.3,0.4 1.1,2.6 -3.6,0.2 -1.8,-0.6 -1.6,-3.3 h -1.8 l -3.2,1.2 v 1.1 l 3.1,1.5 1.1,-0.1 v 1.1 l -5.5,-0.9 -2.9,0.7 -1.4,2.8 0.4,0.2 1.1,1 -3.1,2.5 1.6,0.5 1.6,1.1 1.5,1.8 1.2,2.2 1.2,1.4 1.7,0.5 1.4,-0.9 0.1,-2.9 1.5,0.6 1.3,1.3 2.4,3.2 2.5,2.1 1.1,2 -0.2,2.6 -2.4,3.4 -3.4,2.2 -3.4,0.4 -2.5,-1.6 -0.7,-1.9 -1.4,-4.6 -1,-2.3 -1,-1.7 -1.2,-1.6 -1.3,-1.1 -1.6,-0.4 -2,-1.9 -2.3,-4 -2.5,-3.2 -2.5,0.3 0.4,0.3 1.1,1 -1,2.3 -3.1,0.2 -1,2.4 9.5,2.7 2.4,2.4 4.5,8.6 4.2,5.4 5.4,11.2 0.7,3.8 -1.4,1.6 -4.2,0.3 1,1.1 0.4,1.5 -0.1,1.9 -1.3,5.2 0.4,1 1.2,0.4 1.5,1.1 z"
     inkscape:connector-curvature="0"
     style="fill:#dedede;fill-opacity:0.92156863;stroke-width:0;stroke-miterlimit:4;stroke-dasharray:none" /><path
     name="Västernorrland"
     id="SWE191"
     d="m 508.8,1261.9 -1,0.4 -0.7,-1.6 -0.3,-2.3 0.4,-1.8 1.3,-1.3 1.7,0.5 1.2,0.7 0.3,0.4 -0.4,1.3 -1.4,2.2 -0.3,0.8 z m 29.4,-75.8 -0.7,2 -5.9,-2.8 -0.3,-0.6 0.5,-0.7 0.5,-0.5 3.9,-0.5 0.4,0.4 -0.1,0.5 0.9,0.2 1,0.9 z m -0.5,-15.7 0.8,0.5 1.9,-1.1 1.6,0.3 0.8,0.5 0.1,1.3 -0.3,2.3 -0.7,1.6 -0.1,1 -0.3,0.5 -0.9,-0.2 -0.8,0.2 -0.3,0.8 0.6,0.4 0.4,0.9 -0.4,0.9 -3.4,1.4 -4,-0.8 -1.5,-3.5 0.7,-2.7 0.7,-2 0.2,-1.8 1,-1.5 1.8,-0.6 1.3,0.6 z m 8.7,-1.2 -0.6,0.4 -0.3,-1.4 0.3,-0.8 1.2,-2.2 0.7,-0.7 1,0.1 0.1,1.2 -1,0.9 z m -15.2,-0.7 -0.8,1 -0.4,-0.3 -1.8,-2.9 -0.4,-1.5 0.1,-0.8 3.3,0.7 1,0.9 0.5,1.3 -0.4,1.1 -0.6,0.5 z m -9.1,-21.8 h -0.6 l -0.2,-0.8 v -0.8 l 0.4,-0.4 0.6,-0.3 h 0.8 v 0.8 z m 57.7,-15.4 -1.8,1.6 -0.5,-0.8 0.4,-3.6 0.2,-0.7 1.8,-2 0.6,0.2 0.1,1.2 -0.1,1.6 -0.2,1.5 z m -10.4,-5.4 -0.6,0.2 -0.5,-0.7 -0.2,-1 0.5,-0.4 v -0.7 l -0.3,-0.8 0.2,-1.5 0.6,-1.3 2.4,-1.6 0.3,0.9 0.6,0.4 0.9,0.1 0.3,0.7 -0.7,0.3 -0.6,1.3 -0.2,1.3 -0.3,0.6 -1.8,1.2 z m 8.1,-6.3 -0.7,-1.1 -0.2,-2.1 0.9,-1 0.7,0.6 v 1 l -0.5,2.1 z m 8.7,-2.4 -0.4,0.8 -0.2,-1.3 v -1.3 l 0.1,-1.1 0.4,0.3 -0.1,1.2 z m 6,-11.3 -1.7,0.8 -0.6,-0.2 -0.7,-1.4 0.4,-0.6 2.6,0.5 z m -9.8,0.6 -0.6,0.4 -1,-0.6 -0.5,-0.7 0.1,-1.4 0.6,-1 0.5,0.2 0.4,0.7 0.3,0.9 z m 12,-2.3 h -0.6 l -0.4,-0.8 1.4,-1.4 1.2,0.2 z m 4.1,-6.4 h -0.3 l -1.1,-0.6 0.4,-0.9 1.4,-0.2 0.2,1 z m 21.6,-13.9 -0.2,0.3 -1.1,-0.9 -0.5,-1 0.9,-0.3 0.8,1.1 z m 10,-32 -0.4,-0.4 -1.3,-1.1 -1,1.2 -0.3,2.9 v 5.9 l -0.1,1.6 -0.3,2.7 -0.1,1.5 v 5.2 l -0.8,2.2 -1,1.2 -0.9,-0.6 -0.4,-2.8 -1.6,2.7 -3.8,1.2 -1.8,1.8 0.4,0.5 1.1,1.9 -0.9,1.1 -1.4,3.9 -0.8,1.9 h 1.6 l -1.3,2.8 -1.4,-0.2 -3,-3.8 -1.4,3.6 1.3,2.1 2.3,0.9 1.9,0.2 -0.6,2 -0.9,0.2 -0.9,-0.2 -0.9,0.9 -0.5,1.7 -0.2,1.4 -0.5,0.8 -1.2,0.2 -0.3,-0.7 -2.1,-2.9 -0.4,-0.5 -0.7,-1 -1.5,-1.7 -0.7,-1.2 0.4,-2.2 -0.9,-1.2 -1.3,-0.8 -1,-1 -1.3,-1.8 -1.6,-0.9 -1,0.6 0.5,2.7 -1,0.5 -4.2,-1.7 -3.1,-0.3 -1.4,0.4 -1.2,1.1 1.6,1.7 11.9,5.2 -1.5,2.4 -2.3,0.9 -5,0.1 0.5,2.3 -1.2,1.7 -1.1,-0.2 -1,-1.4 -0.3,-2.4 -0.2,-2.7 1.6,-0.7 h 3.7 v -1.3 l -7.1,-2.1 -2.2,1.1 1,1.1 0.5,1.4 0.2,1.5 0.4,1.7 1.7,4.3 0.4,1.4 -10.9,-3.6 -3.6,0.2 v 1.1 l 1.6,0.1 1.8,0.9 1.5,1.4 1.1,1.7 0.6,1.8 0.4,2.1 -0.2,1.6 -1.1,0.7 -1.6,-0.7 -1.5,-1.2 -1.5,-0.6 -1.6,1.4 -0.6,1.5 -0.3,1.9 -0.5,1.9 -1.2,1.5 h 2.6 l -3.4,3 -1,0.4 -0.5,0.9 -0.5,4 -0.6,0.9 -0.8,-0.5 -2.5,-4 -1.1,-1 -1.2,-0.4 -1.2,0.3 -1.2,1.1 2.5,2 1.3,1.4 0.9,2.1 -5,-1 -0.9,-2.1 -0.3,-0.7 -0.7,-0.4 -0.2,0.6 -0.1,1.7 -1.1,1.9 -1.9,1.3 -4.3,1.1 1.8,1.6 19.5,-0.3 2,1 1.5,2.2 0.5,2.4 -0.7,0.8 -1.1,-0.8 -0.7,-2.4 h -0.6 l -0.6,3.2 -1.8,0.7 -2.1,-0.6 -4.4,-2.7 -1.1,0.7 -0.8,3.3 3.5,2.8 1.1,0.6 2.8,-1.1 1.5,-0.2 0.9,1.3 -0.8,3.4 -3,0.4 -5.5,-1.5 1.1,2.3 3.7,1.6 0.8,1.7 -0.2,1.5 -0.7,1.1 -0.8,0.7 -1.9,0.5 -0.6,0.7 -0.6,0.7 -0.8,0.7 -1.7,0.8 -0.8,0.1 -1.5,-0.6 -1.2,-0.1 -0.5,-0.2 -0.3,-0.5 -0.3,-1.9 -2.4,-3.4 -1.2,-1.2 h -1.5 l 0.5,2.4 h -3.7 v 1 l 0.9,0.6 0.1,1.2 -0.3,1.4 -0.7,1.4 1.7,1 2.5,-3.1 1.6,1.1 -1.9,5.1 -1.1,1.9 -1.5,0.8 -0.7,0.7 -0.7,1.3 -0.8,0.8 -0.9,-1 v -1.1 l 0.4,-1.3 1,-1.7 -1.1,-0.6 -0.7,1.3 -0.6,2.1 -0.8,1.8 -1.4,1.4 -1.5,0.2 -3.3,-0.5 0.6,-2.2 -1.2,-1.1 -1.5,-0.4 -3,0.3 1.9,-2.8 6.6,0.9 1.8,-2.7 -3.1,-1.5 -1.5,-1 -1,-1.9 0.4,-1.2 -1.7,0.5 -2.6,1.9 -2.4,2.6 -1,2.4 -0.5,0.6 -1.3,-0.6 -1.2,-1 -0.7,-0.8 -0.1,-1.5 0.1,-5.8 -0.8,-2 -0.2,-0.9 0.2,-0.8 0.8,-2 -0.3,-2.5 h -0.9 l -1.2,0.8 h -1.2 l -0.5,-1.3 -1.3,-6.1 -0.7,-1.4 -0.7,-1.1 -0.9,-0.8 -1.1,-0.7 0.6,-0.7 1,-2.7 -1.7,0.3 -2.3,2.5 -1.2,0.6 -1.4,-0.7 -1.2,-1.4 -1.2,-1 -1.3,0.8 9.3,8.5 2.3,3.5 1.4,3.2 1.8,5.2 0.9,5.2 -1.2,2.8 v 1.2 l 3.2,2.4 0.9,1 1.2,1.9 -0.1,3.2 0.6,1.9 2.4,4 0.6,3.1 -0.2,1.8 -0.7,2.8 0.1,1 0.4,1.6 -0.3,0.9 -0.7,0.3 -0.7,0.1 -0.5,-0.3 -1.8,-1.6 -0.8,-0.3 H 521 l 1.5,2.1 11.5,5.2 v 1.8 l 0.3,1.4 0.5,1 0.7,0.8 -1.6,0.6 -5.6,5.2 -0.5,-0.5 -0.1,-2.1 -0.6,-4.8 0.1,-1 -0.3,-0.5 -1,-0.2 -0.4,0.6 -0.4,1.2 -0.8,5.2 -0.2,2.6 -0.2,1.3 -0.7,0.6 -1.7,0.8 1.1,2.2 -2.4,4.4 -1.4,1.8 -1.4,0.6 -0.9,-0.6 -1.3,-2.2 -0.7,-0.5 h -3.8 l -3.2,1.4 -1.6,1.3 -1,1.8 0.1,2.8 1.2,1 1.5,0.8 0.9,2.1 -9.9,-0.5 -1.1,-0.5 -0.9,-0.8 -1.4,-2.3 -0.4,-0.4 -3.4,-6.7 -3.2,-5 -0.9,-0.7 -1.6,0.9 -0.8,3.9 -1.2,0.9 -1.5,0.3 -1.3,1 -0.8,1.7 -0.1,2.5 3.4,5.7 0.2,0.6 0.1,1.3 v 1.5 1 l -0.6,0.7 -0.9,0.4 -0.9,0.1 -0.7,-0.1 0.8,0.9 0.9,1.4 0.4,1.8 -0.4,2 v 1.7 l 0.6,2.1 0.9,1.7 0.9,0.7 2.4,-0.6 1,0.3 1.3,1.4 0.6,1.4 0.5,1.8 0.6,1.5 0.8,1 v 1 l -0.7,-0.1 -0.4,0.3 -1,1 6.6,3.9 1.5,-0.8 2.4,0.7 2.5,1.4 1.6,1.4 -6.3,4.4 -1.9,0.6 -0.2,-0.8 2.1,-4.2 -1.3,-0.8 -1.3,0.3 -1.2,1.2 -0.8,1.5 -0.4,2.4 0.1,2.6 0.2,2.4 0.1,1.5 -0.5,2.1 -0.3,0.5 -18.4,-3.6 -3.4,-1.3 -15,-0.4 -39.5,-11.4 -21,-1.6 -44,-15.4 -3.5,-0.5 -3.8,1.5 -13,10.9 -6.7,-0.9 -5.8,2.2 -5,-1.5 -4.6,-2.3 -4.9,-4.9 -3.4,-4.1 -4.5,-8.1 -3.4,-3.7 -1,-4.8 0.7,-1.3 1.4,-1.1 0.4,-1 v -1.1 l -0.9,-2.8 -0.7,-4.6 -0.5,-1.1 -0.8,-1.8 -0.1,-1.5 0.1,-1.9 v -1.1 l -0.6,-2 0.7,-1.4 2.1,-1.4 10,-1.5 13.4,1.3 33,-8.3 20.9,-9.4 32.4,-2.3 3,-1.1 2.9,-2.3 3.7,-6.8 16.4,-22.5 4.8,-3.3 18.3,-6.2 0.3,-2.3 -59.5,-64.4 -3.3,-7.1 -3.7,-3.7 -2.9,-1.2 -2.2,-2.2 -0.8,-5.1 -0.2,-3.8 -1.3,-7.9 -1.7,-5.1 -4.2,-8.2 1.9,-4.1 5.6,-1.8 7,-3.7 4.4,-1.1 7.5,1.7 17.1,-2.5 3,-1.4 4.9,-3.7 2,-9.7 0.8,-10 8.7,-28.4 3,3.5 8.8,6.4 62.6,12.1 47.8,-16.1 h 4.8 l 3.1,2.1 0.7,2.2 0.2,1.8 -0.4,1 -0.6,0.6 -2.7,-0.2 -0.3,0.5 0.3,1.5 4.6,9.3 0.4,1.4 0.7,1 1.1,1.3 4.5,3 1.6,0.6 5.6,-0.3 1.3,0.4 3.7,2.2 3.5,1.1 1.5,1.1 1.8,2.2 1.7,1 1.5,0.4 2.9,-0.2 1.6,0.7 1.7,1.8 0.9,2.5 0.1,2.6 0.5,0.7 3.8,2 1.6,1.6 2.4,3.5 9.6,17.1 8.1,21.9 z"
     inkscape:connector-curvature="0"
     style="fill:#dedede;fill-opacity:0.92156863;stroke-width:0;stroke-miterlimit:4;stroke-dasharray:none" /><path
     name="Västerbotten"
     id="SWE192"
     d="m 637.4,1054.4 -0.5,0.6 -0.1,-1.7 0.4,-1.1 0.4,0.6 z m 7.9,-1.5 1.2,0.9 -0.5,1.7 -1.2,-0.8 -0.2,-0.9 h -0.4 l -0.7,-1.8 -0.3,-2.4 0.4,0.6 0.4,1.3 z m 28.7,-6.5 0.3,2.5 -0.5,-0.4 -0.4,0.6 -0.3,-1.9 z m -1.3,-8.4 -0.3,1.5 -0.5,-2.4 0.4,-0.4 -0.1,-1.5 0.2,-1.7 0.8,3 z m 68,-10.9 0.1,0.8 -0.5,0.6 -1.1,0.5 -0.8,-0.8 0.1,-1 0.4,-0.7 0.7,0.8 0.4,-1.5 0.1,-0.8 0.5,-0.6 0.5,0.3 v 0.9 l -0.4,1 z m -39.4,-9.7 0.6,0.4 0.3,-0.3 0.5,0.3 0.2,0.8 -0.4,1 z m 44.1,2.9 -1.3,0.1 0.2,-1.6 2.8,-4 0.3,0.1 0.1,1.1 -0.4,1.7 -0.7,1.5 z m -19.9,-15.2 v 1.9 l -0.8,-1.4 h -0.5 v -1.3 l 0.4,-0.6 0.4,-0.8 z m 24.9,6.5 -1.1,0.9 -1.1,-0.1 -1.1,1.3 -0.2,-1.8 1.4,-8.3 0.6,-1.3 0.7,-0.7 0.7,-0.4 0.9,-1.4 1.4,-1.4 0.8,-0.3 -0.5,0.9 -0.1,0.6 0.3,0.8 -0.1,0.7 -0.5,0.8 -0.3,1.2 0.2,1.3 0.1,1.7 -0.3,2.1 -0.7,2.1 z m -25.7,-13.6 0.1,-1.5 0.6,-1.6 0.4,-0.2 0.3,1.1 -0.3,1.2 -0.5,0.4 z m 26.6,0.2 -3.6,3.4 0.6,-1.2 -0.6,-1.7 -0.7,-0.5 -0.9,0.4 -1,0.7 2,-5 3,0.5 z m -16.6,-5 -0.2,-1 0.8,-0.3 -0.1,0.9 z m 23.4,0.1 -0.8,0.2 0.2,-1.6 0.9,-0.6 0.2,0.4 -0.1,1.2 z m 37.8,-137.5 -0.7,0.2 -0.1,-1.4 0.6,0.7 z m -26.8,-16.4 0.5,0.2 0.6,-1.1 0.9,-0.5 0.8,0.8 0.7,1 0.4,1.6 -0.1,0.6 -1,0.4 -4.2,-2.3 -0.5,-0.6 0.1,-0.5 -0.5,-1.5 -0.3,-1.9 0.3,-0.8 h 0.9 l 1,0.9 0.2,1.1 -0.3,0.7 0.1,1 z m 10.7,-33.1 -0.7,0.4 -0.8,-0.4 -1.5,-2.3 -0.3,-1.6 0.1,-1.2 0.3,-0.6 0.6,0.1 1.6,1.5 0.1,0.7 0.6,1.2 0.1,1.4 z m 21.4,-34.5 -1.4,1.1 -6.3,-0.2 -0.9,1.3 0.7,2.6 1.4,2.6 0.6,0.9 -2.3,2.1 -0.7,0.3 -0.8,-0.3 -1.5,-1 -0.8,0.1 -0.4,1.9 -0.2,0.5 -1.3,1.2 -1.1,1.4 -0.3,1.6 1.2,1.9 -1.3,1.2 -9.2,0.6 -0.9,0.7 -0.2,1.3 0.5,1.1 0.3,1.2 -0.4,2 -0.6,1.2 -0.8,1.5 -1,1.1 -0.9,0.3 0.7,4.7 -1.4,1.9 -1.6,1.4 0.7,3.1 -1.2,1.1 -2.6,1.1 -1.4,0.2 -1.2,-0.9 -0.4,-1.9 -0.2,-2.1 -0.3,-1.3 -1.2,-0.6 -1.2,0.7 -0.8,1.8 -0.4,2.5 0.4,2.3 0.9,0.9 2.3,1 -0.5,2.5 1.4,1.7 1.4,0.7 h 2.9 l 4.8,-1.4 4.8,2.2 1.9,1.5 0.5,2.6 -1,0.9 -3.9,-0.4 -1.4,0.6 1.3,3 1.6,2.3 3.4,3.2 v 1.2 l -1.3,0.1 -0.5,0.9 0.2,1.4 1,1.3 v 1.1 l -2,-0.9 -3.5,-4.1 -2,-1 -1.6,-1.3 -1.5,-2.6 -1.5,-2 -1.9,0.6 -0.8,2.3 0.2,3 0.9,2.9 1.3,2 2.1,0.7 2.5,0.2 2.3,1 1.4,3 -1.4,0.2 v 1.7 l 1,2 1.4,0.9 1.6,0.1 0.8,0.3 0.7,0.7 0.4,0.9 0.7,2.2 0.8,1.1 1.1,2.5 0.7,0.5 0.7,-0.5 0.2,-0.9 -0.2,-0.8 -0.2,-0.1 0.5,-2.1 0.1,-1.7 0.4,-0.6 1.6,0.8 1.5,2.4 1.7,3.2 1.4,1.6 0.9,-4.4 h 0.7 l 0.7,0.7 0.3,0.7 v 4.1 l 0.8,2.1 1.1,1.2 1.3,0.5 1.5,-0.1 -1,1.2 -1,0.9 -1.1,0.4 -1.1,-0.7 -1.9,-3.6 -0.6,-0.6 -3.7,3.4 -2.1,1.3 -0.9,-1.7 -0.3,-1.2 -0.5,-0.6 h -0.6 l -0.5,0.6 -0.2,1.1 0.5,0.5 1,0.2 1.4,3.1 1,0.9 1,-1 0.8,-0.6 3.1,-0.4 0.9,0.3 0.3,0.8 0.6,2.9 0.2,1.2 -0.9,2.7 0.1,1.9 0.9,1.1 1.4,0.4 0.8,-0.5 0.8,-2.5 0.5,-0.6 1.6,0.4 1.5,0.8 -0.5,-2.5 h 1 l 0.9,0.9 0.6,1.7 0.1,2.3 -0.5,1.7 -0.9,0.3 h -1 l -1,1 -0.8,1.2 -1.9,1.1 -0.9,1.3 -4.3,7.5 -3,3.2 -1.5,2.4 -1.8,1.6 -1.6,-1.7 -1.4,-2.7 -1.2,-1.5 0.4,1.6 0.1,1.5 -0.1,1.5 -0.4,1.5 0.5,0.5 0.6,2 -1.2,0.5 -2.2,1.7 -1.3,0.2 -1.1,-0.7 -0.4,-0.6 -0.5,0.3 -9.6,14.9 -0.3,0.3 -2.3,-1 -0.3,-0.3 -0.6,0.9 -1.9,5.3 -5.9,7.3 -1.4,3.3 0.9,3 -0.5,3.1 -2.9,6.6 -0.6,3.7 0.4,0.3 0.1,1.6 -0.1,0.5 -0.6,0.4 -0.3,0.9 -0.1,3.4 -0.2,1.8 -0.5,0.8 -0.9,0.3 -0.6,0.8 -0.5,1.2 -1.7,1.1 -1.2,2.5 -2.9,11.3 -0.7,1.6 -3.7,3.4 -3.3,0.2 -0.8,1 -0.3,2.3 0.6,1.2 1.1,0.2 1.2,-0.2 -1.6,4 -1,1.7 -0.8,-0.4 -1.6,-4 -0.9,-1.1 -1.4,-0.2 -3.6,4.1 -0.2,2.2 -0.6,1.4 -0.9,0.3 -0.8,-1 0.7,-1.8 -0.2,-1.5 -0.7,-1.4 -1.6,-2.1 -0.3,-0.2 -3.6,8.6 -1.4,1.9 -1.8,-1.1 0.4,1.4 v 0.8 l -0.3,0.9 -0.1,1.5 0.5,3.7 0.1,1.1 -0.5,1.9 -0.7,1.9 -0.9,1.5 -0.8,0.6 -1.4,-0.5 -0.7,-1.5 -0.1,-2 0.6,-2.5 v -1.7 l -0.7,-2.2 -1,-2 -1.1,-0.6 -0.6,2.4 0.1,10.4 -0.8,4.2 -0.9,0.3 -1.2,-1.2 -0.9,-1.9 -0.1,-1.8 0.6,-2 0.6,-2.3 0.3,-2.4 -0.2,-2.1 -1.4,2.2 -1.5,3.7 -0.7,4.2 0.5,3.9 -1.8,-0.5 -5,0.5 -0.7,0.4 -0.9,0.7 -0.9,0.3 -0.8,-0.9 -0.8,-2.4 -0.5,-0.5 -1.4,-0.3 -1.5,0.5 -1.4,1.2 -1.1,1.5 -0.7,2.3 0.2,1.9 1.3,3.5 -5.9,-2.9 -1.1,-0.1 -1.2,1.3 -2.7,1.6 -0.5,0.7 -1.2,4.4 -2.7,3 -3.2,2.4 -2.5,2.9 -0.2,1.7 1.2,4.5 0.5,3.9 -0.3,0.6 -1.8,0.6 -0.7,0.7 -1,1.4 -1.7,1.9 -1,0.4 -3.6,-2.3 -0.2,-2.4 0.3,-1.8 -0.3,-1.5 -1.8,-1.2 0.5,-2.4 -1,-0.7 -2.1,-2.9 -3.9,-1.6 -1,-1.2 -1.6,-2.6 -1.7,-1.4 -1.8,0.1 -1.9,2.1 0.8,0.9 0.9,0.7 1.9,0.8 -1,4.3 0.9,1.3 2,0.6 2.3,2 -2.1,1.5 -1.1,0.5 -1.2,0.2 -0.3,0.6 0.7,1.5 3.1,4.5 0.3,1.2 v 2 l -0.6,0.5 -1.5,-0.9 -2.5,-2.4 -6.2,-8.2 -2,-1 -0.1,1.4 2.1,5.5 -1.6,0.8 -1.6,-1.4 -1.1,-1.6 -0.2,-1.2 -8.1,-21.9 -9.6,-17.1 -2.4,-3.5 -1.6,-1.6 -3.8,-2 -0.5,-0.7 -0.1,-2.6 -0.9,-2.5 -1.7,-1.8 -1.6,-0.7 -2.9,0.2 -1.5,-0.4 -1.7,-1 -1.8,-2.2 -1.5,-1.1 -3.5,-1.1 -3.7,-2.2 -1.3,-0.4 -5.6,0.3 -1.6,-0.6 -4.5,-3 -1.1,-1.3 -0.7,-1 -0.4,-1.4 -4.6,-9.3 -0.3,-1.5 0.3,-0.5 2.7,0.2 0.6,-0.6 0.4,-1 -0.2,-1.8 -0.7,-2.2 -3.1,-2.1 h -4.8 l -47.8,16.1 -62.6,-12.1 -8.8,-6.4 -3,-3.5 -36.4,-41.3 -3,-2.1 -2.2,-1.1 h -2.9 l -5.4,1.9 -1.1,-1.2 -1.6,-3.7 -1.9,-6.7 -2.9,-4.1 -14.9,-12.8 -1.7,-3.3 -0.9,-3.9 -0.6,-6.9 -0.9,-2 -1.5,-2.1 -3.1,0.6 -1,2.8 -0.5,1.9 -1,4.8 -1.9,1 -0.7,-0.1 -0.5,-0.7 -0.8,-3.2 -0.5,-3 -0.7,-1.8 -1,-1.7 -2.1,-2.4 -12.6,-11.5 -1.4,-2.3 -1.3,-1.5 -1.7,-1.6 -1.1,-1.4 0.7,-1.3 4.6,-2.5 0.6,-0.7 -0.2,-0.5 -1.5,-1.5 -1.8,-1.2 -2.4,-3.1 -0.7,-1.4 -1,-1.6 -1.3,-1.4 -3.2,-2.6 -2.9,-1.7 -4.5,-0.3 -0.8,-0.4 -0.7,-1 -1.1,-2.6 -1.5,-6.6 -1,-2.7 -1.6,-2.3 -1.4,-1.1 -2.8,-1.8 -3.9,-1.5 -1.3,-0.9 -0.9,-0.9 -5.8,-10.3 -0.9,-2 -1.2,-2.3 -1.4,-2.1 -4.1,-4.9 -27.8,-20 -0.6,-0.5 0.4,-1.4 2.1,-16.7 1.1,-4.5 1.5,-2.7 6.2,-6 2.4,-5.3 0.3,-8.4 -0.5,-9.5 -0.1,-8.7 3.8,-43.2 0.7,-2.9 5.1,-11.8 0.9,-3.9 -0.3,-7.5 -7.9,-52.4 38.7,-5.2 32.4,-22.8 0.8,-2.5 -0.2,-3.8 -0.6,-6.1 -0.4,-2.7 1.8,1 27.4,13.8 47.9,37.5 29,13 44.6,46.3 23.3,18.1 29,13.5 1.4,0.4 1.6,3.6 3.5,5.4 4,4.1 4.2,2.6 8,2.3 4.7,5.5 2.6,1.5 10.6,0.4 1.4,0.7 0.8,1.2 2.1,4.6 0.5,0.7 4.2,4.9 12.5,6 4.1,6 8,2.3 4.3,3.4 2.1,2.7 0.9,3.2 0.6,5.5 1.5,1.4 h 2.2 l 2.4,1.1 0.3,0.6 2.3,1.6 1.3,1.3 0.1,1.7 0.2,0.5 1.2,1.1 1.5,0.5 1.9,-0.5 4.3,-1.9 9.3,-6.4 5.7,-7.5 31,-11.1 87,26.5 21.3,15.8 z"
     inkscape:connector-curvature="0"
     style="fill:#dedede;fill-opacity:0.92156863;stroke-width:0;stroke-miterlimit:4;stroke-dasharray:none" /><path
     name="Gotland"
     id="SWE193"
     d="m 589.9,1920.3 1.5,2 0.5,-3.7 1.3,-1.7 1.3,-1.4 0.5,-2.5 -0.9,-2 -0.2,-1 1.1,-0.4 4.7,-0.9 v 0.9 l -1.2,2.4 1.5,1.4 1.8,-0.1 v -1.9 l 1.1,-0.8 1.5,-0.5 1.5,-0.1 1,0.5 -0.5,0.9 0.3,1.4 0.6,1.6 0.8,1.3 1.2,0.6 0.7,0.8 2.2,3.9 0.5,1.3 -5.3,0.5 -2.2,2.1 -0.4,5.2 -0.8,-1.3 -1,-0.7 -0.6,0.3 -0.1,1.7 -0.7,1.1 -0.5,1.5 v 1.6 l 0.7,1.6 -3,0.8 -2.8,0.1 -0.9,-0.3 -1.6,-1.4 -0.8,-0.3 -1,0.4 -0.1,0.9 0.2,1.3 0.1,1.3 -1,4.8 -1.4,3.5 -0.3,1.4 -0.7,2 -0.2,1.4 0.5,0.3 3.1,1 -0.7,2.2 -0.5,2 -0.3,1.9 v 2.3 l -0.6,1.8 -1.1,2 -0.5,1.9 1.1,1.4 -0.5,2.2 0.3,1.4 1,0.5 1.3,-0.1 -0.4,0.7 -0.6,2.1 2.9,1.3 3,0.6 0.3,-0.4 0.2,-0.9 0.3,-0.6 1,0.5 1.2,0.9 0.4,0.5 0.5,1 0.4,1.4 0.3,2 -0.2,1.6 -1.3,0.7 h -2.3 l -1.1,-0.8 -0.5,-0.1 -0.4,0.3 -0.9,1.3 -0.5,0.3 -2.5,0.6 -2.3,1.7 -2.2,2.3 -1.8,2.7 -2.8,2.5 -1,2 0.5,2.6 0.6,0.3 1.6,-0.3 0.6,0.5 0.2,4.4 -2.6,1.3 0.1,0.5 -6.7,1.6 -2.1,1.3 v 1 h 1.1 v 0.9 l -1.8,0.4 -9.3,5.3 -1.9,1.6 -1.6,2.2 h 5.2 l -1.7,1.4 -5.4,2.9 -1.2,1.9 -0.5,7.1 0.8,1.8 1.2,1 2.7,1 h -4.2 v 1 l 1.1,1 -2,1.8 -0.8,1.1 -0.8,2.9 -1,0.9 -7.1,3.6 -2.6,0.5 -2.3,-1.4 4.9,-8.9 0.2,-1.2 -0.1,-1.4 -0.3,-1.8 1,-1.2 2.7,-1 1.2,-1.1 0.6,-1.7 0.6,-3.8 0.6,-1.6 -1.8,1.2 -1.6,1.9 -1.6,1.4 -1.7,-0.7 v -1 l 1,-1.2 0.8,-1.9 0.2,-1.8 -1,-0.8 0.7,-2.1 0.3,-0.7 -3.2,-1.6 -1.9,-11.8 -4.6,-4.1 0.1,-2.6 1.1,-2.7 2.9,-2.3 0.9,-2.5 0.4,-2.9 -0.4,-2.1 1,-1.7 -0.2,-0.9 -0.7,-0.5 -0.6,-0.7 -1,-1.9 -0.1,-0.8 0.1,-1.8 -0.3,-0.8 -0.8,-1.9 -0.8,-2.7 -0.5,-3.3 -0.1,-3.2 1.2,-5.2 2.5,-4.2 12.3,-13.4 10.5,-18.4 2.7,-3.4 3.8,-1.8 1.1,0.2 1.2,0.7 1.1,0.3 1.1,-0.7 0.4,-1.1 0.5,-2 0.4,-1.4 1.1,-2.6 1.3,-2.2 1.5,-1.8 1.7,-1 1.8,-0.3 1.4,0.8 1.1,1.6 0.9,2.6 v 0.8 l -0.5,1.6 0.2,0.9 0.7,0.7 0.1,0.4 0.2,1.4 z m 33.1,-21.4 0.4,2.3 1,0.5 2.4,-0.9 h 2.5 l 1.2,0.6 1.3,1.3 -0.5,0.6 -0.5,0.3 h -1.1 l -1.1,1.9 -3.6,-1.3 -1.7,0.9 -1.6,1.6 -3.2,1.3 -1.7,2.5 1,0.9 0.6,0.9 0.1,0.9 -0.2,1.3 -2.2,4 -0.1,0.8 -1.2,-0.3 -1.1,-0.6 -1.1,-0.9 -1,-1.2 -2.6,-5.3 0.2,-1.7 0.6,-1 1.6,-2.2 0.5,-1.4 0.4,-1.4 0.5,-1.3 0.9,-1.2 1.2,-0.4 2.6,0.1 1.1,-1.2 h 0.6 l 1.2,0.4 1.4,0.1 z m 5.2,-51.6 -3.1,1.1 -2.7,-1.7 -2,-5.8 h 2.6 l 2,1.2 4.3,1.1 2,1.6 z"
     inkscape:connector-curvature="0"
     style="fill:#dedede;fill-opacity:0.92156863;stroke-width:0;stroke-miterlimit:4;stroke-dasharray:none" /><path
     name="Stockholm"
     id="SWE194"
     d="m 520.7,1787.5 -0.2,3.9 -0.3,-0.8 -0.2,-2.6 -0.3,-0.7 0.1,-1.3 0.6,0.2 z m -11.1,-11.9 -0.3,1.8 -0.6,-0.8 -0.3,-0.8 0.2,-0.5 -0.9,-2 0.8,0.5 0.6,1.1 h 0.4 z m 29.4,-2.2 -0.1,1 h -0.5 l -0.4,-0.4 -0.3,-0.8 v -0.6 l 1,-1.8 2.4,-2.3 0.4,1 -0.4,2.2 -0.2,0.6 -1.1,0.9 z m -19.5,0.9 0.7,0.6 0.6,1.9 -0.2,2.5 0.3,0.4 -0.1,0.9 -0.4,0.5 -0.7,0.5 -0.1,1.1 -0.3,0.2 -0.8,-0.5 -3.3,0.1 -0.2,-0.5 0.5,-0.8 1.1,-0.9 0.2,-1.3 -0.1,-1.3 -0.4,-2 v -0.8 l 0.4,-0.6 0.5,0.1 v -0.6 l -0.3,-1.4 v -1.4 l 0.4,-1 0.7,-0.1 0.1,-0.9 0.6,-1.1 0.7,-0.3 0.4,0.3 0.4,0.8 -0.2,1.2 -1.1,1.7 -0.8,2.4 0.3,0.2 z m 22.9,-7.7 -0.7,0.6 0.1,-1.6 0.4,-0.5 0.8,-0.1 0.3,-1.5 0.1,-1 0.4,-0.6 1.7,-0.2 0.5,-0.5 0.8,0.4 -0.2,0.7 -3.6,4.2 z m -9.5,-5.1 -0.5,1.1 -0.6,0.7 -0.5,-0.2 -0.4,-0.5 -0.8,0.2 v -1 l 2,-4.1 0.9,-1.2 0.4,0.3 v 0.8 l -0.7,1 0.3,0.8 -0.1,1 z m 24.5,-3.8 -1.1,1.4 -1.6,0.9 -1.2,0.9 -0.6,-0.1 -0.3,0.7 0.7,1 1.2,0.5 0.1,0.6 -2.1,0.5 -1.2,0.6 -2.6,0.8 -1.7,1.2 h -0.7 l -1,-0.8 0.2,-1.3 1.1,-2.2 1.2,-1.4 2.7,-2.2 1.1,-0.3 1,0.1 0.7,-0.2 0.5,-0.4 1.2,-0.6 2.2,-1.5 0.5,0.4 z m -10.3,-8.4 -0.1,0.6 -2.8,1.3 1,-0.1 0.5,0.4 -0.3,1.7 -0.3,0.6 -0.6,-0.8 -0.6,-0.3 -0.5,0.6 -0.7,-0.1 -0.8,-1.1 -0.2,0.1 0.3,1.5 -0.1,1.3 0.1,1.3 -0.4,1.1 -1,0.7 -1,-0.4 -1.4,-1.7 -0.9,0.5 -1.2,1.4 -1.1,0.9 -0.5,-0.2 v -0.9 l 0.6,-2.6 0.5,-0.9 0.8,-0.3 0.5,-0.5 -0.2,-0.9 0.3,-1 0.7,-1.2 0.8,-0.7 1.7,0.2 1.8,-0.7 1.7,-0.2 z m -2.8,-3.9 0.5,1.1 -0.6,0.1 -0.4,-0.3 -1,0.7 -1.3,-0.7 0.3,-1.2 1,-0.6 0.5,-0.2 0.1,0.7 z m 27.6,-1.4 -0.8,1 v 0.9 l 0.1,1 -0.4,1.2 -0.6,0.5 -1,-0.2 0.3,-2.9 0.3,-0.8 0.5,-0.5 0.2,0.6 1,-1 z m -64.8,19.9 -0.5,0.4 0.1,1.2 0.7,1.8 -0.5,0.1 -2.1,-3.2 v 0.7 l -0.7,-0.1 -0.7,-1.8 0.2,-2.4 -0.5,-1.3 -0.7,-0.1 -0.1,-1 0.2,-2.6 0.7,-2.4 0.8,-1.7 0.1,-1.2 -0.1,-0.8 v -1.6 l -0.2,-4 0.6,-1.5 0.9,-0.1 0.4,1.9 0.6,0.4 0.7,0.9 0.6,1.7 0.5,2 0.4,2.5 0.1,2.2 -0.4,1.2 -0.1,1.2 0.2,1.7 0.1,1.4 -0.8,4 z m 69.3,-22.6 -0.6,0.1 -0.2,-0.5 v -1.3 l 0.2,-0.6 0.6,-0.7 1.4,-0.8 -0.9,1.4 v 0.8 l -0.2,1.2 z m 10.2,-1.8 -0.2,0.1 -0.7,-1.2 1.4,-1.9 0.8,-0.5 0.3,0.3 v 0.6 l -0.5,0.1 -0.5,0.9 -0.5,0.1 -0.2,0.6 z m -21.5,5 -1.5,1.1 -0.5,1.7 v 0.9 l -0.3,1.5 -0.9,1.5 -0.6,0.4 -1.1,-0.3 -0.3,0.5 -0.7,0.1 -0.8,-0.3 -0.9,-1 -0.8,-1.5 -0.2,-1.1 0.3,-0.5 h 0.6 l 0.6,-0.4 -0.3,-0.9 -0.6,-1.1 0.1,-0.5 0.5,0.1 0.7,-0.3 0.7,-0.9 0.2,-1 -0.5,-0.4 0.2,-0.7 3.1,-2.2 1.4,-1.6 1.3,-1.2 1.1,-0.7 1,0.1 0.5,1.6 v 1.2 l 0.2,0.3 0.1,0.9 -0.5,0.9 z m 9.7,-9.7 -0.6,0.5 -0.4,-0.7 1,-1.4 0.9,0.5 -0.2,0.7 z m 5.8,-9.6 -0.9,2 -0.9,1 -0.5,-0.5 1,-2.2 0.7,-0.4 z m 5.8,-1.4 -5.2,3.5 -0.7,-0.4 0.5,-1.6 0.9,-1.7 1,-1.4 1,-0.4 0.9,0.4 2.1,0.3 0.4,0.2 z m -23.4,-2.2 -0.6,0.3 -1.1,-1.6 h 1 l 0.5,0.3 z m 14.2,-3.1 -0.2,1.4 h -0.5 l -0.2,-0.4 -0.8,0.3 -0.4,-0.1 0.6,-1 z m 23.6,-6 -0.5,0.2 -1.4,-1.2 -0.2,-1 0.2,-0.6 h 1.2 l 0.8,1.3 0.2,0.6 z m -11.3,2.1 -0.1,0.9 -0.5,0.5 -0.5,-0.1 -0.8,-0.7 -0.8,-0.4 H 586 l -0.7,-0.5 0.1,-1.6 1.1,-1.8 1.4,-1.4 1.4,-0.5 1.1,0.2 1,0.4 0.5,0.7 -0.2,0.9 -1.2,1.5 z m -19.3,-4.2 6.7,4.5 -3.9,0.1 -1.6,-0.4 -1.7,-1.7 0.1,3.3 1.1,1.1 3.5,-0.4 -2,2.8 -2.4,-0.5 -3.9,-3.4 -2.9,-0.9 -0.2,-0.4 -0.7,-1.9 -0.4,-0.8 -1.2,-1 -4,-2 8.9,0.2 z m 27.9,-3 -0.5,0.6 h -1.7 l -0.1,-0.6 0.9,-0.6 h 1.5 z m 1.6,-6.9 0.7,0.8 -0.2,0.7 h -1.6 l -0.4,0.3 0.6,0.4 v 0.8 l -1.1,1.7 -1.4,0.6 -0.4,-0.3 0.1,-0.6 0.3,-0.6 0.3,-1 v -1.4 l 0.4,-1 0.5,-0.2 0.6,0.6 0.8,-0.9 z m -16.3,-2.7 1.3,1 1.2,1.9 0.8,0.5 0.2,0.8 0.2,2 -0.4,1.7 -1.1,1.2 -3.3,1.8 -0.4,0.1 -0.4,-0.7 0.3,-1 0.7,-0.8 -0.3,-2.2 -0.4,-1.4 -1,-1 -0.8,-1.1 -1.1,-2 0.7,-0.5 h 3.1 l 0.2,-0.3 z m -33.9,1 -1.2,0.3 -0.7,-0.1 -1.5,-0.1 0.4,0.6 1,1.5 -0.8,1.6 -1.6,0.4 -1.9,-0.3 -1.9,-1.2 -1.3,-1.2 -0.8,-2.3 -0.5,-0.8 0.1,-1.1 1.2,-0.6 8.6,2.4 z m 46.6,-3.4 -0.8,0.6 -0.6,-0.5 -0.1,-1 0.6,-1 0.8,0.4 0.4,1 z m 6.2,1.6 -0.8,0.9 -1.2,-1 -1.6,-2.1 -0.1,-1 0.7,-0.9 1,0.1 1.1,1.1 0.8,1.5 z m -41,-4.7 v 0.6 l -0.5,0.1 -1.2,-0.1 3.7,1.2 -0.1,0.9 -3.2,-0.2 -1.1,-0.7 -0.8,-3 0.6,-0.1 0.9,0.6 h 1.1 z m 41.7,-1.8 0.8,0.8 0.5,-0.1 0.4,0.4 -0.4,0.8 -0.6,0.6 -0.8,1.5 -0.6,0.2 -0.6,-0.9 -0.2,-1.7 v -0.6 l 0.7,-0.7 z m -46.8,0.1 -1.8,0.6 -0.8,-0.3 v -1 l 0.2,-0.9 -0.1,-0.3 0.9,-1.2 1,0.4 1.5,1.1 0.6,1 z m 66.7,-1.6 -0.5,0.1 -0.6,-1.7 1,-0.2 0.1,0.7 z m -23.5,2.2 -1.2,1.6 -1.6,-0.2 -0.9,-2.4 1,-2.2 1.9,-0.9 1,-0.2 0.3,0.1 0.6,0.7 0.1,1.1 z m 45.5,-3.4 v 0.4 l -0.9,-0.4 -0.1,-0.7 0.8,-0.3 z m -58.6,-2.6 -0.4,0.9 -1.6,0.5 0.8,0.6 -0.6,0.5 -1.5,0.1 -0.8,-0.4 -0.9,0.7 -1.8,0.3 -0.3,-0.5 0.5,-1.3 1.3,-1.1 2.3,-0.3 0.7,0.1 0.8,-0.7 0.8,-0.1 z m 6.8,-2.7 -0.1,0.5 -8.4,1.3 -0.3,-0.3 -0.1,-0.6 0.5,-0.2 h 1.3 l 0.3,-0.6 2.8,-0.6 0.8,0.3 0.4,-0.4 2,-0.3 0.7,0.2 z m 26.4,-4.1 -0.8,1.9 -0.3,-0.1 0.2,-1.1 0.7,-1.1 z m -37.1,-4.6 0.7,0.2 3.4,-1 -0.1,0.8 -4.2,2 -1.9,2.2 -0.8,0.4 -0.6,0.7 -0.4,1.5 -0.7,0.2 -1.1,-0.8 -0.4,0.1 v 0.7 l -0.7,0.2 0.8,3 -0.2,1.5 -0.9,0.6 -0.6,-0.5 -0.3,-1.2 0.2,4.9 -0.6,-0.1 -0.8,0.5 -0.5,0.9 -0.4,-0.1 -0.4,-0.9 -0.3,-1.2 -0.4,-1.4 -0.7,-1.2 -0.6,-1.4 -0.1,-1.5 -0.5,-1.4 0.3,-1.1 0.7,-0.6 1,-0.1 0.9,0.4 0.5,0.8 0.3,-0.6 0.4,-0.2 -0.4,-0.8 -0.9,-0.1 -0.2,-0.5 0.4,-1.2 0.7,-1.1 1.5,-1.9 0.9,-1.3 1.3,-1 1.8,-0.6 h 1.6 l 1.5,0.6 0.8,0.9 z m 27.7,-6.7 0.5,0.3 0.8,-0.2 0.6,0.5 -0.1,0.4 -1.3,1.2 -0.4,0.1 -1.6,-0.5 -0.7,-0.7 0.2,-0.5 z m 7.2,-0.7 -0.3,-0.5 2.4,-1.9 0.3,1.5 -0.8,0.5 -1.3,0.1 z m -12.9,-5.7 -0.6,0.5 -1,0.2 -1.4,-0.1 -0.6,-0.5 -1.2,4.5 -0.5,1.3 -1.5,0.7 -1.7,-0.8 -0.4,-1.8 0.8,-1.4 5.2,-6.5 1.1,-0.6 1,0.8 0.9,2.1 0.7,0.7 -0.1,0.7 z m 5.6,-3.5 v 1.2 l -1.6,0.1 -0.5,-0.2 -0.1,-0.6 1.1,-1.8 0.4,0.5 0.2,0.6 z m -20.1,10.7 -1,0.4 -1,-0.1 -0.1,-0.4 1.4,-0.8 1.6,-1.3 1.5,-1.9 0.7,-1.1 3,-3.4 4.5,-3.7 v 1.3 l -1.4,2.2 -3.9,4.8 -1.8,1.5 -0.2,0.8 -0.3,0.3 -1.1,0.3 z m 28,-11.5 -0.6,0.4 -0.8,-0.7 -0.6,-0.3 0.1,-0.5 0.5,-0.6 0.7,0.3 0.3,0.7 0.5,0.3 z m 2.6,-1.1 -0.7,0.2 -0.2,-0.9 0.1,-0.9 1.3,0.2 0.1,0.9 z m -22.2,-1.5 0.5,0.5 -0.4,0.6 -0.7,0.7 -0.5,-0.1 -1,-0.7 -1.3,0.2 -0.4,-0.1 -0.1,-0.5 0.5,-0.9 2.3,-1 0.5,0.2 -0.2,0.5 0.9,0.3 z m 19.2,-11.3 -1.1,0.6 -1.4,-0.6 -0.6,-1.1 0.3,-0.9 0.4,-0.1 2.2,0.9 0.4,0.6 z m 2.7,-2.9 -0.4,0.4 -0.5,-0.1 -0.6,-1.1 -0.3,-1.3 1.2,-1 1.1,-0.3 0.6,0.5 0.1,0.6 -0.3,0.9 z m -6.8,-1.7 -0.7,0.1 -0.5,-0.5 -0.1,-1.2 0.9,-0.9 1.1,0.3 0.2,0.5 -0.4,0.5 -0.1,0.7 z m -7.7,-5.8 0.7,1.2 v 0.9 l -0.3,0.8 -0.8,0.7 -1.2,0.5 -1.2,-0.1 -1.5,-0.8 -0.7,0.8 -0.7,-0.1 -2,0.3 -0.4,-1.2 0.9,-2.4 3.3,-5.8 0.8,-1.9 0.5,-0.4 0.8,0.3 0.7,0.6 0.7,1.1 0.6,1.6 0.1,2 z m 10.2,-4.7 -1.5,2.5 -0.3,-0.4 -0.5,0.5 -0.4,-0.7 v -0.8 l 1,-1.3 0.6,-1.8 0.4,-0.4 1.2,-0.5 0.4,0.6 0.1,1.2 -0.4,0.8 z m -116.5,130.6 -2.1,-2.3 -2.5,-1.4 -3.4,-0.5 -5,0.1 -1.3,-0.3 -0.8,-0.5 -1.6,-3.2 -0.4,-1.3 -0.5,-1.9 -1.3,-11.6 -2.2,-5.1 -0.8,-2.4 -0.5,-2.1 -0.1,-1.6 -0.4,-2 v -1.4 l 0.2,-1 0.6,-0.9 3,-3.1 0.5,-3.1 -0.2,-4 0.4,-3.4 0.9,-1.8 0.8,-1.1 1,-0.5 1.3,-0.2 2.8,-0.3 1.3,-0.8 0.5,-1.7 v -1.2 l -0.9,-1.3 1.5,-3.3 0.9,-3.4 0.5,-1 3,-2.5 0.5,-1.2 0.3,-1.7 v -2.2 l 0.2,-2.8 0.5,-1.6 3.7,-6.7 0.3,-1.4 -0.1,-1.1 -1.2,-1.8 -0.6,-1.1 -0.4,-1.5 -0.2,-2 0.4,-2.4 0.8,-1.7 0.3,-2.5 0.4,-0.5 2.2,-0.7 1.3,-1 1.5,-1.9 0.9,-1.7 0.6,-0.6 0.6,-0.2 2.7,0.3 1.4,0.5 2.5,1.8 1,0.2 2.2,-1.2 4.5,-1.4 10.5,-6.4 6.1,-0.1 1.5,-1.5 1.3,-2.5 2,-5.1 1.8,-2.4 2.5,-1.6 4.8,-1.3 5.2,-2.5 3.6,-2.6 1.6,-2.8 0.7,-3.2 v -6.4 l 0.4,-2.3 0.8,-1.3 1.1,-1 2.8,-1.8 0.4,-0.6 -0.2,-0.5 -1.9,-1.8 -0.5,-1.1 0.1,-1.4 0.9,-2.2 2.4,-3.1 3.8,-6.6 1.4,5 0.4,2.2 h 0.4 l 0.4,-2.3 0.1,-2.9 -0.3,-3 -0.6,-2.2 1.6,-0.9 2,-0.4 1.9,0.4 2.6,2.6 2.6,0.8 1.1,1.7 0.4,2.4 -0.1,5.2 0.5,2.2 3.3,4.9 -0.6,-2 -1.4,-3.8 -0.7,-4 0.9,-4.4 2.9,-1.6 1,0.6 0.3,0.6 -0.2,2.4 0.1,2.6 0.4,1.9 3.3,11.3 2.6,7 1.4,2 3.3,1.1 1.8,1.1 1.5,1.5 v 2 l 1.2,1.8 0.5,0.4 0.9,-0.1 -0.5,-3.1 1.3,0.3 1.3,0.7 -0.2,2.2 -0.1,6 0.1,1.2 -2.6,-0.2 -1,-0.7 -5.4,-9.1 -2.5,-3.2 -2.3,-1.3 0.8,2 2.6,4.7 0.3,2.6 -0.8,2.4 -4.7,7.4 -1.4,1.1 -1.7,0.5 -3.3,-0.2 -1.7,0.4 -1.2,1.3 -0.4,2.1 1.4,-0.1 2.9,-1.5 19,-0.9 3.3,1.9 -0.8,3.4 -1.3,2 -1.7,1.2 -4.5,1.4 H 603 l -1.2,-0.7 -0.7,-1.1 -0.8,-2.3 -0.6,-0.8 -0.9,2.6 -1.6,1.9 -1.9,1.3 -5.6,1.7 -1.8,1.6 -0.1,2.2 -2.7,0.1 -0.5,0.4 -0.1,1.3 -0.3,1 -0.5,0.8 -0.6,0.4 h 3.6 l -0.4,1.2 -0.9,1.4 -1,1.1 -0.8,0.5 -0.8,-0.4 -1.3,-1.6 -1,-0.1 1.5,2.8 0.6,1.7 -0.8,0.7 -0.9,0.5 -1.9,2.1 -3.2,1.4 -4.3,4.2 -4.2,1.7 -2,1.9 -3.4,4.6 -2.5,2.1 -2.6,0.5 -5.8,-0.6 v 1 l 2.6,2 -1,1 -2.1,-0.3 -1,0.3 1.3,0.8 1.3,1.3 -0.5,2 1.2,1.3 1.9,0.6 1.5,0.2 -2.3,1.8 -4.5,-0.2 -4.5,-1.4 -2.2,-2.2 0.9,-0.6 0.9,-0.3 1,0.2 0.8,0.7 -0.2,-1.3 -0.3,-3 -0.4,-0.9 -1,-0.2 -1.7,1.7 -1,0.5 -0.6,-0.4 -0.9,-1.3 -0.5,-0.3 -0.4,0.4 -1,1.3 -1.2,1 v 1.7 l 0.4,1.7 0.6,1.1 -2.5,1.7 -0.8,0.3 -0.9,-0.3 -1.6,-1.3 -0.9,-0.4 10.3,10.1 -2.7,0.7 -1.1,-0.4 v 1.7 l 5.9,0.1 1.7,-1.2 0.8,0.3 0.6,1.9 h 0.5 l 2.5,-6.4 4.8,-1.9 5.4,0.9 4.4,2.3 -1.6,2 2.3,0.8 1,-0.3 0.9,-1.6 -2,-5 -0.6,-2 h 3.6 l -3,-2.2 -1.4,-1.4 -0.8,-2.5 4.4,0.3 2,0.9 1.9,1.8 0.6,3.1 5.1,3 -0.8,1.8 h -1.3 l -1.5,-0.6 -1.5,-0.2 1.7,1 2.6,0.8 2.4,1.4 1,2.4 -0.5,2.3 -1.5,1 -3.9,0.2 -1.2,0.3 -1.2,0.7 -1.3,0.3 -1.3,-0.7 -0.9,-0.8 -2.2,-0.6 -1,-0.1 -6.3,0.9 -2,-0.9 0.5,-3.1 -1.5,-0.1 -1.3,0.6 -1.2,1.1 -1.2,1.5 1,0.7 0.9,1 0.7,1.2 0.5,1.1 v 1 h -2.5 l -0.8,0.7 0.5,1.9 4.4,2.5 1.8,0.6 2,1.5 1.8,2.3 1.1,2.6 -6.8,-5.7 -1.7,0.2 v 1.8 l 1.2,1.1 1.6,0.6 1.1,0.1 0.5,1 0.4,1.8 0.7,1.2 1.5,-1 -0.7,1.6 -0.3,0.4 v 1.1 l 1.9,-1 0.9,0.1 0.3,1.4 -0.2,1.7 -0.6,1.4 -0.7,0.6 -0.9,-0.8 -1.6,-0.3 -2.8,0.9 -2.8,1.5 -1.3,1.6 0.9,-0.3 0.7,0.2 0.6,0.7 0.4,1.2 -7.1,3.5 -2.2,0.5 1,-0.8 2.1,-1.3 1,-0.9 -1,-1 1,-0.9 v -0.9 l -1.3,-0.2 -1.1,0.3 -1.1,0.8 -0.9,1.4 -0.9,0.8 -2.5,0.3 -1,0.5 -0.7,1 -1.6,3.5 -0.9,0.7 -4,-0.2 0.5,3.1 -1.9,-1 -0.9,0.1 -0.8,0.9 1.2,2.3 -1.2,2.5 -1.9,2.9 -1.2,3.4 0.1,1.7 0.4,1.1 0.2,1.2 -0.7,1.9 -1,1.2 -1.3,0.7 h -1.4 l -1,-0.9 -0.4,1.8 -0.1,2 v 4.2 l -1,-0.9 -0.8,-1.4 -0.3,-1.7 0.5,-2 -0.5,-1.9 -0.3,-0.6 -0.7,-0.8 h -0.6 l -0.5,0.3 h -0.5 l -1.2,-0.8 -0.7,-0.8 -1.5,-2.9 -0.9,-1 0.2,1.9 0.8,3.2 1.3,2.5 -0.9,2.6 -0.4,0.9 -0.6,0.4 -0.3,-0.6 v -1.6 l 0.3,-1.7 0.3,-1.1 -2.5,-1.1 -0.2,-2.8 0.4,-3.3 -0.8,-2.8 v -1 l 1,-2.2 0.4,-4.5 v -4.5 l -0.1,-2 -0.2,-0.6 1,-3.5 -0.1,-1.7 -0.8,-0.8 -1,0.5 -0.9,1.2 -0.4,1.4 -0.1,4.6 -0.4,2.1 -0.8,0.9 -0.7,-0.6 -2.6,-3.5 0.2,-2.1 1.5,-3.3 0.4,-2 -0.3,-1.7 -0.7,-1.6 -0.8,-1.3 -0.9,-0.9 1.1,5 -0.9,2.2 -1,1.7 -1.3,1.3 -1.5,0.8 0.7,3.1 -0.3,3.2 -0.1,2.8 1.3,2 -0.8,2.3 -0.5,3.2 -0.6,2.2 -0.7,-0.7 z m 90.5,-180.6 0.9,-0.4 0.3,0.3 0.5,1.3 v 1.1 l -1.8,1.1 -1.6,0.5 -1.9,-0.4 -0.9,-0.4 -0.3,-0.9 -0.5,-1.8 v -1.4 l 0.3,-1.8 0.8,-0.4 v -0.5 l -1.2,-1.8 0.5,-0.7 1.5,0.3 1.1,0.8 0.6,1 0.3,1 0.6,0.7 0.7,0.3 0.4,0.8 v 1 z"
     inkscape:connector-curvature="0"
     style="fill:#dedede;fill-opacity:0.92156863;stroke-width:0;stroke-miterlimit:4;stroke-dasharray:none" /><path
     name="Uppsala"
     id="SWE195"
     d="m 575.2,1571.6 2.6,1.9 0.1,0.3 -0.4,1 -2,0.6 -0.7,-0.5 -0.1,-0.8 -0.6,0.1 -0.2,-0.8 -0.8,-0.2 0.3,-1 0.5,-0.4 0.7,-0.3 z m -2.6,3.2 -0.1,0.7 -1.1,-0.1 -3.2,-2.7 -1.7,-2.8 3.2,0.5 2.6,1.8 0.1,0.7 -0.3,1 z m 6.2,-12.3 0.3,0.7 -0.2,0.6 -1.3,-1.1 v 0.7 l -0.5,0.4 -0.9,-0.6 -0.2,-0.6 0.4,-1.1 0.6,-0.6 0.5,0.2 z m -14.9,-27.8 2,2 0.6,1.8 -1.2,-0.2 -1.8,-1.5 -1.1,-0.3 0.8,2.2 3.3,7.2 0.8,2.5 0.7,1.5 1.1,0.1 1.6,-1.9 0.2,2.2 0.3,1.4 1,2.7 0.4,0.3 1,0.6 0.2,0.6 -0.3,1.5 h -0.6 l -3.4,-2.1 -4.1,-5 -4.3,-2.4 -1,-3.3 -0.3,-4.1 0.3,-7.6 -0.1,-1.7 -1,-3.3 0.3,-1.2 0.9,-0.3 1.2,0.6 1.2,2.3 0.3,0.9 -0.2,2.2 0.2,0.9 z m -2.2,-8.7 -0.9,0.2 -2,-0.9 -0.8,-0.7 v -0.3 l 1,-0.8 1.1,-0.5 1.2,0.3 0.3,0.7 0.2,1.3 z m 10.9,59.7 -3.8,6.6 -2.4,3.1 -0.9,2.2 -0.1,1.4 0.5,1.1 1.9,1.8 0.2,0.5 -0.4,0.6 -2.8,1.8 -1.1,1 -0.8,1.3 -0.4,2.3 v 6.4 l -0.7,3.2 -1.6,2.8 -3.6,2.6 -5.2,2.5 -4.8,1.3 -2.5,1.6 -1.8,2.4 -2,5.1 -1.3,2.5 -1.5,1.5 -6.1,0.1 -10.5,6.4 -4.5,1.4 -2.2,1.2 -1,-0.2 -2.5,-1.8 -1.4,-0.5 -2.7,-0.3 -0.6,0.2 -0.6,0.6 -0.9,1.7 -1.5,1.9 -1.3,1 -2.2,0.7 -0.4,0.5 -0.3,2.5 -0.8,1.7 -0.4,2.4 0.2,2 0.4,1.5 0.6,1.1 1.2,1.8 0.1,1.1 -0.3,1.4 -3.7,6.7 -0.5,1.6 -0.2,2.8 v 2.2 l -0.3,1.7 -0.5,1.2 -3,2.5 -0.5,1 -0.9,3.4 -1.5,3.3 -2,-4.5 -1.7,-1.8 -2.6,-2.1 -4.7,-2.5 -2.3,-2.3 -1.4,-2.4 -0.3,-1.5 -0.4,-0.4 -3,-2.2 -2.3,-1.1 -1.6,-0.3 -5.9,0.8 -7.9,-1.6 -1.4,-4.6 -2.3,-11.6 -1.3,-4.2 -7.8,-17.4 -0.7,-2 0.3,-1.3 3.6,-2.4 1,-1.6 0.5,-1.9 -0.2,-3.5 v -1.4 l 0.2,-0.8 0.6,-0.1 1.2,0.2 5.2,2 4.2,0.8 0.5,0.5 1,2.1 0.8,0.9 1,0.4 1.4,-0.3 1.4,-1 3.1,-2.9 3.9,-2.7 1.1,-1.9 0.7,-2.6 0.4,-3.6 0.1,-2.7 -0.2,-1.6 -0.7,-0.9 -1.2,-0.6 -0.9,-0.8 -0.5,-1.3 0.3,-1.5 0.8,-1.4 2.4,-4.8 0.7,-1 0.9,-0.3 1.9,0.3 1.1,-0.3 1.3,-1.3 1.4,-2.8 5.9,-18.8 0.6,-3.5 -0.4,-2.4 -1.4,-1.6 -10.8,-8.9 -0.7,-11.5 0.5,-3 1.6,-3.7 1.4,-1.7 1.3,-1 2.6,-6.1 4.6,-21.2 0.3,-0.1 1.2,-1.2 1.3,-0.9 10.1,-1.7 2.1,0.2 1.4,1.3 1.1,1.4 2.8,1.8 1,1.6 -0.9,1.3 -2.7,1.7 -0.5,0.7 0.2,2.3 1.1,3.4 0.3,1.7 1,3.2 2.4,1.7 5.4,0.9 v -1.2 l -1.1,-4.4 2.6,-4.4 4.1,-3.4 7.8,-2.3 2.2,0.2 2,1.7 1.5,5.4 -0.1,1.8 -0.4,1.6 -0.7,1.1 -0.9,0.7 v 1.1 l 2,0.2 1.9,1.3 3.4,3.7 2.6,2 0.3,0.9 0.5,2.5 0.3,0.9 2.3,3.6 2.7,2.2 6.3,2.5 -1.3,0.9 -1.9,2 -1,1.3 v 1.2 l 1.1,1.3 1,1.8 1.2,-1.1 2.1,-2.3 1.4,-0.9 1.3,-0.3 0.9,0.2 2.5,1.3 5.2,-0.2 1.5,1.1 -0.1,1.7 v 1.5 l 0.1,1.1 0.3,0.5 1.7,1.5 v 1.1 l -0.9,0.2 -0.9,-0.1 h -0.9 l -0.9,0.9 10.5,4.1 3,3.2 -3.1,1.6 -12.3,-4.8 -2.4,-3 -4,-6.4 1.1,5.4 2.9,4.1 3.4,3.6 2.5,3.7 -1.3,0.1 -1,-0.9 -1.8,-2.5 0.5,3.7 1.5,2.2 3.7,2.6 1.8,2.4 1,0.8 1.3,-0.1 0.9,-0.4 0.7,-0.8 0.3,-1.3 v 4.4 l 0.1,2.2 z"
     inkscape:connector-curvature="0"
     style="fill:#dedede;fill-opacity:0.92156863;stroke-width:0;stroke-miterlimit:4;stroke-dasharray:none" /><path
     name="Blekinge"
     id="SWE262"
     d="m 292.6,2174.9 h -0.4 l -0.5,-0.8 -0.1,-1.6 0.3,-0.2 0.8,0.2 0.4,0.6 z m 70.9,-4.2 0.1,0.3 1,-0.7 0.7,0.3 -0.5,0.9 -1.1,1.8 -1.2,-1.3 0.5,-0.3 -0.1,-1 z m -8.4,-12 0.6,0.4 1.7,0.1 h 0.9 l 0.7,-0.3 -0.1,0.8 -0.8,0.8 -1.1,0.2 -0.1,0.7 0.3,1.5 0.1,1.1 -0.2,0.6 -0.4,0.3 -1,-0.1 -2.4,-2 -0.7,-2 1,-2 1,-0.6 z m -52.5,-0.7 v 0.8 l -0.5,1.2 -0.6,-0.8 -0.8,-0.4 -0.1,-0.5 0.8,0.2 0.8,-0.2 z m 37.5,3.3 -0.9,0.7 -0.6,-0.4 -0.9,-0.1 -0.5,-1 v -0.7 l 0.4,-0.1 0.9,-1 1.4,-0.4 0.6,-0.4 0.5,0.5 -0.3,1.8 z m 6.4,-0.7 -0.4,0.8 -2.6,-0.3 -0.5,-0.5 v -1.3 l 0.4,-1.2 0.5,-0.6 h 0.5 l 1.8,0.5 0.6,0.9 z m 5,0.3 -1.4,0.8 -0.8,-0.8 -0.3,-0.9 0.1,-0.3 1.3,-1.8 0.2,-0.6 1,-0.6 0.5,0.2 v 0.6 l -0.3,0.7 -0.1,1 0.2,1.2 z m 9.9,-4 0.5,0.3 0.6,-0.4 0.3,0.7 v 0.7 l -0.6,0.7 -0.1,0.8 -0.3,0.5 -0.6,0.2 -0.4,-0.5 -0.3,-0.8 -2.4,-2.1 0.3,-0.8 0.8,-0.3 0.6,0.1 0.9,0.7 z m 23.2,-27.5 -2.1,11 -0.5,0.7 -0.8,0.5 -0.5,1.1 -0.3,1.3 -0.4,1.2 -1.3,1.6 -2.9,2.8 -1.3,1.7 -4.3,9.8 -1.8,2.2 -1.2,-0.2 -1.4,-1.4 -2.1,-1.1 2.2,-4.6 0.6,-2.6 -1.5,-1.2 -3.7,1.5 h -2 l -1.3,-2.4 -0.8,0.6 -0.5,-0.4 -0.3,-0.7 -0.7,-0.4 -1,-0.3 -1.1,-1.2 -0.5,-0.3 -1.3,1.2 -1.5,2.2 -1.5,1.2 -1.2,-1.9 0.5,-0.8 0.7,-1.6 0.3,-1.5 -0.7,-0.7 -1,0.3 -2.9,2.4 -3.2,1.7 -0.4,0.7 -0.2,2.1 -0.3,0.5 -1.6,-1.3 -1.2,-1.6 -0.8,-0.8 -1.1,-0.3 -1.1,0.2 -0.8,0.6 -1.2,1.9 -0.5,1.4 v 0.8 l -0.4,0.6 -3.3,0.2 -1.1,-0.3 -0.9,-0.8 1.5,-0.8 h 0.6 l -0.5,-1.4 -1.6,-3.4 -1.6,2.4 -3,1.9 -3.2,0.6 -2.3,-1.6 -0.5,-0.6 -0.6,0.2 -1.2,0.8 h -2.9 l -0.6,-0.4 -0.2,-2.4 -0.5,-0.9 -0.5,0.1 -1.8,0.8 -0.8,0.1 0.3,0.8 0.5,2.1 0.3,0.9 -4.6,-2.2 -2.6,-0.5 -1.9,1.2 -1.7,0.4 -2.5,-0.5 -1.9,0.2 0.2,2.2 -1.5,0.6 -1.3,-1 -1.3,-1.5 -1.6,-0.9 -3.8,0.1 -1.7,0.8 -1.2,1.9 -0.2,1.1 -0.2,1.6 0.1,1.4 0.5,0.6 1.1,0.4 0.5,1.1 0.3,1.2 0.5,1.1 2.1,3.2 0.7,1.7 0.8,2.4 -0.9,0.4 -0.9,0.9 -0.9,0.9 -0.7,1.1 -0.6,0.5 -0.4,-0.5 -0.3,-1.5 h -1.5 l -0.5,1.1 -0.5,0.5 -1.7,-0.6 h -2.2 l -0.7,-0.2 -0.2,-0.5 1.1,-1.3 -0.6,-0.7 -0.6,-1 -0.4,-1.2 v -1.6 l -1.5,1.9 -0.9,-0.9 -0.3,-0.7 -1,0.2 0.2,-5.7 1,-3.2 1,-2.4 0.3,-2.3 -0.2,-3.1 -0.6,-3.1 -1.4,-3.9 -0.6,-0.9 -0.6,-0.4 -0.6,-0.2 -0.9,-0.1 -1.1,-0.2 -1.4,-0.8 -2.1,-1 -0.8,-1.2 -0.5,-2 -0.3,-2 -0.5,-1.8 -1.5,-3.1 -0.2,-1.1 0.2,-1.2 3.3,-8.3 1.2,-2.2 5.1,-7.4 4.2,1.8 2.3,2 2.9,3.1 2.6,2.4 2,1.1 10.9,3.1 1.8,0.1 1.6,-0.5 2.5,-2.3 2.6,-3.7 0.5,-1.1 0.5,-1.8 0.5,-0.6 0.8,-0.2 3.3,-0.2 3.6,-1.1 h 1.3 l 1,0.4 2.3,1.4 1.7,0.7 1.3,0.2 h 0.8 l 0.9,-0.9 0.7,-1.7 0.8,-0.8 1.5,-0.5 h 1.6 l 2.2,0.6 h 1 l 0.9,-0.3 1.5,-1.8 2.1,-2.2 0.5,-0.3 1.7,-0.3 1.4,0.2 1.6,0.9 4,1 0.6,-0.1 0.7,-0.3 0.5,-1.4 1,-1.2 0.9,-0.1 1.3,0.1 1.4,1 5.4,6.1 4.2,4 5.7,7.3 4.5,3.3 9.1,3.3 2.4,0.2 1.5,-0.2 0.8,-0.8 1.4,-0.5 z"
     inkscape:connector-curvature="0"
     style="fill:#dedede;fill-opacity:0.92156863;stroke-width:0;stroke-miterlimit:4;stroke-dasharray:none" /><path
     name="Västra Götaland"
     id="SWE3428"
     d="m 60.8,1946.3 0.6,1.5 -0.4,2 -0.8,-0.4 -1.1,-0.8 -1.1,0.6 -0.9,-0.6 -0.2,-1 0.4,-0.3 0.8,0.1 1,-0.9 0.3,-0.2 0.8,0.4 z m -9.3,-6.4 0.7,0.5 0.4,1.6 0.3,0.6 -0.3,0.5 -0.4,0.2 -1,-0.5 -0.5,0.3 -0.7,-0.6 -0.5,-1 -0.5,-0.3 h -0.6 l -0.3,-0.6 0.4,-0.9 1.3,-0.1 -0.4,-1.9 0.1,-0.7 v -1.2 l 1.4,1.1 0.8,1.2 0.4,0.9 z m -1.6,-26.2 0.4,0.5 0.1,0.6 -0.1,0.7 -0.8,0.2 -0.4,0.7 -1.1,1.4 -0.5,0.3 -0.6,0.9 -0.6,0.3 0.1,-0.9 -0.1,-1.2 -0.6,0.5 -1.5,-0.8 -0.1,-0.5 0.1,-1 0.6,-0.1 0.5,0.4 0.3,-0.3 1.6,-0.8 v -0.4 l -0.7,-0.2 -1,0.6 -1.3,-1 0.6,-0.3 1,-1.2 1.5,-0.3 1.7,0.5 0.7,0.7 z m 7.9,-24.6 v 2.5 l 0.1,0.8 0.4,0.6 -0.7,4 -0.3,0.8 -1,0.8 -0.7,-0.1 -0.2,-1 0.3,-1.6 -1.2,-0.6 -1.2,1.3 -0.9,2.2 -0.6,3.9 -0.7,1.1 -0.8,0.6 -1.6,-0.4 -0.5,0.8 -0.6,1.1 -0.7,0.7 h -1 l -0.7,-0.6 -0.9,-1.3 -2,-0.2 -0.4,-0.5 -0.2,-1.8 -0.2,-1.2 -0.5,-1.2 -0.3,-1.3 0.2,-1.1 0.9,-0.7 2.1,0.4 1,-0.2 -1.6,-0.8 h -1.7 l -1.4,-0.5 -0.6,-2.1 0.6,-2.6 1.4,-0.7 3.3,0.8 h 6.9 l 1.7,-0.7 1.3,-1.3 1.3,-0.7 z m 3.8,-26.9 1.3,2.3 0.6,2.8 0.1,3.1 -0.1,6.4 -0.7,2.7 -1.7,0.8 -2,0.3 -3.6,2.9 -4.1,-1.4 -1.9,1.1 -1.3,-2.7 -2,-0.6 -2.2,0.7 -1.7,1.6 -0.8,1.5 -0.5,1.5 -0.8,-0.1 -0.8,-0.5 -2.4,-2.4 v 5 h -0.4 l -0.5,-3.6 -0.3,-0.9 -2.4,-2.7 -0.7,-1.2 0.2,-2.1 1.5,-2.2 7.5,-7.4 2.6,-1 1.9,-1.9 1,-0.7 h 1.3 l 2.2,0.5 1.2,-0.5 -0.4,-1.5 0.1,-1.5 0.6,-1.1 0.8,-0.8 -0.6,-1.9 1.2,-0.9 h 1.3 l 2.7,0.9 0.8,3.2 1.4,1.3 z m -58.4,-97.1 0.5,0.5 0.3,0.8 -0.2,0.2 v 1.3 l 0.7,-0.5 h 0.7 l 1,0.5 0.3,0.8 -0.7,0.8 0.2,0.6 0.6,0.3 0.4,-0.1 v 1.5 l -0.8,1.1 H 5.9 l -1.4,-0.6 v -0.6 l -1.4,-0.6 -0.4,-0.9 H 2 l -0.3,1.3 H 1.2 l 0.1,-1.2 v -1.6 l 0.5,-0.5 0.2,-0.5 -0.5,-0.2 -0.5,-1 0.1,-0.5 0.5,-0.6 0.7,0.1 z m 249,-14.6 1.2,3.9 0.6,1.5 1.2,3.9 1.4,3.7 1.6,3.3 0.5,1.6 0.1,1.4 -0.1,1.9 0.1,1.7 0.8,2.2 4.2,7 1.1,2.5 0.4,2.2 0.1,2.9 0.7,1.5 1.8,0.9 3,0.5 0.8,0.4 0.4,1.3 0.4,0.6 h 0.6 l 1.5,-0.9 1.2,-1 0.6,-0.7 0.4,-1.5 0.5,-0.6 0.8,-0.5 1.5,0.4 1.5,1.1 1.3,3.1 1,3.7 1.6,2.3 4.9,3.8 -28.9,60.8 -14.5,31.9 0.1,1.5 0.8,3.7 0.1,1.7 -0.3,1.7 -1,1.8 -1.6,1.7 -2.3,1.6 -4.9,2.3 -0.8,0.9 -3.7,1.7 -0.9,0.9 -0.3,0.7 -0.6,3.2 -0.4,0.8 -0.7,0.3 -1.2,-0.2 -1.8,-1.2 -1.9,-1.7 -1.7,-0.7 -7.8,1 -1.8,-0.5 -4.1,-0.1 1.3,6.3 0.1,2.2 -0.1,1.7 -0.5,1.3 -0.8,1.2 -0.6,1.2 -0.6,1.5 -0.7,3.4 v 1.6 l 0.2,1.7 0.2,2.8 -0.3,1.6 -1.5,2.7 -0.9,2.2 -0.2,2 -0.1,5.3 -0.6,2 -0.9,1.4 -2.5,2.8 -3.1,5.4 -4.1,8.6 -1,1.7 -0.9,1 -3.2,2.7 -4.6,5.9 -3.1,2.8 -2.9,1.5 -1.4,1 -1.3,1.8 -1.3,3.9 -0.5,0.8 -0.6,0.3 -1.1,0.2 -1.5,1.3 -1.9,2.6 -4.1,8.1 -1.3,1.8 -1.4,1.6 -4.6,-1.6 -0.7,-0.7 -0.8,-1.1 -0.7,-1.2 -0.6,-0.5 -2.9,-0.2 -2.1,-0.7 -1.2,-1.2 -0.6,-2 0.1,-1.4 1.4,-3.1 0.4,-1.8 v -0.8 l -0.7,-0.6 -6.1,-0.9 -1.4,-0.5 -0.8,-0.7 -0.6,-0.9 -0.5,-0.4 h -0.7 l -2,0.8 h -1.1 l -1.7,-0.9 -3.4,-4.6 -1.1,-1.1 -1.1,-0.4 -2.3,-0.1 -2.8,-0.6 -0.9,0.1 -3.3,3.1 -0.6,0.8 -0.5,1.2 -0.7,1.2 -0.9,1.1 -1.2,0.7 -1.1,0.3 -2,-0.1 -0.8,-0.5 -1,-1.5 -2.4,-6.7 -0.6,-2.3 -0.1,-1.9 0.3,-1 1.1,-2.6 0.3,-1.4 0.1,-1.3 -0.1,-1 -0.7,-1.3 -1.1,-1.5 -2.4,-2.5 -1.7,-2.5 -0.4,-1.1 -0.1,-1.1 0.1,-4.1 0.2,-2.3 v -2.6 l -0.2,-1.8 -2.3,-4.6 -11.8,5 -5.7,1.1 -8.6,-1.9 -3.3,0.5 -0.1,-1.8 0.4,-3.6 -0.3,-0.3 -1.1,-0.5 -0.4,1.9 -1,1 -0.9,-0.2 -0.4,-1.3 -0.3,-2.2 -0.6,-1.5 -0.7,-1.3 -0.4,-1.4 0.7,-2.9 4.9,-0.6 1.1,-2.2 -1.7,0.9 -2.1,0.4 h -2.1 l -1.9,-0.4 -3.8,-2.3 -1.7,-0.2 0.3,2.5 -1.1,0.4 h -1.3 l -1.1,-0.7 -0.1,-1.6 0.1,-1.7 7.2,-7.4 0.7,-1.1 -0.2,-0.9 -1.4,-0.3 -1.7,0.2 -1.1,0.6 -1.9,-2.6 -1.4,-2.9 -1.6,-2 -2.3,-0.3 1.6,-2 1,-0.7 1,-0.3 -0.8,-2.9 1,-1.5 3.9,-1.5 v -0.9 h -1 v -0.9 l 1.1,-0.6 0.5,-1.4 -2.3,-1.4 0.6,-2.4 3.3,-6 0.9,-3.5 0.2,-2 -0.4,-1.8 -0.7,-1.4 -0.4,-1.5 0.3,-1.3 1.1,-1.2 -0.3,-0.5 -0.3,-1.4 1.9,-0.5 0.8,-2.5 0.6,-9.5 0.3,-0.9 0.9,-0.4 h 1 l 0.7,-0.4 0.6,-0.9 0.5,-1.6 -1.2,0.2 -1,-0.5 -0.7,-1.1 -0.5,-3.9 -0.8,-1.2 -0.8,-1 -0.7,-1.3 -0.4,-3.5 1.3,-2 4.3,-2.4 -1,-1.8 -1.5,0.4 -3.3,2.3 -4.1,-0.5 -1.9,0.4 -0.1,2.1 -1.1,0.7 -2.4,0.1 -3.8,3.7 -0.8,0.5 -0.4,0.5 -1.7,2.6 -0.7,0.8 -1.1,0.2 -1.1,-0.1 -1.1,-0.5 -0.5,0.1 0.6,2.2 -2.5,-0.8 -0.7,-2.2 0.5,-3.1 1.2,-3.7 1.7,-4 1.9,-3.1 4.2,-4.8 -1.1,-0.9 1.1,-1.6 1.1,-1.1 2.5,-1.3 -1.3,-2.2 -1.8,0.9 -1.8,2.3 -1.2,2.1 -0.8,-1.9 -1.5,-4.9 -0.4,-2.2 h -0.5 l 0.5,4.2 -0.1,5 -0.8,5 -1.4,4.1 -2.1,3.4 -2.2,2.7 -5.3,4.2 0.7,-2.1 0.8,-1.6 1,-1.2 1.1,-1 v -1 l -1.2,0.1 -2.2,1.3 -0.7,-0.4 -0.4,-1.8 0.4,-1.6 0.9,-1.1 0.9,-0.4 2.7,-0.3 -0.6,-1 -1.4,-2.2 0.1,-3.5 -1.3,0.2 -0.7,1.2 -0.5,1.8 -0.6,1.8 -0.9,0.9 -1.2,0.5 -0.7,-0.3 0.4,-1.6 2.6,-5.9 1.7,-2.9 0.6,-1.5 v -0.5 l -3.3,4.7 -1.2,1 -0.6,0.6 -1.1,3 -2,1.1 -2.1,-0.9 h -2 l -1.6,3.8 -0.8,-0.9 -0.1,-1 0.2,-1.1 0.2,-1.4 -0.3,-1.3 -1.3,-3.1 0.4,-2.6 1.1,-0.9 2.7,0.4 -0.6,-2.9 0.7,-1.4 1.3,-1 1.2,-1.6 -2.7,-1.7 -0.5,-0.8 -0.1,-0.8 -0.7,-1.3 -0.2,-0.8 0.5,-1.3 0.5,-0.3 0.1,-4.3 0.2,-1.1 0.7,-1 1.2,-1.1 0.4,-1.4 h -1.5 l 0.3,-1.8 -0.4,-0.6 -0.6,-0.4 -0.4,-1.1 0.1,-1.3 0.5,-1.4 v -1.3 l -0.7,-2.1 -3,-4.4 0.3,-2.8 0.3,-1.4 -0.5,-0.3 h -1.9 l -0.7,-1.2 0.1,-2.6 0.8,-2.4 1.6,-0.6 -0.3,-2 0.5,-1.3 0.7,-1.1 0.7,-1.8 0.1,-1.3 -0.1,-5.1 -0.4,-0.8 -0.9,-0.3 -0.9,-0.6 -0.4,-1.3 v -3.5 l -0.1,-1.5 -0.4,-1.5 0.3,-1 0.2,-1.1 -3.8,-1.2 -2.1,-1.4 -0.8,-1.9 0.7,-2.2 1.6,-1.4 3.4,-1.9 -3.2,0.2 -1.4,-0.6 -0.6,-2.1 0.3,-1.9 0.8,-1.5 4.8,-7.2 2,-1.4 7.6,-1.4 2.6,1.1 1.1,4.2 0.5,3.2 1.3,3.2 1.6,2.7 1.1,1.5 h 0.7 l 1.1,4.5 -0.1,9.4 2.3,1.4 4.9,0.3 4.9,-1.3 4,-3.9 2.2,-7.8 0.5,-3.8 0.6,-3.3 2,-6.4 0.8,-3.9 0.2,-7.1 2.1,-9.2 0.7,-2.3 1.3,-2.4 0.7,-2.1 1.1,0.2 5.4,2 h 0.9 l 1.2,-0.3 0.7,-0.8 1.1,-0.8 1.1,0.2 1.4,0.8 6.6,5.7 0.9,0.2 0.7,-0.2 0.9,-0.8 0.3,-0.5 0.1,-0.8 -0.3,-1.4 0.3,-2.3 1.5,-1.2 4.4,-0.9 2.1,0.4 1.5,1.1 1.1,3.2 0.6,1.2 1.1,0.9 3.8,1.5 2.4,1.5 0.9,0.1 6.5,-2 1.3,0.2 0.7,0.6 -0.1,0.7 -0.7,0.5 -2.7,0.3 -0.9,0.5 -0.4,0.7 0.2,0.9 0.5,0.8 3.2,1.9 0.7,0.7 0.8,0.9 0.8,0.2 h 0.5 l 1.7,-1 1.1,-0.3 0.7,0.1 0.6,0.6 1.1,2.2 1,1 0.8,-0.3 1.2,-1.5 1.5,-3.3 2.6,-2.5 1.6,-0.1 1.1,0.8 0.8,1.2 0.9,1 1.5,1.2 0.9,1.5 0.6,2.2 0.7,6.8 0.3,2.1 0.7,1.4 5.5,9.3 5.2,25.3 27.2,10.7 h 6.6 l 2.2,-0.7 2.3,-1.1 0.8,-0.8 -0.1,-1.4 -3.5,-6 -1,-2.4 -0.4,-2.3 0.5,-2 1.7,-5.6 1,-3.9 1.1,-3.2 1.6,-3.6 2.6,-4.7 1.8,-2.6 3,-3.2 2.5,-1.7 2,-0.5 46.2,1.5 0.9,0.2 1,0.6 z"
     inkscape:connector-curvature="0"
     style="fill:#dedede;fill-opacity:0.92156863;stroke-width:0;stroke-miterlimit:4;stroke-dasharray:none" /><path
     name="Skåne"
     id="SWE3429"
     d="m 269.4,2110 -5.1,7.4 -1.2,2.2 -3.3,8.3 -0.2,1.2 0.2,1.1 1.5,3.1 0.5,1.8 0.3,2 0.5,2 0.8,1.2 2.1,1 1.4,0.8 1.1,0.2 0.9,0.1 0.6,0.2 0.6,0.4 0.6,0.9 1.4,3.9 0.6,3.1 0.2,3.1 -0.3,2.3 -1,2.4 -1,3.2 -0.2,5.7 -1.5,1.2 -0.7,0.2 -2,0.5 -1.5,1.2 -2.5,3.9 -2.8,3.5 -1.7,1.4 -1.4,0.6 -1.6,1.2 -0.9,2.5 -0.8,2.5 -0.9,1.2 -3,1.7 -2.8,4.3 -2,5.5 -0.7,5.6 -0.4,5.1 0.2,2.2 0.7,2.3 1.3,1.5 2.9,2.3 1,1.7 0.1,1.4 v 1.4 1.5 l 0.7,1.6 0.7,1.1 1.7,1.7 3.1,5.2 0.7,2.4 -0.3,2.9 -1.1,1.8 -4.1,4.6 -1.3,1 -0.9,0.9 -3.5,6.3 -1.4,2 -1.4,1.1 -1.8,0.5 h -4.8 l -2.3,-0.5 -2.1,-0.8 -6,-4 -2,-0.8 -2.5,-0.3 -1.1,0.3 -1.9,1.1 -1.1,0.5 -1.1,-0.1 -3.6,-0.8 -10.1,0.9 -1.3,0.3 -0.9,1 -0.7,1.2 -0.9,1.2 -1.2,0.6 -3.2,-0.6 -2.6,0.6 -7,4.8 -2.2,0.9 -5.2,0.4 -2.5,-0.4 -12.4,-4.6 -4.1,-0.1 -1.5,-0.6 -1.3,-0.4 -1.2,-1.1 -0.6,-0.4 -1.6,-0.5 -1.6,0.5 -0.8,0.5 -1.1,1.1 -0.9,0.2 -0.8,-0.2 -1,-0.6 -0.8,-0.1 -1.5,0.6 -1.5,0.9 -1.1,-0.1 -0.3,-2.3 2.3,-4.7 1,0.1 0.4,0.4 0.7,0.9 1.4,0.9 1.8,-0.1 1.8,-0.8 1,-1.4 -0.5,-1.7 0.3,-0.8 h 0.7 l 1,0.8 -0.8,-3.6 -3.5,-6 -0.9,-3.6 0.9,-4.3 2.2,-2.5 5.2,-3.9 0.8,-1.1 0.9,-1.6 0.6,-1.8 0.3,-1.9 -0.5,-2.6 -1.1,-1.5 -1.1,-0.9 -1.1,-2.2 -1.4,0.4 -1.4,-0.1 -0.6,-2.7 -1.9,0.1 -1.4,-0.5 -0.8,-1.9 0.9,-0.2 0.6,-0.6 0.4,-1.1 0.1,-1.7 -0.9,-5.9 -2.7,-2.6 -3,-1.6 -2.2,-2.9 -0.8,-2.1 -0.2,-1 -0.1,-2 -0.2,-0.6 -0.5,-0.8 -0.6,-0.6 -0.5,-0.2 -1,-1 -0.4,-2.2 -0.4,-2.5 -0.6,-1.8 -1.3,-1.3 -1.1,-0.8 -0.8,-1.2 -0.4,-2.6 -0.5,-1.5 -6.6,-8.8 -0.6,-0.9 -2.8,-6.6 -0.9,-1.3 -0.6,-4.3 -0.3,-1.3 -1.9,-4 -0.9,-3.2 -3,-2.2 -1,-1.7 14.7,6.4 0.6,0.4 0.9,2 1.2,0.7 1.1,1.3 0.7,0.3 0.6,-0.1 1.1,-0.7 0.6,-0.1 3.2,0.4 1.4,-0.3 1.3,-1 1,-1.9 0.5,-2.2 -0.3,-1.7 -3.5,-2 -1.6,-3 -2.3,-6.1 -6.6,-4.9 -1.7,-3.2 2.6,-4.9 4.3,-1.7 9.1,3.4 4.3,-1.7 1,-1.6 0.5,-1 1.5,1.8 3.4,2.4 0.7,1.2 0.3,1 v 0.9 l -1,3.4 v 1.2 l 0.3,0.8 0.4,0.5 2.4,0.9 10.5,1.9 1,0.8 0.9,1 0.9,0.7 1.2,0.1 1.7,-0.7 1.9,-1.9 1.4,-1.9 1.6,-1.7 1.8,-1.5 5.4,-3.4 2.2,-0.8 2.4,-0.4 3.7,0.6 h 5.7 l 31.5,-7.6 2.3,-1 1.3,-0.8 0.4,-1 0.4,-1.7 0.3,-0.8 0.6,-1 1,-1.2 1.3,-1 1.1,-0.1 1.1,0.5 1.7,1.7 1.2,0.4 8.8,-0.1 2.2,0.5 3.9,1.8 z"
     inkscape:connector-curvature="0"
     style="fill:#dedede;fill-opacity:0.92156863;stroke-width:0;stroke-miterlimit:4;stroke-dasharray:none" /><circle
     id="0"
     cy="1757.8"
     cx="425"
     r="0"
     style="fill:#dedede;fill-opacity:0.92156863" /><circle
     id="1"
     cy="1527.9"
     cx="301.60001"
     r="0"
     style="fill:#dedede;fill-opacity:0.92156863" /><circle
     id="2"
     cy="2095.5"
     cx="239.89999"
     r="0"
     style="fill:#dedede;fill-opacity:0.92156863" /></g><g
   transform="matrix(0.68476995,0,0,0.68476995,12.724926,17.61918)"
   id="icon-m-weather-d400-light1"
   serif:id="icon-m-weather-d400-light"
   style="clip-rule:evenodd;opacity:0.6;fill:#ffffff;fill-opacity:1;fill-rule:evenodd;stroke-linecap:round;stroke-linejoin:round;stroke-miterlimit:1.5"><g
     id="g7"
     style="fill:#ffffff;fill-opacity:1"><path
       inkscape:connector-curvature="0"
       d="M 38.853,49 H 12.357 c -5.271,0 -9.55,-4.279 -9.55,-9.55 0,-4.78 3.519,-8.745 8.106,-9.441 -0.045,-0.556 -0.068,-1.117 -0.068,-1.684 0,-11.411 9.264,-20.675 20.675,-20.675 9.538,0 17.576,6.473 19.958,15.261"
       style="fill:#ffffff;fill-opacity:1;stroke:#ffffff;stroke-width:2px"
       id="path3" /><path
       inkscape:connector-curvature="0"
       d="m 34.884,29.913 c 2.137,-4.583 6.787,-7.763 12.174,-7.763 7.41,0 13.425,6.016 13.425,13.425 C 60.483,42.984 54.468,49 47.058,49 H 34.383 c -5.27,0 -9.55,-4.279 -9.55,-9.55 0,-5.271 4.28,-9.55 9.55,-9.55 0.168,0 0.335,0.004 0.501,0.013 z"
       style="fill:#ffffff;fill-opacity:1;stroke:#ffffff;stroke-width:2px"
       id="path5" /></g></g></g>
</svg>